<svg width="61" height="112" viewBox="0 0 61 112" fill="none" xmlns="http://www.w3.org/2000/svg">
<path fill-rule="evenodd" clip-rule="evenodd" d="M55.5583 14.6093C51.0336 22.1404 49.904 23.0999 48.8218 22.3951C47.9243 21.8105 48.2764 20.2217 51.4383 14.7693C54.9398 8.73238 55.1993 8.10941 51.2783 10.6493C47.7002 12.9673 42.1918 17.5778 37.6453 22.1009C24.7986 34.8812 16.6289 49.0778 9.79094 67.3572C7.63028 73.1331 2.56573 92.7966 2.67076 96.5172C2.77795 100.301 3.75124 105.84 4.33422 108.103C4.63293 109.261 4.77591 110.876 4.69891 111.244C4.45791 112.397 3.63556 110.221 2.58129 106.715C0.0781037 98.3883 0.475936 87.9749 4.03325 75.3478C7.95856 61.415 14.1061 49.3418 22.2146 37.2632C30.5855 24.7947 38.6157 15.836 48.5466 9.0563C51.3037 7.17382 53.2558 6.07882 53.2807 5.95986C53.3056 5.84091 51.1795 4.66433 48.5913 3.95748C43.5973 2.59333 43.5082 2.64086 44.1066 0.976267C44.4262 0.0874156 43.7682 -0.176116 48.2266 0.816296C57.9561 2.9829 60.7649 4.59 60.3372 6.41403C60.2498 6.78597 58.0374 10.4824 55.5583 14.6093Z" fill="url(#paint0_linear_1_628)"/>
<defs>
<linearGradient id="paint0_linear_1_628" x1="48.584" y1="108.07" x2="57.3413" y2="-1.90379" gradientUnits="userSpaceOnUse">
<stop stop-color="#73E5C6"/>
<stop offset="0.5" stop-color="#8179EF"/>
<stop offset="1" stop-color="#CF52FE"/>
</linearGradient>
</defs>
</svg>
