<svg width="141" height="24" viewBox="0 0 141 24" fill="none" xmlns="http://www.w3.org/2000/svg">
<path d="M134 24L141 12L134 6.1196e-07L128 1.1365e-06L135 12L128 24L134 24ZM86 24L93 12L86 4.80826e-06L80 5.3328e-06L88 12L80 24L86 24ZM102 24L109 12L102 3.40949e-06L96 3.93403e-06L104 12L96 24L102 24ZM117 24L125 12L117 2.09815e-06L112 2.53526e-06L119 12L112 24L117 24ZM37 24L45 12L37 9.09198e-06L32 9.52909e-06L39 12L32 24L37 24ZM0 24L6 24L13 12L6 1.18021e-05L-2.09814e-06 1.23266e-05L7 12L0 24ZM70 24L77 12L70 6.20702e-06L64 6.73156e-06L71 12L64 24L70 24ZM22 24L29 12L22 1.04033e-05L16 1.09279e-05L24 12L16 24L22 24ZM53 24L61 12L53 7.69321e-06L48 8.13033e-06L55 12L48 24L53 24Z" fill="url(#paint0_linear_1_390)"/>
<defs>
<linearGradient id="paint0_linear_1_390" x1="141.047" y1="12.0939" x2="-0.103605" y2="12.0939" gradientUnits="userSpaceOnUse">
<stop stop-color="#CF52FE"/>
<stop offset="1" stop-color="#370B6B" stop-opacity="0.1"/>
</linearGradient>
</defs>
</svg>
