<svg width="291" height="29" viewBox="0 0 291 29" fill="none" xmlns="http://www.w3.org/2000/svg">
<mask id="mask0_1_34" style="mask-type:alpha" maskUnits="userSpaceOnUse" x="0" y="0" width="291" height="29">
<path d="M36 0H291V29H123L73 26H47L0 18L36 0Z" fill="#D9D9D9"/>
</mask>
<g mask="url(#mask0_1_34)">
<path fill-rule="evenodd" clip-rule="evenodd" d="M177 10C175.67 11.329 181.269 11 224 11C265.397 11 271.711 11.288 273 10C274.33 8.671 269.731 8 227 8C185.603 8 178.289 8.712 177 10ZM277 13L275 15H226H176L171 20L165 24H134H102L98 21L95 19H15L-64 18L-70 23L-76 28H-144H-213L-217 26C-220.223 24.183 -220.919 23.362 -220 22C-219.149 20.739 -219.653 19.322 -222 16L-225 11H-232H-239L-242 16L-245 20L-242 25L-239 29H-232C-228.211 29 -224.697 28.578 -224 28C-223.114 27.265 -220.854 27.3 -217 29L-212 32H-143H-75L-70 27L-64 22H15H93L96 25L99 27H133H168L173 23L179 18H227H276L278 21C279.458 22.845 281.011 23 284 23C287.326 23 288.382 22.595 290 20C291.808 17.099 291.761 16.064 290 13C288.364 10.155 287.588 10 284 10C280.839 10 278.483 11.123 277 13ZM118 18C116.614 19.386 118.861 20 140 20C154.423 20 163.544 19.612 164 19C164.486 18.348 157.741 18 144 18C132.41 18 121.943 17.301 121 17C120.057 16.7 118.85 17.15 118 18ZM-32 28C-33.8929 29.892 -30.1383 33.501 -27 33C-23.6374 32.463 -24.6061 27.402 -28 27C-29.3841 26.836 -31.2404 27.241 -32 28ZM-20 29C-21.0561 31.281 -19.5741 33 -17 33C-14.01 33 -12.0427 31.068 -13 29C-13.9452 26.956 -19.0704 26.989 -20 29ZM-9 29C-10.1237 31.43 -9.01292 33 -6 33C-3.13417 33 -0.538752 29.961 -2 28C-3.15742 26.448 -8.21874 27.314 -9 29ZM2 28C0.107129 29.892 2.86169 33.501 6 33C9.36256 32.463 9.3939 27.402 6 27C4.61591 26.836 2.75956 27.241 2 28ZM13 28C11.7196 29.718 13.702 33 16 33C18.8863 33 21.9416 31.035 21 29C20.1741 27.215 14.1996 26.391 13 28ZM24 29C22.8824 31.417 25.0293 33 28 33C30.9707 33 32.1176 31.417 31 29C30.6178 28.175 29.5155 27 28 27C26.4845 27 24.3822 28.175 24 29ZM36 28C34.1071 29.892 36.8617 33.501 40 33C43.3626 32.463 43.3939 27.402 40 27C38.6159 26.836 36.7596 27.241 36 28Z" fill="#11E5B3"/>
</g>
</svg>
