<svg width="" height="" viewBox="0 0 42 53" fill="none" xmlns="http://www.w3.org/2000/svg">
<path d="M0 6H2V4H0V6Z" fill="url(#paint0_linear_1_9)"/>
<path d="M12 2H14V0H12V2Z" fill="url(#paint1_linear_1_9)"/>
<path d="M6 6H9V4H6V6Z" fill="url(#paint2_linear_1_9)"/>
<path d="M9 5H12V3H9V5Z" fill="url(#paint3_linear_1_9)"/>
<path d="M21 2H23V0H21V2Z" fill="url(#paint4_linear_1_9)"/>
<path d="M0 9H2V7H0V9Z" fill="url(#paint5_linear_1_9)"/>
<path d="M3 9H5V7H3V9Z" fill="url(#paint6_linear_1_9)"/>
<path d="M6 9H9V7H6V9Z" fill="url(#paint7_linear_1_9)"/>
<path d="M18 5H20V3H18V5Z" fill="url(#paint8_linear_1_9)"/>
<path d="M14 9H16V7H14V9Z" fill="url(#paint9_linear_1_9)"/>
<path d="M0 11H2V9H0V11Z" fill="url(#paint10_linear_1_9)"/>
<path d="M3 11H5V9H3V11Z" fill="url(#paint11_linear_1_9)"/>
<path d="M6 11H9V9H6V11Z" fill="url(#paint12_linear_1_9)"/>
<path d="M9 12H12V10H9V12Z" fill="url(#paint13_linear_1_9)"/>
<path d="M13 11H15V9H13V11Z" fill="url(#paint14_linear_1_9)"/>
<path d="M0 14H2V12H0V14Z" fill="url(#paint15_linear_1_9)"/>
<path d="M3 14H5V12H3V14Z" fill="url(#paint16_linear_1_9)"/>
<path d="M6 14H9V12H6V14Z" fill="url(#paint17_linear_1_9)"/>
<path d="M18 10H21V8H18V10Z" fill="url(#paint18_linear_1_9)"/>
<path d="M14 14H16V12H14V14Z" fill="url(#paint19_linear_1_9)"/>
<path d="M0 17H2V15H0V17Z" fill="url(#paint20_linear_1_9)"/>
<path d="M3 17H5V15H3V17Z" fill="url(#paint21_linear_1_9)"/>
<path d="M6 17H9V15H6V17Z" fill="url(#paint22_linear_1_9)"/>
<path d="M9 16H12V14H9V16Z" fill="url(#paint23_linear_1_9)"/>
<path d="M21 13H23V11H21V13Z" fill="url(#paint24_linear_1_9)"/>
<path d="M0 20H2V18H0V20Z" fill="url(#paint25_linear_1_9)"/>
<path d="M3 20H5V18H3V20Z" fill="url(#paint26_linear_1_9)"/>
<path d="M6 20H9V18H6V20Z" fill="url(#paint27_linear_1_9)"/>
<path d="M18 16H20V14H18V16Z" fill="url(#paint28_linear_1_9)"/>
<path d="M12 20H15V18H12V20Z" fill="url(#paint29_linear_1_9)"/>
<path d="M0 23H2V20H0V23Z" fill="url(#paint30_linear_1_9)"/>
<path d="M3 23H5V20H3V23Z" fill="url(#paint31_linear_1_9)"/>
<path d="M6 23H9V20H6V23Z" fill="url(#paint32_linear_1_9)"/>
<path d="M9 22H12V20H9V22Z" fill="url(#paint33_linear_1_9)"/>
<path d="M13 23H16V20H13V23Z" fill="url(#paint34_linear_1_9)"/>
<path d="M0 25H2V23H0V25Z" fill="url(#paint35_linear_1_9)"/>
<path d="M3 25H5V23H3V25Z" fill="url(#paint36_linear_1_9)"/>
<path d="M6 25H9V23H6V25Z" fill="url(#paint37_linear_1_9)"/>
<path d="M9 25H12V23H9V25Z" fill="url(#paint38_linear_1_9)"/>
<path d="M21 21H23V19H21V21Z" fill="url(#paint39_linear_1_9)"/>
<path d="M0 28H2V26H0V28Z" fill="url(#paint40_linear_1_9)"/>
<path d="M3 28H5V26H3V28Z" fill="url(#paint41_linear_1_9)"/>
<path d="M6 28H9V26H6V28Z" fill="url(#paint42_linear_1_9)"/>
<path d="M9 28H12V26H9V28Z" fill="url(#paint43_linear_1_9)"/>
<path d="M13 28H15V26H13V28Z" fill="url(#paint44_linear_1_9)"/>
<path d="M0 31H2V29H0V31Z" fill="url(#paint45_linear_1_9)"/>
<path d="M3 31H5V29H3V31Z" fill="url(#paint46_linear_1_9)"/>
<path d="M6 31H9V29H6V31Z" fill="url(#paint47_linear_1_9)"/>
<path d="M18 27H20V25H18V27Z" fill="url(#paint48_linear_1_9)"/>
<path d="M13 31H16V29H13V31Z" fill="url(#paint49_linear_1_9)"/>
<path d="M0 34H2V32H0V34Z" fill="url(#paint50_linear_1_9)"/>
<path d="M3 34H5V32H3V34Z" fill="url(#paint51_linear_1_9)"/>
<path d="M6 34H9V32H6V34Z" fill="url(#paint52_linear_1_9)"/>
<path d="M9 34H12V32H9V34Z" fill="url(#paint53_linear_1_9)"/>
<path d="M12 34H15V32H12V34Z" fill="url(#paint54_linear_1_9)"/>
<path d="M0 36H2V34H0V36Z" fill="url(#paint55_linear_1_9)"/>
<path d="M3 36H5V34H3V36Z" fill="url(#paint56_linear_1_9)"/>
<path d="M6 36H9V34H6V36Z" fill="url(#paint57_linear_1_9)"/>
<path d="M9 36H12V34H9V36Z" fill="url(#paint58_linear_1_9)"/>
<path d="M21 33H23V30H21V33Z" fill="url(#paint59_linear_1_9)"/>
<path d="M0 39H2V37H0V39Z" fill="url(#paint60_linear_1_9)"/>
<path d="M3 39H5V37H3V39Z" fill="url(#paint61_linear_1_9)"/>
<path d="M6 39H9V37H6V39Z" fill="url(#paint62_linear_1_9)"/>
<path d="M9 39H12V37H9V39Z" fill="url(#paint63_linear_1_9)"/>
<path d="M13 39H15V37H13V39Z" fill="url(#paint64_linear_1_9)"/>
<path d="M0 42H2V40H0V42Z" fill="url(#paint65_linear_1_9)"/>
<path d="M3 42H5V40H3V42Z" fill="url(#paint66_linear_1_9)"/>
<path d="M6 42H9V40H6V42Z" fill="url(#paint67_linear_1_9)"/>
<path d="M9 42H12V40H9V42Z" fill="url(#paint68_linear_1_9)"/>
<path d="M12 42H15V40H12V42Z" fill="url(#paint69_linear_1_9)"/>
<path d="M0 45H2V43H0V45Z" fill="url(#paint70_linear_1_9)"/>
<path d="M3 45H5V43H3V45Z" fill="url(#paint71_linear_1_9)"/>
<path d="M6 45H9V43H6V45Z" fill="url(#paint72_linear_1_9)"/>
<path d="M9 45H12V43H9V45Z" fill="url(#paint73_linear_1_9)"/>
<path d="M12 45H15V43H12V45Z" fill="url(#paint74_linear_1_9)"/>
<path d="M16 45H18V43H16V45Z" fill="url(#paint75_linear_1_9)"/>
<path d="M19 45H21V43H19V45Z" fill="url(#paint76_linear_1_9)"/>
<path d="M22 45H24V43H22V45Z" fill="url(#paint77_linear_1_9)"/>
<path d="M26 45H29V43H26V45Z" fill="url(#paint78_linear_1_9)"/>
<path d="M35 43H37V41H35V43Z" fill="url(#paint79_linear_1_9)"/>
<path d="M31 45H33V43H31V45Z" fill="url(#paint80_linear_1_9)"/>
<path d="M40 41H42V39H40V41Z" fill="url(#paint81_linear_1_9)"/>
<path d="M0 47H2V45H0V47Z" fill="url(#paint82_linear_1_9)"/>
<path d="M3 47H5V45H3V47Z" fill="url(#paint83_linear_1_9)"/>
<path d="M6 47H9V45H6V47Z" fill="url(#paint84_linear_1_9)"/>
<path d="M9 47H12V45H9V47Z" fill="url(#paint85_linear_1_9)"/>
<path d="M12 47H15V45H12V47Z" fill="url(#paint86_linear_1_9)"/>
<path d="M16 47H18V45H16V47Z" fill="url(#paint87_linear_1_9)"/>
<path d="M19 47H21V45H19V47Z" fill="url(#paint88_linear_1_9)"/>
<path d="M22 47H24V45H22V47Z" fill="url(#paint89_linear_1_9)"/>
<path d="M25 47H27V45H25V47Z" fill="url(#paint90_linear_1_9)"/>
<path d="M29 47H32V45H29V47Z" fill="url(#paint91_linear_1_9)"/>
<path d="M38 45H40V43H38V45Z" fill="url(#paint92_linear_1_9)"/>
<path d="M34 47H37V45H34V47Z" fill="url(#paint93_linear_1_9)"/>
<path d="M0 50H2V48H0V50Z" fill="url(#paint94_linear_1_9)"/>
<path d="M3 50H5V48H3V50Z" fill="url(#paint95_linear_1_9)"/>
<path d="M6 50H9V48H6V50Z" fill="url(#paint96_linear_1_9)"/>
<path d="M9 50H12V48H9V50Z" fill="url(#paint97_linear_1_9)"/>
<path d="M12 50H15V48H12V50Z" fill="url(#paint98_linear_1_9)"/>
<path d="M16 50H18V48H16V50Z" fill="url(#paint99_linear_1_9)"/>
<path d="M19 50H21V48H19V50Z" fill="url(#paint100_linear_1_9)"/>
<path d="M22 50H24V48H22V50Z" fill="url(#paint101_linear_1_9)"/>
<path d="M25 50H27V48H25V50Z" fill="url(#paint102_linear_1_9)"/>
<path d="M28 50H30V48H28V50Z" fill="url(#paint103_linear_1_9)"/>
<path d="M32 50H34V48H32V50Z" fill="url(#paint104_linear_1_9)"/>
<path d="M37 53H40V51H37V53Z" fill="url(#paint105_linear_1_9)"/>
<path d="M0 53H2V51H0V53Z" fill="url(#paint106_linear_1_9)"/>
<path d="M3 53H5V51H3V53Z" fill="url(#paint107_linear_1_9)"/>
<path d="M6 53H9V51H6V53Z" fill="url(#paint108_linear_1_9)"/>
<path d="M9 53H12V51H9V53Z" fill="url(#paint109_linear_1_9)"/>
<path d="M12 53H15V51H12V53Z" fill="url(#paint110_linear_1_9)"/>
<path d="M16 53H18V51H16V53Z" fill="url(#paint111_linear_1_9)"/>
<path d="M19 53H21V51H19V53Z" fill="url(#paint112_linear_1_9)"/>
<path d="M22 53H24V51H22V53Z" fill="url(#paint113_linear_1_9)"/>
<path d="M25 53H27V51H25V53Z" fill="url(#paint114_linear_1_9)"/>
<path d="M40 48H42V46H40V48Z" fill="url(#paint115_linear_1_9)"/>
<path d="M29 53H31V51H29V53Z" fill="url(#paint116_linear_1_9)"/>
<path d="M35 50H37V48H35V50Z" fill="url(#paint117_linear_1_9)"/>
<defs>
<linearGradient id="paint0_linear_1_9" x1="28.8766" y1="53.0406" x2="7.80852" y2="-1.87755" gradientUnits="userSpaceOnUse">
<stop stop-color="#E576FF"/>
<stop offset="1" stop-color="#EE96FF"/>
</linearGradient>
<linearGradient id="paint1_linear_1_9" x1="28.8766" y1="53.0406" x2="7.80852" y2="-1.87755" gradientUnits="userSpaceOnUse">
<stop stop-color="#E576FF"/>
<stop offset="1" stop-color="#EE96FF"/>
</linearGradient>
<linearGradient id="paint2_linear_1_9" x1="28.8766" y1="53.0406" x2="7.80852" y2="-1.87755" gradientUnits="userSpaceOnUse">
<stop stop-color="#E576FF"/>
<stop offset="1" stop-color="#EE96FF"/>
</linearGradient>
<linearGradient id="paint3_linear_1_9" x1="28.8766" y1="53.0406" x2="7.80852" y2="-1.87755" gradientUnits="userSpaceOnUse">
<stop stop-color="#E576FF"/>
<stop offset="1" stop-color="#EE96FF"/>
</linearGradient>
<linearGradient id="paint4_linear_1_9" x1="28.8766" y1="53.0406" x2="7.80852" y2="-1.87755" gradientUnits="userSpaceOnUse">
<stop stop-color="#E576FF"/>
<stop offset="1" stop-color="#EE96FF"/>
</linearGradient>
<linearGradient id="paint5_linear_1_9" x1="28.8766" y1="53.0406" x2="7.80852" y2="-1.87755" gradientUnits="userSpaceOnUse">
<stop stop-color="#E576FF"/>
<stop offset="1" stop-color="#EE96FF"/>
</linearGradient>
<linearGradient id="paint6_linear_1_9" x1="28.8766" y1="53.0406" x2="7.80852" y2="-1.87755" gradientUnits="userSpaceOnUse">
<stop stop-color="#E576FF"/>
<stop offset="1" stop-color="#EE96FF"/>
</linearGradient>
<linearGradient id="paint7_linear_1_9" x1="28.8766" y1="53.0406" x2="7.80852" y2="-1.87755" gradientUnits="userSpaceOnUse">
<stop stop-color="#E576FF"/>
<stop offset="1" stop-color="#EE96FF"/>
</linearGradient>
<linearGradient id="paint8_linear_1_9" x1="28.8766" y1="53.0406" x2="7.80852" y2="-1.87755" gradientUnits="userSpaceOnUse">
<stop stop-color="#E576FF"/>
<stop offset="1" stop-color="#EE96FF"/>
</linearGradient>
<linearGradient id="paint9_linear_1_9" x1="28.8766" y1="53.0406" x2="7.80852" y2="-1.87755" gradientUnits="userSpaceOnUse">
<stop stop-color="#E576FF"/>
<stop offset="1" stop-color="#EE96FF"/>
</linearGradient>
<linearGradient id="paint10_linear_1_9" x1="28.8766" y1="53.0406" x2="7.80852" y2="-1.87755" gradientUnits="userSpaceOnUse">
<stop stop-color="#E576FF"/>
<stop offset="1" stop-color="#EE96FF"/>
</linearGradient>
<linearGradient id="paint11_linear_1_9" x1="28.8766" y1="53.0406" x2="7.80852" y2="-1.87755" gradientUnits="userSpaceOnUse">
<stop stop-color="#E576FF"/>
<stop offset="1" stop-color="#EE96FF"/>
</linearGradient>
<linearGradient id="paint12_linear_1_9" x1="28.8766" y1="53.0406" x2="7.80852" y2="-1.87755" gradientUnits="userSpaceOnUse">
<stop stop-color="#E576FF"/>
<stop offset="1" stop-color="#EE96FF"/>
</linearGradient>
<linearGradient id="paint13_linear_1_9" x1="28.8766" y1="53.0406" x2="7.80852" y2="-1.87755" gradientUnits="userSpaceOnUse">
<stop stop-color="#E576FF"/>
<stop offset="1" stop-color="#EE96FF"/>
</linearGradient>
<linearGradient id="paint14_linear_1_9" x1="28.8766" y1="53.0406" x2="7.80852" y2="-1.87755" gradientUnits="userSpaceOnUse">
<stop stop-color="#E576FF"/>
<stop offset="1" stop-color="#EE96FF"/>
</linearGradient>
<linearGradient id="paint15_linear_1_9" x1="28.8766" y1="53.0406" x2="7.80852" y2="-1.87755" gradientUnits="userSpaceOnUse">
<stop stop-color="#E576FF"/>
<stop offset="1" stop-color="#EE96FF"/>
</linearGradient>
<linearGradient id="paint16_linear_1_9" x1="28.8766" y1="53.0406" x2="7.80852" y2="-1.87755" gradientUnits="userSpaceOnUse">
<stop stop-color="#E576FF"/>
<stop offset="1" stop-color="#EE96FF"/>
</linearGradient>
<linearGradient id="paint17_linear_1_9" x1="28.8766" y1="53.0406" x2="7.80852" y2="-1.87755" gradientUnits="userSpaceOnUse">
<stop stop-color="#E576FF"/>
<stop offset="1" stop-color="#EE96FF"/>
</linearGradient>
<linearGradient id="paint18_linear_1_9" x1="28.8766" y1="53.0406" x2="7.80852" y2="-1.87755" gradientUnits="userSpaceOnUse">
<stop stop-color="#E576FF"/>
<stop offset="1" stop-color="#EE96FF"/>
</linearGradient>
<linearGradient id="paint19_linear_1_9" x1="28.8766" y1="53.0406" x2="7.80852" y2="-1.87755" gradientUnits="userSpaceOnUse">
<stop stop-color="#E576FF"/>
<stop offset="1" stop-color="#EE96FF"/>
</linearGradient>
<linearGradient id="paint20_linear_1_9" x1="28.8766" y1="53.0406" x2="7.80852" y2="-1.87755" gradientUnits="userSpaceOnUse">
<stop stop-color="#E576FF"/>
<stop offset="1" stop-color="#EE96FF"/>
</linearGradient>
<linearGradient id="paint21_linear_1_9" x1="28.8766" y1="53.0406" x2="7.80852" y2="-1.87755" gradientUnits="userSpaceOnUse">
<stop stop-color="#E576FF"/>
<stop offset="1" stop-color="#EE96FF"/>
</linearGradient>
<linearGradient id="paint22_linear_1_9" x1="28.8766" y1="53.0406" x2="7.80852" y2="-1.87755" gradientUnits="userSpaceOnUse">
<stop stop-color="#E576FF"/>
<stop offset="1" stop-color="#EE96FF"/>
</linearGradient>
<linearGradient id="paint23_linear_1_9" x1="28.8766" y1="53.0406" x2="7.80852" y2="-1.87755" gradientUnits="userSpaceOnUse">
<stop stop-color="#E576FF"/>
<stop offset="1" stop-color="#EE96FF"/>
</linearGradient>
<linearGradient id="paint24_linear_1_9" x1="28.8766" y1="53.0406" x2="7.80852" y2="-1.87755" gradientUnits="userSpaceOnUse">
<stop stop-color="#E576FF"/>
<stop offset="1" stop-color="#EE96FF"/>
</linearGradient>
<linearGradient id="paint25_linear_1_9" x1="28.8766" y1="53.0406" x2="7.80852" y2="-1.87755" gradientUnits="userSpaceOnUse">
<stop stop-color="#E576FF"/>
<stop offset="1" stop-color="#EE96FF"/>
</linearGradient>
<linearGradient id="paint26_linear_1_9" x1="28.8766" y1="53.0406" x2="7.80852" y2="-1.87755" gradientUnits="userSpaceOnUse">
<stop stop-color="#E576FF"/>
<stop offset="1" stop-color="#EE96FF"/>
</linearGradient>
<linearGradient id="paint27_linear_1_9" x1="28.8766" y1="53.0406" x2="7.80852" y2="-1.87755" gradientUnits="userSpaceOnUse">
<stop stop-color="#E576FF"/>
<stop offset="1" stop-color="#EE96FF"/>
</linearGradient>
<linearGradient id="paint28_linear_1_9" x1="28.8766" y1="53.0406" x2="7.80852" y2="-1.87755" gradientUnits="userSpaceOnUse">
<stop stop-color="#E576FF"/>
<stop offset="1" stop-color="#EE96FF"/>
</linearGradient>
<linearGradient id="paint29_linear_1_9" x1="28.8766" y1="53.0406" x2="7.80852" y2="-1.87755" gradientUnits="userSpaceOnUse">
<stop stop-color="#E576FF"/>
<stop offset="1" stop-color="#EE96FF"/>
</linearGradient>
<linearGradient id="paint30_linear_1_9" x1="28.8766" y1="53.0406" x2="7.80852" y2="-1.87755" gradientUnits="userSpaceOnUse">
<stop stop-color="#E576FF"/>
<stop offset="1" stop-color="#EE96FF"/>
</linearGradient>
<linearGradient id="paint31_linear_1_9" x1="28.8766" y1="53.0406" x2="7.80852" y2="-1.87755" gradientUnits="userSpaceOnUse">
<stop stop-color="#E576FF"/>
<stop offset="1" stop-color="#EE96FF"/>
</linearGradient>
<linearGradient id="paint32_linear_1_9" x1="28.8766" y1="53.0406" x2="7.80852" y2="-1.87755" gradientUnits="userSpaceOnUse">
<stop stop-color="#E576FF"/>
<stop offset="1" stop-color="#EE96FF"/>
</linearGradient>
<linearGradient id="paint33_linear_1_9" x1="28.8766" y1="53.0406" x2="7.80852" y2="-1.87755" gradientUnits="userSpaceOnUse">
<stop stop-color="#E576FF"/>
<stop offset="1" stop-color="#EE96FF"/>
</linearGradient>
<linearGradient id="paint34_linear_1_9" x1="28.8766" y1="53.0406" x2="7.80852" y2="-1.87755" gradientUnits="userSpaceOnUse">
<stop stop-color="#E576FF"/>
<stop offset="1" stop-color="#EE96FF"/>
</linearGradient>
<linearGradient id="paint35_linear_1_9" x1="28.8766" y1="53.0406" x2="7.80852" y2="-1.87755" gradientUnits="userSpaceOnUse">
<stop stop-color="#E576FF"/>
<stop offset="1" stop-color="#EE96FF"/>
</linearGradient>
<linearGradient id="paint36_linear_1_9" x1="28.8766" y1="53.0406" x2="7.80852" y2="-1.87755" gradientUnits="userSpaceOnUse">
<stop stop-color="#E576FF"/>
<stop offset="1" stop-color="#EE96FF"/>
</linearGradient>
<linearGradient id="paint37_linear_1_9" x1="28.8766" y1="53.0406" x2="7.80852" y2="-1.87755" gradientUnits="userSpaceOnUse">
<stop stop-color="#E576FF"/>
<stop offset="1" stop-color="#EE96FF"/>
</linearGradient>
<linearGradient id="paint38_linear_1_9" x1="28.8766" y1="53.0406" x2="7.80852" y2="-1.87755" gradientUnits="userSpaceOnUse">
<stop stop-color="#E576FF"/>
<stop offset="1" stop-color="#EE96FF"/>
</linearGradient>
<linearGradient id="paint39_linear_1_9" x1="28.8766" y1="53.0406" x2="7.80852" y2="-1.87755" gradientUnits="userSpaceOnUse">
<stop stop-color="#E576FF"/>
<stop offset="1" stop-color="#EE96FF"/>
</linearGradient>
<linearGradient id="paint40_linear_1_9" x1="28.8766" y1="53.0406" x2="7.80852" y2="-1.87755" gradientUnits="userSpaceOnUse">
<stop stop-color="#E576FF"/>
<stop offset="1" stop-color="#EE96FF"/>
</linearGradient>
<linearGradient id="paint41_linear_1_9" x1="28.8766" y1="53.0406" x2="7.80852" y2="-1.87755" gradientUnits="userSpaceOnUse">
<stop stop-color="#E576FF"/>
<stop offset="1" stop-color="#EE96FF"/>
</linearGradient>
<linearGradient id="paint42_linear_1_9" x1="28.8766" y1="53.0406" x2="7.80852" y2="-1.87755" gradientUnits="userSpaceOnUse">
<stop stop-color="#E576FF"/>
<stop offset="1" stop-color="#EE96FF"/>
</linearGradient>
<linearGradient id="paint43_linear_1_9" x1="28.8766" y1="53.0406" x2="7.80852" y2="-1.87755" gradientUnits="userSpaceOnUse">
<stop stop-color="#E576FF"/>
<stop offset="1" stop-color="#EE96FF"/>
</linearGradient>
<linearGradient id="paint44_linear_1_9" x1="28.8766" y1="53.0406" x2="7.80852" y2="-1.87755" gradientUnits="userSpaceOnUse">
<stop stop-color="#E576FF"/>
<stop offset="1" stop-color="#EE96FF"/>
</linearGradient>
<linearGradient id="paint45_linear_1_9" x1="28.8766" y1="53.0406" x2="7.80852" y2="-1.87755" gradientUnits="userSpaceOnUse">
<stop stop-color="#E576FF"/>
<stop offset="1" stop-color="#EE96FF"/>
</linearGradient>
<linearGradient id="paint46_linear_1_9" x1="28.8766" y1="53.0406" x2="7.80852" y2="-1.87755" gradientUnits="userSpaceOnUse">
<stop stop-color="#E576FF"/>
<stop offset="1" stop-color="#EE96FF"/>
</linearGradient>
<linearGradient id="paint47_linear_1_9" x1="28.8766" y1="53.0406" x2="7.80852" y2="-1.87755" gradientUnits="userSpaceOnUse">
<stop stop-color="#E576FF"/>
<stop offset="1" stop-color="#EE96FF"/>
</linearGradient>
<linearGradient id="paint48_linear_1_9" x1="28.8766" y1="53.0406" x2="7.80852" y2="-1.87755" gradientUnits="userSpaceOnUse">
<stop stop-color="#E576FF"/>
<stop offset="1" stop-color="#EE96FF"/>
</linearGradient>
<linearGradient id="paint49_linear_1_9" x1="28.8766" y1="53.0406" x2="7.80852" y2="-1.87755" gradientUnits="userSpaceOnUse">
<stop stop-color="#E576FF"/>
<stop offset="1" stop-color="#EE96FF"/>
</linearGradient>
<linearGradient id="paint50_linear_1_9" x1="28.8766" y1="53.0406" x2="7.80852" y2="-1.87755" gradientUnits="userSpaceOnUse">
<stop stop-color="#E576FF"/>
<stop offset="1" stop-color="#EE96FF"/>
</linearGradient>
<linearGradient id="paint51_linear_1_9" x1="28.8766" y1="53.0406" x2="7.80852" y2="-1.87755" gradientUnits="userSpaceOnUse">
<stop stop-color="#E576FF"/>
<stop offset="1" stop-color="#EE96FF"/>
</linearGradient>
<linearGradient id="paint52_linear_1_9" x1="28.8766" y1="53.0406" x2="7.80852" y2="-1.87755" gradientUnits="userSpaceOnUse">
<stop stop-color="#E576FF"/>
<stop offset="1" stop-color="#EE96FF"/>
</linearGradient>
<linearGradient id="paint53_linear_1_9" x1="28.8766" y1="53.0406" x2="7.80852" y2="-1.87755" gradientUnits="userSpaceOnUse">
<stop stop-color="#E576FF"/>
<stop offset="1" stop-color="#EE96FF"/>
</linearGradient>
<linearGradient id="paint54_linear_1_9" x1="28.8766" y1="53.0406" x2="7.80852" y2="-1.87755" gradientUnits="userSpaceOnUse">
<stop stop-color="#E576FF"/>
<stop offset="1" stop-color="#EE96FF"/>
</linearGradient>
<linearGradient id="paint55_linear_1_9" x1="28.8766" y1="53.0406" x2="7.80852" y2="-1.87755" gradientUnits="userSpaceOnUse">
<stop stop-color="#E576FF"/>
<stop offset="1" stop-color="#EE96FF"/>
</linearGradient>
<linearGradient id="paint56_linear_1_9" x1="28.8766" y1="53.0406" x2="7.80852" y2="-1.87755" gradientUnits="userSpaceOnUse">
<stop stop-color="#E576FF"/>
<stop offset="1" stop-color="#EE96FF"/>
</linearGradient>
<linearGradient id="paint57_linear_1_9" x1="28.8766" y1="53.0406" x2="7.80852" y2="-1.87755" gradientUnits="userSpaceOnUse">
<stop stop-color="#E576FF"/>
<stop offset="1" stop-color="#EE96FF"/>
</linearGradient>
<linearGradient id="paint58_linear_1_9" x1="28.8766" y1="53.0406" x2="7.80852" y2="-1.87755" gradientUnits="userSpaceOnUse">
<stop stop-color="#E576FF"/>
<stop offset="1" stop-color="#EE96FF"/>
</linearGradient>
<linearGradient id="paint59_linear_1_9" x1="28.8766" y1="53.0406" x2="7.80852" y2="-1.87755" gradientUnits="userSpaceOnUse">
<stop stop-color="#E576FF"/>
<stop offset="1" stop-color="#EE96FF"/>
</linearGradient>
<linearGradient id="paint60_linear_1_9" x1="28.8766" y1="53.0406" x2="7.80852" y2="-1.87755" gradientUnits="userSpaceOnUse">
<stop stop-color="#E576FF"/>
<stop offset="1" stop-color="#EE96FF"/>
</linearGradient>
<linearGradient id="paint61_linear_1_9" x1="28.8766" y1="53.0406" x2="7.80852" y2="-1.87755" gradientUnits="userSpaceOnUse">
<stop stop-color="#E576FF"/>
<stop offset="1" stop-color="#EE96FF"/>
</linearGradient>
<linearGradient id="paint62_linear_1_9" x1="28.8766" y1="53.0406" x2="7.80852" y2="-1.87755" gradientUnits="userSpaceOnUse">
<stop stop-color="#E576FF"/>
<stop offset="1" stop-color="#EE96FF"/>
</linearGradient>
<linearGradient id="paint63_linear_1_9" x1="28.8766" y1="53.0406" x2="7.80852" y2="-1.87755" gradientUnits="userSpaceOnUse">
<stop stop-color="#E576FF"/>
<stop offset="1" stop-color="#EE96FF"/>
</linearGradient>
<linearGradient id="paint64_linear_1_9" x1="28.8766" y1="53.0406" x2="7.80852" y2="-1.87755" gradientUnits="userSpaceOnUse">
<stop stop-color="#E576FF"/>
<stop offset="1" stop-color="#EE96FF"/>
</linearGradient>
<linearGradient id="paint65_linear_1_9" x1="28.8766" y1="53.0406" x2="7.80852" y2="-1.87755" gradientUnits="userSpaceOnUse">
<stop stop-color="#E576FF"/>
<stop offset="1" stop-color="#EE96FF"/>
</linearGradient>
<linearGradient id="paint66_linear_1_9" x1="28.8766" y1="53.0406" x2="7.80852" y2="-1.87755" gradientUnits="userSpaceOnUse">
<stop stop-color="#E576FF"/>
<stop offset="1" stop-color="#EE96FF"/>
</linearGradient>
<linearGradient id="paint67_linear_1_9" x1="28.8766" y1="53.0406" x2="7.80852" y2="-1.87755" gradientUnits="userSpaceOnUse">
<stop stop-color="#E576FF"/>
<stop offset="1" stop-color="#EE96FF"/>
</linearGradient>
<linearGradient id="paint68_linear_1_9" x1="28.8766" y1="53.0406" x2="7.80852" y2="-1.87755" gradientUnits="userSpaceOnUse">
<stop stop-color="#E576FF"/>
<stop offset="1" stop-color="#EE96FF"/>
</linearGradient>
<linearGradient id="paint69_linear_1_9" x1="28.8766" y1="53.0406" x2="7.80852" y2="-1.87755" gradientUnits="userSpaceOnUse">
<stop stop-color="#E576FF"/>
<stop offset="1" stop-color="#EE96FF"/>
</linearGradient>
<linearGradient id="paint70_linear_1_9" x1="28.8766" y1="53.0406" x2="7.80852" y2="-1.87755" gradientUnits="userSpaceOnUse">
<stop stop-color="#E576FF"/>
<stop offset="1" stop-color="#EE96FF"/>
</linearGradient>
<linearGradient id="paint71_linear_1_9" x1="28.8766" y1="53.0406" x2="7.80852" y2="-1.87755" gradientUnits="userSpaceOnUse">
<stop stop-color="#E576FF"/>
<stop offset="1" stop-color="#EE96FF"/>
</linearGradient>
<linearGradient id="paint72_linear_1_9" x1="28.8766" y1="53.0406" x2="7.80852" y2="-1.87755" gradientUnits="userSpaceOnUse">
<stop stop-color="#E576FF"/>
<stop offset="1" stop-color="#EE96FF"/>
</linearGradient>
<linearGradient id="paint73_linear_1_9" x1="28.8766" y1="53.0406" x2="7.80852" y2="-1.87755" gradientUnits="userSpaceOnUse">
<stop stop-color="#E576FF"/>
<stop offset="1" stop-color="#EE96FF"/>
</linearGradient>
<linearGradient id="paint74_linear_1_9" x1="28.8766" y1="53.0406" x2="7.80852" y2="-1.87755" gradientUnits="userSpaceOnUse">
<stop stop-color="#E576FF"/>
<stop offset="1" stop-color="#EE96FF"/>
</linearGradient>
<linearGradient id="paint75_linear_1_9" x1="28.8766" y1="53.0406" x2="7.80852" y2="-1.87755" gradientUnits="userSpaceOnUse">
<stop stop-color="#E576FF"/>
<stop offset="1" stop-color="#EE96FF"/>
</linearGradient>
<linearGradient id="paint76_linear_1_9" x1="28.8766" y1="53.0406" x2="7.80852" y2="-1.87755" gradientUnits="userSpaceOnUse">
<stop stop-color="#E576FF"/>
<stop offset="1" stop-color="#EE96FF"/>
</linearGradient>
<linearGradient id="paint77_linear_1_9" x1="28.8766" y1="53.0406" x2="7.80852" y2="-1.87755" gradientUnits="userSpaceOnUse">
<stop stop-color="#E576FF"/>
<stop offset="1" stop-color="#EE96FF"/>
</linearGradient>
<linearGradient id="paint78_linear_1_9" x1="28.8766" y1="53.0406" x2="7.80852" y2="-1.87755" gradientUnits="userSpaceOnUse">
<stop stop-color="#E576FF"/>
<stop offset="1" stop-color="#EE96FF"/>
</linearGradient>
<linearGradient id="paint79_linear_1_9" x1="28.8766" y1="53.0406" x2="7.80852" y2="-1.87755" gradientUnits="userSpaceOnUse">
<stop stop-color="#E576FF"/>
<stop offset="1" stop-color="#EE96FF"/>
</linearGradient>
<linearGradient id="paint80_linear_1_9" x1="28.8766" y1="53.0406" x2="7.80852" y2="-1.87755" gradientUnits="userSpaceOnUse">
<stop stop-color="#E576FF"/>
<stop offset="1" stop-color="#EE96FF"/>
</linearGradient>
<linearGradient id="paint81_linear_1_9" x1="28.8766" y1="53.0406" x2="7.80852" y2="-1.87755" gradientUnits="userSpaceOnUse">
<stop stop-color="#E576FF"/>
<stop offset="1" stop-color="#EE96FF"/>
</linearGradient>
<linearGradient id="paint82_linear_1_9" x1="28.8766" y1="53.0406" x2="7.80852" y2="-1.87755" gradientUnits="userSpaceOnUse">
<stop stop-color="#E576FF"/>
<stop offset="1" stop-color="#EE96FF"/>
</linearGradient>
<linearGradient id="paint83_linear_1_9" x1="28.8766" y1="53.0406" x2="7.80852" y2="-1.87755" gradientUnits="userSpaceOnUse">
<stop stop-color="#E576FF"/>
<stop offset="1" stop-color="#EE96FF"/>
</linearGradient>
<linearGradient id="paint84_linear_1_9" x1="28.8766" y1="53.0406" x2="7.80852" y2="-1.87755" gradientUnits="userSpaceOnUse">
<stop stop-color="#E576FF"/>
<stop offset="1" stop-color="#EE96FF"/>
</linearGradient>
<linearGradient id="paint85_linear_1_9" x1="28.8766" y1="53.0406" x2="7.80852" y2="-1.87755" gradientUnits="userSpaceOnUse">
<stop stop-color="#E576FF"/>
<stop offset="1" stop-color="#EE96FF"/>
</linearGradient>
<linearGradient id="paint86_linear_1_9" x1="28.8766" y1="53.0406" x2="7.80852" y2="-1.87755" gradientUnits="userSpaceOnUse">
<stop stop-color="#E576FF"/>
<stop offset="1" stop-color="#EE96FF"/>
</linearGradient>
<linearGradient id="paint87_linear_1_9" x1="28.8766" y1="53.0406" x2="7.80852" y2="-1.87755" gradientUnits="userSpaceOnUse">
<stop stop-color="#E576FF"/>
<stop offset="1" stop-color="#EE96FF"/>
</linearGradient>
<linearGradient id="paint88_linear_1_9" x1="28.8766" y1="53.0406" x2="7.80852" y2="-1.87755" gradientUnits="userSpaceOnUse">
<stop stop-color="#E576FF"/>
<stop offset="1" stop-color="#EE96FF"/>
</linearGradient>
<linearGradient id="paint89_linear_1_9" x1="28.8766" y1="53.0406" x2="7.80852" y2="-1.87755" gradientUnits="userSpaceOnUse">
<stop stop-color="#E576FF"/>
<stop offset="1" stop-color="#EE96FF"/>
</linearGradient>
<linearGradient id="paint90_linear_1_9" x1="28.8766" y1="53.0406" x2="7.80852" y2="-1.87755" gradientUnits="userSpaceOnUse">
<stop stop-color="#E576FF"/>
<stop offset="1" stop-color="#EE96FF"/>
</linearGradient>
<linearGradient id="paint91_linear_1_9" x1="28.8766" y1="53.0406" x2="7.80852" y2="-1.87755" gradientUnits="userSpaceOnUse">
<stop stop-color="#E576FF"/>
<stop offset="1" stop-color="#EE96FF"/>
</linearGradient>
<linearGradient id="paint92_linear_1_9" x1="28.8766" y1="53.0406" x2="7.80852" y2="-1.87755" gradientUnits="userSpaceOnUse">
<stop stop-color="#E576FF"/>
<stop offset="1" stop-color="#EE96FF"/>
</linearGradient>
<linearGradient id="paint93_linear_1_9" x1="28.8766" y1="53.0406" x2="7.80852" y2="-1.87755" gradientUnits="userSpaceOnUse">
<stop stop-color="#E576FF"/>
<stop offset="1" stop-color="#EE96FF"/>
</linearGradient>
<linearGradient id="paint94_linear_1_9" x1="28.8766" y1="53.0406" x2="7.80852" y2="-1.87755" gradientUnits="userSpaceOnUse">
<stop stop-color="#E576FF"/>
<stop offset="1" stop-color="#EE96FF"/>
</linearGradient>
<linearGradient id="paint95_linear_1_9" x1="28.8766" y1="53.0406" x2="7.80852" y2="-1.87755" gradientUnits="userSpaceOnUse">
<stop stop-color="#E576FF"/>
<stop offset="1" stop-color="#EE96FF"/>
</linearGradient>
<linearGradient id="paint96_linear_1_9" x1="28.8766" y1="53.0406" x2="7.80852" y2="-1.87755" gradientUnits="userSpaceOnUse">
<stop stop-color="#E576FF"/>
<stop offset="1" stop-color="#EE96FF"/>
</linearGradient>
<linearGradient id="paint97_linear_1_9" x1="28.8766" y1="53.0406" x2="7.80852" y2="-1.87755" gradientUnits="userSpaceOnUse">
<stop stop-color="#E576FF"/>
<stop offset="1" stop-color="#EE96FF"/>
</linearGradient>
<linearGradient id="paint98_linear_1_9" x1="28.8766" y1="53.0406" x2="7.80852" y2="-1.87755" gradientUnits="userSpaceOnUse">
<stop stop-color="#E576FF"/>
<stop offset="1" stop-color="#EE96FF"/>
</linearGradient>
<linearGradient id="paint99_linear_1_9" x1="28.8766" y1="53.0406" x2="7.80852" y2="-1.87755" gradientUnits="userSpaceOnUse">
<stop stop-color="#E576FF"/>
<stop offset="1" stop-color="#EE96FF"/>
</linearGradient>
<linearGradient id="paint100_linear_1_9" x1="28.8766" y1="53.0406" x2="7.80852" y2="-1.87755" gradientUnits="userSpaceOnUse">
<stop stop-color="#E576FF"/>
<stop offset="1" stop-color="#EE96FF"/>
</linearGradient>
<linearGradient id="paint101_linear_1_9" x1="28.8766" y1="53.0406" x2="7.80852" y2="-1.87755" gradientUnits="userSpaceOnUse">
<stop stop-color="#E576FF"/>
<stop offset="1" stop-color="#EE96FF"/>
</linearGradient>
<linearGradient id="paint102_linear_1_9" x1="28.8766" y1="53.0406" x2="7.80852" y2="-1.87755" gradientUnits="userSpaceOnUse">
<stop stop-color="#E576FF"/>
<stop offset="1" stop-color="#EE96FF"/>
</linearGradient>
<linearGradient id="paint103_linear_1_9" x1="28.8766" y1="53.0406" x2="7.80852" y2="-1.87755" gradientUnits="userSpaceOnUse">
<stop stop-color="#E576FF"/>
<stop offset="1" stop-color="#EE96FF"/>
</linearGradient>
<linearGradient id="paint104_linear_1_9" x1="28.8766" y1="53.0406" x2="7.80852" y2="-1.87755" gradientUnits="userSpaceOnUse">
<stop stop-color="#E576FF"/>
<stop offset="1" stop-color="#EE96FF"/>
</linearGradient>
<linearGradient id="paint105_linear_1_9" x1="28.8766" y1="53.0406" x2="7.80852" y2="-1.87755" gradientUnits="userSpaceOnUse">
<stop stop-color="#E576FF"/>
<stop offset="1" stop-color="#EE96FF"/>
</linearGradient>
<linearGradient id="paint106_linear_1_9" x1="28.8766" y1="53.0406" x2="7.80852" y2="-1.87755" gradientUnits="userSpaceOnUse">
<stop stop-color="#E576FF"/>
<stop offset="1" stop-color="#EE96FF"/>
</linearGradient>
<linearGradient id="paint107_linear_1_9" x1="28.8766" y1="53.0406" x2="7.80852" y2="-1.87755" gradientUnits="userSpaceOnUse">
<stop stop-color="#E576FF"/>
<stop offset="1" stop-color="#EE96FF"/>
</linearGradient>
<linearGradient id="paint108_linear_1_9" x1="28.8766" y1="53.0406" x2="7.80852" y2="-1.87755" gradientUnits="userSpaceOnUse">
<stop stop-color="#E576FF"/>
<stop offset="1" stop-color="#EE96FF"/>
</linearGradient>
<linearGradient id="paint109_linear_1_9" x1="28.8766" y1="53.0406" x2="7.80852" y2="-1.87755" gradientUnits="userSpaceOnUse">
<stop stop-color="#E576FF"/>
<stop offset="1" stop-color="#EE96FF"/>
</linearGradient>
<linearGradient id="paint110_linear_1_9" x1="28.8766" y1="53.0406" x2="7.80852" y2="-1.87755" gradientUnits="userSpaceOnUse">
<stop stop-color="#E576FF"/>
<stop offset="1" stop-color="#EE96FF"/>
</linearGradient>
<linearGradient id="paint111_linear_1_9" x1="28.8766" y1="53.0406" x2="7.80852" y2="-1.87755" gradientUnits="userSpaceOnUse">
<stop stop-color="#E576FF"/>
<stop offset="1" stop-color="#EE96FF"/>
</linearGradient>
<linearGradient id="paint112_linear_1_9" x1="28.8766" y1="53.0406" x2="7.80852" y2="-1.87755" gradientUnits="userSpaceOnUse">
<stop stop-color="#E576FF"/>
<stop offset="1" stop-color="#EE96FF"/>
</linearGradient>
<linearGradient id="paint113_linear_1_9" x1="28.8766" y1="53.0406" x2="7.80852" y2="-1.87755" gradientUnits="userSpaceOnUse">
<stop stop-color="#E576FF"/>
<stop offset="1" stop-color="#EE96FF"/>
</linearGradient>
<linearGradient id="paint114_linear_1_9" x1="28.8766" y1="53.0406" x2="7.80852" y2="-1.87755" gradientUnits="userSpaceOnUse">
<stop stop-color="#E576FF"/>
<stop offset="1" stop-color="#EE96FF"/>
</linearGradient>
<linearGradient id="paint115_linear_1_9" x1="28.8766" y1="53.0406" x2="7.80852" y2="-1.87755" gradientUnits="userSpaceOnUse">
<stop stop-color="#E576FF"/>
<stop offset="1" stop-color="#EE96FF"/>
</linearGradient>
<linearGradient id="paint116_linear_1_9" x1="28.8766" y1="53.0406" x2="7.80852" y2="-1.87755" gradientUnits="userSpaceOnUse">
<stop stop-color="#E576FF"/>
<stop offset="1" stop-color="#EE96FF"/>
</linearGradient>
<linearGradient id="paint117_linear_1_9" x1="28.8766" y1="53.0406" x2="7.80852" y2="-1.87755" gradientUnits="userSpaceOnUse">
<stop stop-color="#E576FF"/>
<stop offset="1" stop-color="#EE96FF"/>
</linearGradient>
</defs>
</svg>
