<svg width="20" height="17" viewBox="0 0 20 17" fill="none" xmlns="http://www.w3.org/2000/svg">
<path fill-rule="evenodd" clip-rule="evenodd" d="M4.48046 14.3698C4.52077 14.3391 4.5617 14.308 4.60362 14.2765C4.7245 14.1858 4.85366 14.0925 5.00001 14.0001C6.72122 12.9382 8.00001 11.468 8.00001 9.00006L8.00001 3.60367V2.00006L6.39639 2.00006L3.60362 2.00006L2.00001 2.00006L2.00001 3.60367L2.00001 7.39644L2.00001 9.00006L3.39639 9.00006H3.60362H5.00001C5.00001 9.12917 5.02324 9.25089 5.04558 9.36794C5.08779 9.5891 5.12683 9.79364 5.00001 10.0001C4.82833 10.2461 4.6516 10.4476 4.44345 10.6037C4.09316 10.8663 3.65389 11.0001 3.00001 11.0001V12.6037V13.3899L3.00001 15.0001C3.70686 14.9582 4.05948 14.69 4.4804 14.3698L4.48046 14.3698ZM5.48713 15.6189C5.62652 15.513 5.73356 15.4338 5.85005 15.3599C6.83148 14.7534 7.78095 13.9736 8.48305 12.9119C9.20042 11.8272 9.60362 10.5319 9.60362 9.00006V2.00006V0.396443L8.00001 0.396442L2.00001 0.396442L0.396393 0.396442V2.00006V9.00006V10.6037H1.39639V11.0001L1.39639 15.0001L1.39639 16.7014L3.09476 16.6009C3.88817 16.5539 4.46927 16.3145 4.95929 15.9989C5.14732 15.8778 5.32307 15.7438 5.44847 15.6483L5.48713 15.6189ZM14.4804 14.3698C14.5207 14.3391 14.5617 14.308 14.6036 14.2765C14.7245 14.1858 14.8537 14.0925 15 14.0001C16.7212 12.9382 18 11.468 18 9.00006L18 3.60367V2.00006L16.3964 2.00006L13.6036 2.00006L12 2.00006V3.60367V7.39644V9.00006L13.3964 9.00006H13.6036H15C15 9.12917 15.0232 9.25089 15.0456 9.36794C15.0878 9.5891 15.1268 9.79364 15 10.0001C14.8283 10.2461 14.6516 10.4476 14.4434 10.6037C14.0932 10.8663 13.6539 11.0001 13 11.0001V12.6037V13.3899V15.0001C13.7069 14.9582 14.0595 14.69 14.4804 14.3698ZM15.4871 15.6189C15.6265 15.513 15.7336 15.4338 15.8501 15.3599C16.8315 14.7534 17.781 13.9736 18.483 12.9119C19.2004 11.8272 19.6036 10.5319 19.6036 9.00006L19.6036 2.00006V0.396443L18 0.396442L12 0.396442L10.3964 0.396442V2.00006V9.00006L10.3964 10.6037H11.3964V11.0001V15.0001V16.7014L13.0948 16.6009C13.8882 16.5539 14.4693 16.3145 14.9593 15.9989C15.1473 15.8778 15.3231 15.7438 15.4485 15.6483L15.4871 15.6189Z" fill="#11E5B3"/>
</svg>
