<svg width="100%" height="100%" viewBox="10 12 280 64" fill="none" xmlns="http://www.w3.org/2000/svg">
<g filter="url(#filter0_f_1_48)">
<path d="M18.2281 34.3643L17.6588 35.0555L18.2833 35.6974L54.2833 72.6974L54.5777 73H55H244H244.422L244.717 72.6974L280.717 35.6974L281.319 35.0785L280.794 34.3925L267.794 17.3925L267.494 17H267H260H33H32.5281L32.2281 17.3643L18.2281 34.3643Z" stroke="#00A57E" stroke-width="2"/>
</g>
<g filter="url(#filter1_f_1_48)">
<path d="M18.2281 34.3643L17.6588 35.0555L18.2833 35.6974L54.2833 72.6974L54.5777 73H55H244H244.422L244.717 72.6974L280.717 35.6974L281.319 35.0785L280.794 34.3925L267.794 17.3925L267.494 17H267H260H33H32.5281L32.2281 17.3643L18.2281 34.3643Z" stroke="#00A57E" stroke-width="2"/>
</g>
<g filter="url(#filter2_f_1_48)">
<path d="M18.2281 34.3643L17.6588 35.0555L18.2833 35.6974L54.2833 72.6974L54.5777 73H55H244H244.422L244.717 72.6974L280.717 35.6974L281.319 35.0785L280.794 34.3925L267.794 17.3925L267.494 17H267H260H33H32.5281L32.2281 17.3643L18.2281 34.3643Z" stroke="#00A57E" stroke-width="2"/>
</g>
<path d="M19 35L33 18H260H267L280 35L244 72H55L19 35Z" fill="url(#paint0_linear_1_48)" fill-opacity="0.8"/>
<path d="M18.2281 34.3643L17.6588 35.0555L18.2833 35.6974L54.2833 72.6974L54.5777 73H55H244H244.422L244.717 72.6974L280.717 35.6974L281.319 35.0785L280.794 34.3925L267.794 17.3925L267.494 17H267H260H33H32.5281L32.2281 17.3643L18.2281 34.3643Z" stroke="#11E5B3" stroke-width="2"/>
<path d="M239.5 42.8374V43V44V45V45.1625L239.404 45.294C239.275 45.4727 239.048 45.6976 238.809 45.9234C238.631 46.0915 238.425 46.2797 238.211 46.4748C238.127 46.5512 238.042 46.6287 237.958 46.7065C237.336 47.276 236.725 47.8566 236.403 48.2954L236.381 48.3264L236.354 48.3536L236.207 48.5H238C238.747 48.5 239.358 48.5361 239.821 48.5635C239.926 48.5697 240.023 48.5754 240.113 48.5802C240.363 48.5936 240.535 48.5982 240.653 48.5905C240.678 48.5889 240.697 48.5868 240.711 48.5849C240.782 48.5753 240.731 48.5687 240.663 48.6306L241 49C241.728 48.3355 245.017 44.2969 245 44L239.5 42.8374ZM239.5 42.8374L239.404 42.7059C239.274 42.5273 239.048 42.3027 238.81 42.0775C238.633 41.9105 238.428 41.7237 238.216 41.5301C238.131 41.4528 238.045 41.3745 237.959 41.2958C237.354 40.7411 236.757 40.1748 236.428 39.7372L235.809 38.5H237.919L240.73 39.437L242.628 41.3347C243.161 41.9972 243.642 42.6819 243.991 43.2215C244.168 43.4944 244.307 43.7261 244.402 43.896C244.421 43.9298 244.438 43.9602 244.452 43.9874L239.5 42.8374ZM229.416 44.2774L229.643 43.9363L229.354 43.6464L228.377 42.6697C228.317 42.5917 228.232 42.4821 228.126 42.3461C227.567 41.6269 226.434 40.1681 225.413 38.7174L223.934 36.5H227H230.75L233.6 40.3L233.6 40.3001L233.608 40.3103C234.402 41.3141 235.124 42.267 235.659 42.9899C235.927 43.3514 236.147 43.6547 236.306 43.8775C236.355 43.9453 236.398 44.0053 236.434 44.057C236.423 44.0739 236.411 44.0922 236.398 44.1118C236.264 44.31 236.053 44.5895 235.778 44.9429C235.533 45.257 235.243 45.6211 234.921 46.0268C234.883 46.0747 234.844 46.1231 234.805 46.1722C234.437 46.6357 234.03 47.148 233.606 47.6926L233.606 47.6926L233.6 47.7L230.75 51.5H227H224.207L224.354 51.3536L224.379 51.3277L224.401 51.2983C224.57 51.0711 224.824 50.7387 225.125 50.3456C225.798 49.4654 226.704 48.2806 227.408 47.2895L227.412 47.2835L227.416 47.2774L229.416 44.2774Z" stroke="#11E5B3"/>
<path d="M60.5 42.8374V43V44V45V45.1625L60.5956 45.294C60.7255 45.4727 60.952 45.6976 61.1909 45.9234C61.3689 46.0915 61.5751 46.2797 61.7888 46.4748C61.8726 46.5512 61.9575 46.6287 62.0424 46.7065C62.6637 47.276 63.2753 47.8566 63.5966 48.2954L63.6193 48.3264L63.6464 48.3536L63.7929 48.5H62C61.2534 48.5 60.6423 48.5361 60.1787 48.5635C60.0739 48.5697 59.9766 48.5754 59.887 48.5802C59.6366 48.5936 59.4651 48.5982 59.3469 48.5905C59.3219 48.5889 59.3028 48.5868 59.2886 48.5849C59.2177 48.5753 59.2691 48.5687 59.337 48.6306L59 49C58.2723 48.3355 54.9829 44.2969 55 44L60.5 42.8374ZM60.5 42.8374L60.5956 42.7059C60.7256 42.5273 60.9518 42.3027 61.1904 42.0775C61.3672 41.9105 61.572 41.7237 61.7843 41.5301C61.869 41.4528 61.9549 41.3745 62.0407 41.2958C62.6462 40.7411 63.2431 40.1748 63.5724 39.7372L64.191 38.5H62.0811L59.2701 39.437L57.3724 41.3347C56.8387 41.9972 56.3577 42.6819 56.0088 43.2215C55.8325 43.4944 55.6925 43.7261 55.5978 43.896C55.579 43.9298 55.5625 43.9602 55.5481 43.9874L60.5 42.8374ZM70.584 44.2774L70.3566 43.9363L70.6464 43.6464L71.6232 42.6697C71.6831 42.5917 71.7682 42.4821 71.8739 42.3461C72.4328 41.6269 73.5663 40.1681 74.5875 38.7174L76.0657 36.5H73H69.25L66.4 40.3L66.4001 40.3001L66.3921 40.3103C65.5978 41.3141 64.8763 42.267 64.3411 42.9899C64.0735 43.3514 63.8529 43.6547 63.6935 43.8775C63.645 43.9453 63.6024 44.0053 63.566 44.057C63.577 44.0739 63.5891 44.0922 63.6024 44.1118C63.7365 44.31 63.9468 44.5895 64.2222 44.9429C64.467 45.257 64.7565 45.6211 65.0791 46.0268C65.1172 46.0747 65.1558 46.1231 65.1948 46.1722C65.5633 46.6357 65.9699 47.148 66.3944 47.6926L66.3944 47.6926L66.4 47.7L69.25 51.5H73H75.7929L75.6464 51.3536L75.6206 51.3277L75.5987 51.2983C75.4298 51.0711 75.1756 50.7387 74.8751 50.3456C74.202 49.4654 73.2962 48.2806 72.5923 47.2895L72.5881 47.2835L72.584 47.2774L70.584 44.2774Z" stroke="#11E5B3"/>
<defs>
<filter id="filter0_f_1_48" x="0.317612" y="0" width="298.32" height="90" filterUnits="userSpaceOnUse" color-interpolation-filters="sRGB">
<feFlood flood-opacity="0" result="BackgroundImageFix"/>
<feBlend mode="normal" in="SourceGraphic" in2="BackgroundImageFix" result="shape"/>
<feGaussianBlur stdDeviation="8" result="effect1_foregroundBlur_1_48"/>
</filter>
<filter id="filter1_f_1_48" x="4.31761" y="4" width="290.32" height="82" filterUnits="userSpaceOnUse" color-interpolation-filters="sRGB">
<feFlood flood-opacity="0" result="BackgroundImageFix"/>
<feBlend mode="normal" in="SourceGraphic" in2="BackgroundImageFix" result="shape"/>
<feGaussianBlur stdDeviation="6" result="effect1_foregroundBlur_1_48"/>
</filter>
<filter id="filter2_f_1_48" x="10.3176" y="10" width="278.32" height="70" filterUnits="userSpaceOnUse" color-interpolation-filters="sRGB">
<feFlood flood-opacity="0" result="BackgroundImageFix"/>
<feBlend mode="normal" in="SourceGraphic" in2="BackgroundImageFix" result="shape"/>
<feGaussianBlur stdDeviation="3" result="effect1_foregroundBlur_1_48"/>
</filter>
<linearGradient id="paint0_linear_1_48" x1="172.954" y1="69.3332" x2="175.166" y2="11.8229" gradientUnits="userSpaceOnUse">
<stop stop-color="#008969"/>
<stop offset="1" stop-color="#0C1E30" stop-opacity="0"/>
</linearGradient>
</defs>
<text x="106" y="52" font-size="22" font-weight="500" font-family="Font_Over" fill="#11E5B3">
    СТАРТ
</text>
</svg>
