<svg width="131" height="111" viewBox="0 0 131 111" fill="none" xmlns="http://www.w3.org/2000/svg">
<g filter="url(#filter0_f_1_1373)">
<ellipse cx="65.5" cy="55.5" rx="15.5" ry="5.5" fill="#11E5B3"/>
</g>
<g filter="url(#filter1_f_1_1373)">
<ellipse cx="23" cy="5" rx="23" ry="5" transform="matrix(0.0468436 0.998902 -0.998964 0.0455093 63 23)" fill="#11E5B3"/>
</g>
<path d="M50 28H52V26H50V28Z" fill="url(#paint0_linear_1_1373)"/>
<path d="M60 25H61V23H60V25Z" fill="url(#paint1_linear_1_1373)"/>
<path d="M55 28H57V26H55V28Z" fill="url(#paint2_linear_1_1373)"/>
<path d="M58 27H59V26H58V27Z" fill="url(#paint3_linear_1_1373)"/>
<path d="M67 25H69V23H67V25Z" fill="url(#paint4_linear_1_1373)"/>
<path d="M50 30H52V28H50V30Z" fill="url(#paint5_linear_1_1373)"/>
<path d="M53 30H54V28H53V30Z" fill="url(#paint6_linear_1_1373)"/>
<path d="M55 30H57V28H55V30Z" fill="url(#paint7_linear_1_1373)"/>
<path d="M65 27H66V25H65V27Z" fill="url(#paint8_linear_1_1373)"/>
<path d="M61 30H63V28H61V30Z" fill="url(#paint9_linear_1_1373)"/>
<path d="M50 32H52V30H50V32Z" fill="url(#paint10_linear_1_1373)"/>
<path d="M53 32H54V30H53V32Z" fill="url(#paint11_linear_1_1373)"/>
<path d="M55 32H57V30H55V32Z" fill="url(#paint12_linear_1_1373)"/>
<path d="M58 33H59V31H58V33Z" fill="url(#paint13_linear_1_1373)"/>
<path d="M60 32H62V30H60V32Z" fill="url(#paint14_linear_1_1373)"/>
<path d="M50 34H52V33H50V34Z" fill="url(#paint15_linear_1_1373)"/>
<path d="M53 34H54V33H53V34Z" fill="url(#paint16_linear_1_1373)"/>
<path d="M55 34H57V33H55V34Z" fill="url(#paint17_linear_1_1373)"/>
<path d="M65 31H67V30H65V31Z" fill="url(#paint18_linear_1_1373)"/>
<path d="M61 34H63V33H61V34Z" fill="url(#paint19_linear_1_1373)"/>
<path d="M50 36H52V35H50V36Z" fill="url(#paint20_linear_1_1373)"/>
<path d="M53 36H54V35H53V36Z" fill="url(#paint21_linear_1_1373)"/>
<path d="M55 36H57V35H55V36Z" fill="url(#paint22_linear_1_1373)"/>
<path d="M58 36H59V34H58V36Z" fill="url(#paint23_linear_1_1373)"/>
<path d="M67 33H69V32H67V33Z" fill="url(#paint24_linear_1_1373)"/>
<path d="M50 39H52V37H50V39Z" fill="url(#paint25_linear_1_1373)"/>
<path d="M53 39H54V37H53V39Z" fill="url(#paint26_linear_1_1373)"/>
<path d="M55 39H57V37H55V39Z" fill="url(#paint27_linear_1_1373)"/>
<path d="M65 36H66V34H65V36Z" fill="url(#paint28_linear_1_1373)"/>
<path d="M60 39H62V37H60V39Z" fill="url(#paint29_linear_1_1373)"/>
<path d="M50 41H52V39H50V41Z" fill="url(#paint30_linear_1_1373)"/>
<path d="M53 41H54V39H53V41Z" fill="url(#paint31_linear_1_1373)"/>
<path d="M55 41H57V39H55V41Z" fill="url(#paint32_linear_1_1373)"/>
<path d="M58 40H59V39H58V40Z" fill="url(#paint33_linear_1_1373)"/>
<path d="M61 41H63V39H61V41Z" fill="url(#paint34_linear_1_1373)"/>
<path d="M50 43H52V41H50V43Z" fill="url(#paint35_linear_1_1373)"/>
<path d="M53 43H54V41H53V43Z" fill="url(#paint36_linear_1_1373)"/>
<path d="M55 43H57V41H55V43Z" fill="url(#paint37_linear_1_1373)"/>
<path d="M58 43H59V41H58V43Z" fill="url(#paint38_linear_1_1373)"/>
<path d="M67 40H69V38H67V40Z" fill="url(#paint39_linear_1_1373)"/>
<path d="M50 45H52V44H50V45Z" fill="url(#paint40_linear_1_1373)"/>
<path d="M53 45H54V44H53V45Z" fill="url(#paint41_linear_1_1373)"/>
<path d="M55 45H57V44H55V45Z" fill="url(#paint42_linear_1_1373)"/>
<path d="M58 45H59V44H58V45Z" fill="url(#paint43_linear_1_1373)"/>
<path d="M60 45H62V43H60V45Z" fill="url(#paint44_linear_1_1373)"/>
<path d="M50 47H52V46H50V47Z" fill="url(#paint45_linear_1_1373)"/>
<path d="M53 47H54V46H53V47Z" fill="url(#paint46_linear_1_1373)"/>
<path d="M55 47H57V46H55V47Z" fill="url(#paint47_linear_1_1373)"/>
<path d="M65 44H66V43H65V44Z" fill="url(#paint48_linear_1_1373)"/>
<path d="M61 47H63V46H61V47Z" fill="url(#paint49_linear_1_1373)"/>
<path d="M50 50H52V48H50V50Z" fill="url(#paint50_linear_1_1373)"/>
<path d="M53 50H54V48H53V50Z" fill="url(#paint51_linear_1_1373)"/>
<path d="M55 50H57V48H55V50Z" fill="url(#paint52_linear_1_1373)"/>
<path d="M58 50H59V48H58V50Z" fill="url(#paint53_linear_1_1373)"/>
<path d="M60 50H62V48H60V50Z" fill="url(#paint54_linear_1_1373)"/>
<path d="M50 52H52V50H50V52Z" fill="url(#paint55_linear_1_1373)"/>
<path d="M53 52H54V50H53V52Z" fill="url(#paint56_linear_1_1373)"/>
<path d="M55 52H57V50H55V52Z" fill="url(#paint57_linear_1_1373)"/>
<path d="M58 52H59V50H58V52Z" fill="url(#paint58_linear_1_1373)"/>
<path d="M67 49H69V47H67V49Z" fill="url(#paint59_linear_1_1373)"/>
<path d="M50 54H52V52H50V54Z" fill="url(#paint60_linear_1_1373)"/>
<path d="M53 54H54V52H53V54Z" fill="url(#paint61_linear_1_1373)"/>
<path d="M55 54H57V52H55V54Z" fill="url(#paint62_linear_1_1373)"/>
<path d="M58 54H59V52H58V54Z" fill="url(#paint63_linear_1_1373)"/>
<path d="M60 54H62V52H60V54Z" fill="url(#paint64_linear_1_1373)"/>
<path d="M50 56H52V55H50V56Z" fill="url(#paint65_linear_1_1373)"/>
<path d="M53 56H54V55H53V56Z" fill="url(#paint66_linear_1_1373)"/>
<path d="M55 56H57V55H55V56Z" fill="url(#paint67_linear_1_1373)"/>
<path d="M58 56H59V55H58V56Z" fill="url(#paint68_linear_1_1373)"/>
<path d="M60 56H62V55H60V56Z" fill="url(#paint69_linear_1_1373)"/>
<path d="M50 58H52V57H50V58Z" fill="url(#paint70_linear_1_1373)"/>
<path d="M53 58H54V57H53V58Z" fill="url(#paint71_linear_1_1373)"/>
<path d="M55 58H57V57H55V58Z" fill="url(#paint72_linear_1_1373)"/>
<path d="M58 58H59V57H58V58Z" fill="url(#paint73_linear_1_1373)"/>
<path d="M60 58H62V57H60V58Z" fill="url(#paint74_linear_1_1373)"/>
<path d="M63 58H64V57H63V58Z" fill="url(#paint75_linear_1_1373)"/>
<path d="M65 58H67V57H65V58Z" fill="url(#paint76_linear_1_1373)"/>
<path d="M68 58H69V57H68V58Z" fill="url(#paint77_linear_1_1373)"/>
<path d="M71 58H73V57H71V58Z" fill="url(#paint78_linear_1_1373)"/>
<path d="M78 57H80V55H78V57Z" fill="url(#paint79_linear_1_1373)"/>
<path d="M75 58H77V57H75V58Z" fill="url(#paint80_linear_1_1373)"/>
<path d="M82 56H84V54H82V56Z" fill="url(#paint81_linear_1_1373)"/>
<path d="M50 61H52V59H50V61Z" fill="url(#paint82_linear_1_1373)"/>
<path d="M53 61H54V59H53V61Z" fill="url(#paint83_linear_1_1373)"/>
<path d="M55 61H57V59H55V61Z" fill="url(#paint84_linear_1_1373)"/>
<path d="M58 61H59V59H58V61Z" fill="url(#paint85_linear_1_1373)"/>
<path d="M60 61H62V59H60V61Z" fill="url(#paint86_linear_1_1373)"/>
<path d="M63 61H64V59H63V61Z" fill="url(#paint87_linear_1_1373)"/>
<path d="M65 61H67V59H65V61Z" fill="url(#paint88_linear_1_1373)"/>
<path d="M68 61H69V59H68V61Z" fill="url(#paint89_linear_1_1373)"/>
<path d="M70 61H72V59H70V61Z" fill="url(#paint90_linear_1_1373)"/>
<path d="M74 61H76V59H74V61Z" fill="url(#paint91_linear_1_1373)"/>
<path d="M81 59H83V57H81V59Z" fill="url(#paint92_linear_1_1373)"/>
<path d="M78 61H80V59H78V61Z" fill="url(#paint93_linear_1_1373)"/>
<path d="M50 63H52V61H50V63Z" fill="url(#paint94_linear_1_1373)"/>
<path d="M53 63H54V61H53V63Z" fill="url(#paint95_linear_1_1373)"/>
<path d="M55 63H57V61H55V63Z" fill="url(#paint96_linear_1_1373)"/>
<path d="M58 63H59V61H58V63Z" fill="url(#paint97_linear_1_1373)"/>
<path d="M60 63H62V61H60V63Z" fill="url(#paint98_linear_1_1373)"/>
<path d="M63 63H64V61H63V63Z" fill="url(#paint99_linear_1_1373)"/>
<path d="M65 63H67V61H65V63Z" fill="url(#paint100_linear_1_1373)"/>
<path d="M68 63H69V61H68V63Z" fill="url(#paint101_linear_1_1373)"/>
<path d="M70 63H72V61H70V63Z" fill="url(#paint102_linear_1_1373)"/>
<path d="M73 63H75V61H73V63Z" fill="url(#paint103_linear_1_1373)"/>
<path d="M76 63H77V61H76V63Z" fill="url(#paint104_linear_1_1373)"/>
<path d="M80 65H82V63H80V65Z" fill="url(#paint105_linear_1_1373)"/>
<path d="M50 65H52V63H50V65Z" fill="url(#paint106_linear_1_1373)"/>
<path d="M53 65H54V63H53V65Z" fill="url(#paint107_linear_1_1373)"/>
<path d="M55 65H57V63H55V65Z" fill="url(#paint108_linear_1_1373)"/>
<path d="M58 65H59V63H58V65Z" fill="url(#paint109_linear_1_1373)"/>
<path d="M60 65H62V63H60V65Z" fill="url(#paint110_linear_1_1373)"/>
<path d="M63 65H64V63H63V65Z" fill="url(#paint111_linear_1_1373)"/>
<path d="M65 65H67V63H65V65Z" fill="url(#paint112_linear_1_1373)"/>
<path d="M68 65H69V63H68V65Z" fill="url(#paint113_linear_1_1373)"/>
<path d="M70 65H72V63H70V65Z" fill="url(#paint114_linear_1_1373)"/>
<path d="M82 61H84V59H82V61Z" fill="url(#paint115_linear_1_1373)"/>
<path d="M74 65H75V63H74V65Z" fill="url(#paint116_linear_1_1373)"/>
<path d="M78 63H80V61H78V63Z" fill="url(#paint117_linear_1_1373)"/>
<defs>
<filter id="filter0_f_1_1373" x="0" y="0" width="131" height="111" filterUnits="userSpaceOnUse" color-interpolation-filters="sRGB">
<feFlood flood-opacity="0" result="BackgroundImageFix"/>
<feBlend mode="normal" in="SourceGraphic" in2="BackgroundImageFix" result="shape"/>
<feGaussianBlur stdDeviation="25" result="effect1_foregroundBlur_1_1373"/>
</filter>
<filter id="filter1_f_1_1373" x="33.9718" y="3.22656" width="50.2215" height="85.9517" filterUnits="userSpaceOnUse" color-interpolation-filters="sRGB">
<feFlood flood-opacity="0" result="BackgroundImageFix"/>
<feBlend mode="normal" in="SourceGraphic" in2="BackgroundImageFix" result="shape"/>
<feGaussianBlur stdDeviation="10" result="effect1_foregroundBlur_1_1373"/>
</filter>
<linearGradient id="paint0_linear_1_1373" x1="73.3763" y1="65.0322" x2="56.9449" y2="21.2779" gradientUnits="userSpaceOnUse">
<stop stop-color="#11E5B3"/>
<stop offset="1" stop-color="#59FBD5"/>
</linearGradient>
<linearGradient id="paint1_linear_1_1373" x1="73.3763" y1="65.0322" x2="56.9449" y2="21.2779" gradientUnits="userSpaceOnUse">
<stop stop-color="#11E5B3"/>
<stop offset="1" stop-color="#59FBD5"/>
</linearGradient>
<linearGradient id="paint2_linear_1_1373" x1="73.3763" y1="65.0322" x2="56.9449" y2="21.2779" gradientUnits="userSpaceOnUse">
<stop stop-color="#11E5B3"/>
<stop offset="1" stop-color="#59FBD5"/>
</linearGradient>
<linearGradient id="paint3_linear_1_1373" x1="73.3763" y1="65.0322" x2="56.9449" y2="21.2779" gradientUnits="userSpaceOnUse">
<stop stop-color="#11E5B3"/>
<stop offset="1" stop-color="#59FBD5"/>
</linearGradient>
<linearGradient id="paint4_linear_1_1373" x1="73.3763" y1="65.0322" x2="56.9449" y2="21.2779" gradientUnits="userSpaceOnUse">
<stop stop-color="#11E5B3"/>
<stop offset="1" stop-color="#59FBD5"/>
</linearGradient>
<linearGradient id="paint5_linear_1_1373" x1="73.3763" y1="65.0322" x2="56.9449" y2="21.2779" gradientUnits="userSpaceOnUse">
<stop stop-color="#11E5B3"/>
<stop offset="1" stop-color="#59FBD5"/>
</linearGradient>
<linearGradient id="paint6_linear_1_1373" x1="73.3763" y1="65.0322" x2="56.9449" y2="21.2779" gradientUnits="userSpaceOnUse">
<stop stop-color="#11E5B3"/>
<stop offset="1" stop-color="#59FBD5"/>
</linearGradient>
<linearGradient id="paint7_linear_1_1373" x1="73.3763" y1="65.0322" x2="56.9449" y2="21.2779" gradientUnits="userSpaceOnUse">
<stop stop-color="#11E5B3"/>
<stop offset="1" stop-color="#59FBD5"/>
</linearGradient>
<linearGradient id="paint8_linear_1_1373" x1="73.3763" y1="65.0322" x2="56.9449" y2="21.2779" gradientUnits="userSpaceOnUse">
<stop stop-color="#11E5B3"/>
<stop offset="1" stop-color="#59FBD5"/>
</linearGradient>
<linearGradient id="paint9_linear_1_1373" x1="73.3763" y1="65.0322" x2="56.9449" y2="21.2779" gradientUnits="userSpaceOnUse">
<stop stop-color="#11E5B3"/>
<stop offset="1" stop-color="#59FBD5"/>
</linearGradient>
<linearGradient id="paint10_linear_1_1373" x1="73.3763" y1="65.0322" x2="56.9449" y2="21.2779" gradientUnits="userSpaceOnUse">
<stop stop-color="#11E5B3"/>
<stop offset="1" stop-color="#59FBD5"/>
</linearGradient>
<linearGradient id="paint11_linear_1_1373" x1="73.3763" y1="65.0322" x2="56.9449" y2="21.2779" gradientUnits="userSpaceOnUse">
<stop stop-color="#11E5B3"/>
<stop offset="1" stop-color="#59FBD5"/>
</linearGradient>
<linearGradient id="paint12_linear_1_1373" x1="73.3763" y1="65.0322" x2="56.9449" y2="21.2779" gradientUnits="userSpaceOnUse">
<stop stop-color="#11E5B3"/>
<stop offset="1" stop-color="#59FBD5"/>
</linearGradient>
<linearGradient id="paint13_linear_1_1373" x1="73.3763" y1="65.0322" x2="56.9449" y2="21.2779" gradientUnits="userSpaceOnUse">
<stop stop-color="#11E5B3"/>
<stop offset="1" stop-color="#59FBD5"/>
</linearGradient>
<linearGradient id="paint14_linear_1_1373" x1="73.3763" y1="65.0322" x2="56.9449" y2="21.2779" gradientUnits="userSpaceOnUse">
<stop stop-color="#11E5B3"/>
<stop offset="1" stop-color="#59FBD5"/>
</linearGradient>
<linearGradient id="paint15_linear_1_1373" x1="73.3763" y1="65.0322" x2="56.9449" y2="21.2779" gradientUnits="userSpaceOnUse">
<stop stop-color="#11E5B3"/>
<stop offset="1" stop-color="#59FBD5"/>
</linearGradient>
<linearGradient id="paint16_linear_1_1373" x1="73.3763" y1="65.0322" x2="56.9449" y2="21.2779" gradientUnits="userSpaceOnUse">
<stop stop-color="#11E5B3"/>
<stop offset="1" stop-color="#59FBD5"/>
</linearGradient>
<linearGradient id="paint17_linear_1_1373" x1="73.3763" y1="65.0322" x2="56.9449" y2="21.2779" gradientUnits="userSpaceOnUse">
<stop stop-color="#11E5B3"/>
<stop offset="1" stop-color="#59FBD5"/>
</linearGradient>
<linearGradient id="paint18_linear_1_1373" x1="73.3763" y1="65.0322" x2="56.9449" y2="21.2779" gradientUnits="userSpaceOnUse">
<stop stop-color="#11E5B3"/>
<stop offset="1" stop-color="#59FBD5"/>
</linearGradient>
<linearGradient id="paint19_linear_1_1373" x1="73.3763" y1="65.0322" x2="56.9449" y2="21.2779" gradientUnits="userSpaceOnUse">
<stop stop-color="#11E5B3"/>
<stop offset="1" stop-color="#59FBD5"/>
</linearGradient>
<linearGradient id="paint20_linear_1_1373" x1="73.3763" y1="65.0322" x2="56.9449" y2="21.2779" gradientUnits="userSpaceOnUse">
<stop stop-color="#11E5B3"/>
<stop offset="1" stop-color="#59FBD5"/>
</linearGradient>
<linearGradient id="paint21_linear_1_1373" x1="73.3763" y1="65.0322" x2="56.9449" y2="21.2779" gradientUnits="userSpaceOnUse">
<stop stop-color="#11E5B3"/>
<stop offset="1" stop-color="#59FBD5"/>
</linearGradient>
<linearGradient id="paint22_linear_1_1373" x1="73.3763" y1="65.0322" x2="56.9449" y2="21.2779" gradientUnits="userSpaceOnUse">
<stop stop-color="#11E5B3"/>
<stop offset="1" stop-color="#59FBD5"/>
</linearGradient>
<linearGradient id="paint23_linear_1_1373" x1="73.3763" y1="65.0322" x2="56.9449" y2="21.2779" gradientUnits="userSpaceOnUse">
<stop stop-color="#11E5B3"/>
<stop offset="1" stop-color="#59FBD5"/>
</linearGradient>
<linearGradient id="paint24_linear_1_1373" x1="73.3763" y1="65.0322" x2="56.9449" y2="21.2779" gradientUnits="userSpaceOnUse">
<stop stop-color="#11E5B3"/>
<stop offset="1" stop-color="#59FBD5"/>
</linearGradient>
<linearGradient id="paint25_linear_1_1373" x1="73.3763" y1="65.0322" x2="56.9449" y2="21.2779" gradientUnits="userSpaceOnUse">
<stop stop-color="#11E5B3"/>
<stop offset="1" stop-color="#59FBD5"/>
</linearGradient>
<linearGradient id="paint26_linear_1_1373" x1="73.3763" y1="65.0322" x2="56.9449" y2="21.2779" gradientUnits="userSpaceOnUse">
<stop stop-color="#11E5B3"/>
<stop offset="1" stop-color="#59FBD5"/>
</linearGradient>
<linearGradient id="paint27_linear_1_1373" x1="73.3763" y1="65.0322" x2="56.9449" y2="21.2779" gradientUnits="userSpaceOnUse">
<stop stop-color="#11E5B3"/>
<stop offset="1" stop-color="#59FBD5"/>
</linearGradient>
<linearGradient id="paint28_linear_1_1373" x1="73.3763" y1="65.0322" x2="56.9449" y2="21.2779" gradientUnits="userSpaceOnUse">
<stop stop-color="#11E5B3"/>
<stop offset="1" stop-color="#59FBD5"/>
</linearGradient>
<linearGradient id="paint29_linear_1_1373" x1="73.3763" y1="65.0322" x2="56.9449" y2="21.2779" gradientUnits="userSpaceOnUse">
<stop stop-color="#11E5B3"/>
<stop offset="1" stop-color="#59FBD5"/>
</linearGradient>
<linearGradient id="paint30_linear_1_1373" x1="73.3763" y1="65.0322" x2="56.9449" y2="21.2779" gradientUnits="userSpaceOnUse">
<stop stop-color="#11E5B3"/>
<stop offset="1" stop-color="#59FBD5"/>
</linearGradient>
<linearGradient id="paint31_linear_1_1373" x1="73.3763" y1="65.0322" x2="56.9449" y2="21.2779" gradientUnits="userSpaceOnUse">
<stop stop-color="#11E5B3"/>
<stop offset="1" stop-color="#59FBD5"/>
</linearGradient>
<linearGradient id="paint32_linear_1_1373" x1="73.3763" y1="65.0322" x2="56.9449" y2="21.2779" gradientUnits="userSpaceOnUse">
<stop stop-color="#11E5B3"/>
<stop offset="1" stop-color="#59FBD5"/>
</linearGradient>
<linearGradient id="paint33_linear_1_1373" x1="73.3763" y1="65.0322" x2="56.9449" y2="21.2779" gradientUnits="userSpaceOnUse">
<stop stop-color="#11E5B3"/>
<stop offset="1" stop-color="#59FBD5"/>
</linearGradient>
<linearGradient id="paint34_linear_1_1373" x1="73.3763" y1="65.0322" x2="56.9449" y2="21.2779" gradientUnits="userSpaceOnUse">
<stop stop-color="#11E5B3"/>
<stop offset="1" stop-color="#59FBD5"/>
</linearGradient>
<linearGradient id="paint35_linear_1_1373" x1="73.3763" y1="65.0322" x2="56.9449" y2="21.2779" gradientUnits="userSpaceOnUse">
<stop stop-color="#11E5B3"/>
<stop offset="1" stop-color="#59FBD5"/>
</linearGradient>
<linearGradient id="paint36_linear_1_1373" x1="73.3763" y1="65.0322" x2="56.9449" y2="21.2779" gradientUnits="userSpaceOnUse">
<stop stop-color="#11E5B3"/>
<stop offset="1" stop-color="#59FBD5"/>
</linearGradient>
<linearGradient id="paint37_linear_1_1373" x1="73.3763" y1="65.0322" x2="56.9449" y2="21.2779" gradientUnits="userSpaceOnUse">
<stop stop-color="#11E5B3"/>
<stop offset="1" stop-color="#59FBD5"/>
</linearGradient>
<linearGradient id="paint38_linear_1_1373" x1="73.3763" y1="65.0322" x2="56.9449" y2="21.2779" gradientUnits="userSpaceOnUse">
<stop stop-color="#11E5B3"/>
<stop offset="1" stop-color="#59FBD5"/>
</linearGradient>
<linearGradient id="paint39_linear_1_1373" x1="73.3763" y1="65.0322" x2="56.9449" y2="21.2779" gradientUnits="userSpaceOnUse">
<stop stop-color="#11E5B3"/>
<stop offset="1" stop-color="#59FBD5"/>
</linearGradient>
<linearGradient id="paint40_linear_1_1373" x1="73.3763" y1="65.0322" x2="56.9449" y2="21.2779" gradientUnits="userSpaceOnUse">
<stop stop-color="#11E5B3"/>
<stop offset="1" stop-color="#59FBD5"/>
</linearGradient>
<linearGradient id="paint41_linear_1_1373" x1="73.3763" y1="65.0322" x2="56.9449" y2="21.2779" gradientUnits="userSpaceOnUse">
<stop stop-color="#11E5B3"/>
<stop offset="1" stop-color="#59FBD5"/>
</linearGradient>
<linearGradient id="paint42_linear_1_1373" x1="73.3763" y1="65.0322" x2="56.9449" y2="21.2779" gradientUnits="userSpaceOnUse">
<stop stop-color="#11E5B3"/>
<stop offset="1" stop-color="#59FBD5"/>
</linearGradient>
<linearGradient id="paint43_linear_1_1373" x1="73.3763" y1="65.0322" x2="56.9449" y2="21.2779" gradientUnits="userSpaceOnUse">
<stop stop-color="#11E5B3"/>
<stop offset="1" stop-color="#59FBD5"/>
</linearGradient>
<linearGradient id="paint44_linear_1_1373" x1="73.3763" y1="65.0322" x2="56.9449" y2="21.2779" gradientUnits="userSpaceOnUse">
<stop stop-color="#11E5B3"/>
<stop offset="1" stop-color="#59FBD5"/>
</linearGradient>
<linearGradient id="paint45_linear_1_1373" x1="73.3763" y1="65.0322" x2="56.9449" y2="21.2779" gradientUnits="userSpaceOnUse">
<stop stop-color="#11E5B3"/>
<stop offset="1" stop-color="#59FBD5"/>
</linearGradient>
<linearGradient id="paint46_linear_1_1373" x1="73.3763" y1="65.0322" x2="56.9449" y2="21.2779" gradientUnits="userSpaceOnUse">
<stop stop-color="#11E5B3"/>
<stop offset="1" stop-color="#59FBD5"/>
</linearGradient>
<linearGradient id="paint47_linear_1_1373" x1="73.3763" y1="65.0322" x2="56.9449" y2="21.2779" gradientUnits="userSpaceOnUse">
<stop stop-color="#11E5B3"/>
<stop offset="1" stop-color="#59FBD5"/>
</linearGradient>
<linearGradient id="paint48_linear_1_1373" x1="73.3763" y1="65.0322" x2="56.9449" y2="21.2779" gradientUnits="userSpaceOnUse">
<stop stop-color="#11E5B3"/>
<stop offset="1" stop-color="#59FBD5"/>
</linearGradient>
<linearGradient id="paint49_linear_1_1373" x1="73.3763" y1="65.0322" x2="56.9449" y2="21.2779" gradientUnits="userSpaceOnUse">
<stop stop-color="#11E5B3"/>
<stop offset="1" stop-color="#59FBD5"/>
</linearGradient>
<linearGradient id="paint50_linear_1_1373" x1="73.3763" y1="65.0322" x2="56.9449" y2="21.2779" gradientUnits="userSpaceOnUse">
<stop stop-color="#11E5B3"/>
<stop offset="1" stop-color="#59FBD5"/>
</linearGradient>
<linearGradient id="paint51_linear_1_1373" x1="73.3763" y1="65.0322" x2="56.9449" y2="21.2779" gradientUnits="userSpaceOnUse">
<stop stop-color="#11E5B3"/>
<stop offset="1" stop-color="#59FBD5"/>
</linearGradient>
<linearGradient id="paint52_linear_1_1373" x1="73.3763" y1="65.0322" x2="56.9449" y2="21.2779" gradientUnits="userSpaceOnUse">
<stop stop-color="#11E5B3"/>
<stop offset="1" stop-color="#59FBD5"/>
</linearGradient>
<linearGradient id="paint53_linear_1_1373" x1="73.3763" y1="65.0322" x2="56.9449" y2="21.2779" gradientUnits="userSpaceOnUse">
<stop stop-color="#11E5B3"/>
<stop offset="1" stop-color="#59FBD5"/>
</linearGradient>
<linearGradient id="paint54_linear_1_1373" x1="73.3763" y1="65.0322" x2="56.9449" y2="21.2779" gradientUnits="userSpaceOnUse">
<stop stop-color="#11E5B3"/>
<stop offset="1" stop-color="#59FBD5"/>
</linearGradient>
<linearGradient id="paint55_linear_1_1373" x1="73.3763" y1="65.0322" x2="56.9449" y2="21.2779" gradientUnits="userSpaceOnUse">
<stop stop-color="#11E5B3"/>
<stop offset="1" stop-color="#59FBD5"/>
</linearGradient>
<linearGradient id="paint56_linear_1_1373" x1="73.3763" y1="65.0322" x2="56.9449" y2="21.2779" gradientUnits="userSpaceOnUse">
<stop stop-color="#11E5B3"/>
<stop offset="1" stop-color="#59FBD5"/>
</linearGradient>
<linearGradient id="paint57_linear_1_1373" x1="73.3763" y1="65.0322" x2="56.9449" y2="21.2779" gradientUnits="userSpaceOnUse">
<stop stop-color="#11E5B3"/>
<stop offset="1" stop-color="#59FBD5"/>
</linearGradient>
<linearGradient id="paint58_linear_1_1373" x1="73.3763" y1="65.0322" x2="56.9449" y2="21.2779" gradientUnits="userSpaceOnUse">
<stop stop-color="#11E5B3"/>
<stop offset="1" stop-color="#59FBD5"/>
</linearGradient>
<linearGradient id="paint59_linear_1_1373" x1="73.3763" y1="65.0322" x2="56.9449" y2="21.2779" gradientUnits="userSpaceOnUse">
<stop stop-color="#11E5B3"/>
<stop offset="1" stop-color="#59FBD5"/>
</linearGradient>
<linearGradient id="paint60_linear_1_1373" x1="73.3763" y1="65.0322" x2="56.9449" y2="21.2779" gradientUnits="userSpaceOnUse">
<stop stop-color="#11E5B3"/>
<stop offset="1" stop-color="#59FBD5"/>
</linearGradient>
<linearGradient id="paint61_linear_1_1373" x1="73.3763" y1="65.0322" x2="56.9449" y2="21.2779" gradientUnits="userSpaceOnUse">
<stop stop-color="#11E5B3"/>
<stop offset="1" stop-color="#59FBD5"/>
</linearGradient>
<linearGradient id="paint62_linear_1_1373" x1="73.3763" y1="65.0322" x2="56.9449" y2="21.2779" gradientUnits="userSpaceOnUse">
<stop stop-color="#11E5B3"/>
<stop offset="1" stop-color="#59FBD5"/>
</linearGradient>
<linearGradient id="paint63_linear_1_1373" x1="73.3763" y1="65.0322" x2="56.9449" y2="21.2779" gradientUnits="userSpaceOnUse">
<stop stop-color="#11E5B3"/>
<stop offset="1" stop-color="#59FBD5"/>
</linearGradient>
<linearGradient id="paint64_linear_1_1373" x1="73.3763" y1="65.0322" x2="56.9449" y2="21.2779" gradientUnits="userSpaceOnUse">
<stop stop-color="#11E5B3"/>
<stop offset="1" stop-color="#59FBD5"/>
</linearGradient>
<linearGradient id="paint65_linear_1_1373" x1="73.3763" y1="65.0322" x2="56.9449" y2="21.2779" gradientUnits="userSpaceOnUse">
<stop stop-color="#11E5B3"/>
<stop offset="1" stop-color="#59FBD5"/>
</linearGradient>
<linearGradient id="paint66_linear_1_1373" x1="73.3763" y1="65.0322" x2="56.9449" y2="21.2779" gradientUnits="userSpaceOnUse">
<stop stop-color="#11E5B3"/>
<stop offset="1" stop-color="#59FBD5"/>
</linearGradient>
<linearGradient id="paint67_linear_1_1373" x1="73.3763" y1="65.0322" x2="56.9449" y2="21.2779" gradientUnits="userSpaceOnUse">
<stop stop-color="#11E5B3"/>
<stop offset="1" stop-color="#59FBD5"/>
</linearGradient>
<linearGradient id="paint68_linear_1_1373" x1="73.3763" y1="65.0322" x2="56.9449" y2="21.2779" gradientUnits="userSpaceOnUse">
<stop stop-color="#11E5B3"/>
<stop offset="1" stop-color="#59FBD5"/>
</linearGradient>
<linearGradient id="paint69_linear_1_1373" x1="73.3763" y1="65.0322" x2="56.9449" y2="21.2779" gradientUnits="userSpaceOnUse">
<stop stop-color="#11E5B3"/>
<stop offset="1" stop-color="#59FBD5"/>
</linearGradient>
<linearGradient id="paint70_linear_1_1373" x1="73.3763" y1="65.0322" x2="56.9449" y2="21.2779" gradientUnits="userSpaceOnUse">
<stop stop-color="#11E5B3"/>
<stop offset="1" stop-color="#59FBD5"/>
</linearGradient>
<linearGradient id="paint71_linear_1_1373" x1="73.3763" y1="65.0322" x2="56.9449" y2="21.2779" gradientUnits="userSpaceOnUse">
<stop stop-color="#11E5B3"/>
<stop offset="1" stop-color="#59FBD5"/>
</linearGradient>
<linearGradient id="paint72_linear_1_1373" x1="73.3763" y1="65.0322" x2="56.9449" y2="21.2779" gradientUnits="userSpaceOnUse">
<stop stop-color="#11E5B3"/>
<stop offset="1" stop-color="#59FBD5"/>
</linearGradient>
<linearGradient id="paint73_linear_1_1373" x1="73.3763" y1="65.0322" x2="56.9449" y2="21.2779" gradientUnits="userSpaceOnUse">
<stop stop-color="#11E5B3"/>
<stop offset="1" stop-color="#59FBD5"/>
</linearGradient>
<linearGradient id="paint74_linear_1_1373" x1="73.3763" y1="65.0322" x2="56.9449" y2="21.2779" gradientUnits="userSpaceOnUse">
<stop stop-color="#11E5B3"/>
<stop offset="1" stop-color="#59FBD5"/>
</linearGradient>
<linearGradient id="paint75_linear_1_1373" x1="73.3763" y1="65.0322" x2="56.9449" y2="21.2779" gradientUnits="userSpaceOnUse">
<stop stop-color="#11E5B3"/>
<stop offset="1" stop-color="#59FBD5"/>
</linearGradient>
<linearGradient id="paint76_linear_1_1373" x1="73.3763" y1="65.0322" x2="56.9449" y2="21.2779" gradientUnits="userSpaceOnUse">
<stop stop-color="#11E5B3"/>
<stop offset="1" stop-color="#59FBD5"/>
</linearGradient>
<linearGradient id="paint77_linear_1_1373" x1="73.3763" y1="65.0322" x2="56.9449" y2="21.2779" gradientUnits="userSpaceOnUse">
<stop stop-color="#11E5B3"/>
<stop offset="1" stop-color="#59FBD5"/>
</linearGradient>
<linearGradient id="paint78_linear_1_1373" x1="73.3763" y1="65.0322" x2="56.9449" y2="21.2779" gradientUnits="userSpaceOnUse">
<stop stop-color="#11E5B3"/>
<stop offset="1" stop-color="#59FBD5"/>
</linearGradient>
<linearGradient id="paint79_linear_1_1373" x1="73.3763" y1="65.0322" x2="56.9449" y2="21.2779" gradientUnits="userSpaceOnUse">
<stop stop-color="#11E5B3"/>
<stop offset="1" stop-color="#59FBD5"/>
</linearGradient>
<linearGradient id="paint80_linear_1_1373" x1="73.3763" y1="65.0322" x2="56.9449" y2="21.2779" gradientUnits="userSpaceOnUse">
<stop stop-color="#11E5B3"/>
<stop offset="1" stop-color="#59FBD5"/>
</linearGradient>
<linearGradient id="paint81_linear_1_1373" x1="73.3763" y1="65.0322" x2="56.9449" y2="21.2779" gradientUnits="userSpaceOnUse">
<stop stop-color="#11E5B3"/>
<stop offset="1" stop-color="#59FBD5"/>
</linearGradient>
<linearGradient id="paint82_linear_1_1373" x1="73.3763" y1="65.0322" x2="56.9449" y2="21.2779" gradientUnits="userSpaceOnUse">
<stop stop-color="#11E5B3"/>
<stop offset="1" stop-color="#59FBD5"/>
</linearGradient>
<linearGradient id="paint83_linear_1_1373" x1="73.3763" y1="65.0322" x2="56.9449" y2="21.2779" gradientUnits="userSpaceOnUse">
<stop stop-color="#11E5B3"/>
<stop offset="1" stop-color="#59FBD5"/>
</linearGradient>
<linearGradient id="paint84_linear_1_1373" x1="73.3763" y1="65.0322" x2="56.9449" y2="21.2779" gradientUnits="userSpaceOnUse">
<stop stop-color="#11E5B3"/>
<stop offset="1" stop-color="#59FBD5"/>
</linearGradient>
<linearGradient id="paint85_linear_1_1373" x1="73.3763" y1="65.0322" x2="56.9449" y2="21.2779" gradientUnits="userSpaceOnUse">
<stop stop-color="#11E5B3"/>
<stop offset="1" stop-color="#59FBD5"/>
</linearGradient>
<linearGradient id="paint86_linear_1_1373" x1="73.3763" y1="65.0322" x2="56.9449" y2="21.2779" gradientUnits="userSpaceOnUse">
<stop stop-color="#11E5B3"/>
<stop offset="1" stop-color="#59FBD5"/>
</linearGradient>
<linearGradient id="paint87_linear_1_1373" x1="73.3763" y1="65.0322" x2="56.9449" y2="21.2779" gradientUnits="userSpaceOnUse">
<stop stop-color="#11E5B3"/>
<stop offset="1" stop-color="#59FBD5"/>
</linearGradient>
<linearGradient id="paint88_linear_1_1373" x1="73.3763" y1="65.0322" x2="56.9449" y2="21.2779" gradientUnits="userSpaceOnUse">
<stop stop-color="#11E5B3"/>
<stop offset="1" stop-color="#59FBD5"/>
</linearGradient>
<linearGradient id="paint89_linear_1_1373" x1="73.3763" y1="65.0322" x2="56.9449" y2="21.2779" gradientUnits="userSpaceOnUse">
<stop stop-color="#11E5B3"/>
<stop offset="1" stop-color="#59FBD5"/>
</linearGradient>
<linearGradient id="paint90_linear_1_1373" x1="73.3763" y1="65.0322" x2="56.9449" y2="21.2779" gradientUnits="userSpaceOnUse">
<stop stop-color="#11E5B3"/>
<stop offset="1" stop-color="#59FBD5"/>
</linearGradient>
<linearGradient id="paint91_linear_1_1373" x1="73.3763" y1="65.0322" x2="56.9449" y2="21.2779" gradientUnits="userSpaceOnUse">
<stop stop-color="#11E5B3"/>
<stop offset="1" stop-color="#59FBD5"/>
</linearGradient>
<linearGradient id="paint92_linear_1_1373" x1="73.3763" y1="65.0322" x2="56.9449" y2="21.2779" gradientUnits="userSpaceOnUse">
<stop stop-color="#11E5B3"/>
<stop offset="1" stop-color="#59FBD5"/>
</linearGradient>
<linearGradient id="paint93_linear_1_1373" x1="73.3763" y1="65.0322" x2="56.9449" y2="21.2779" gradientUnits="userSpaceOnUse">
<stop stop-color="#11E5B3"/>
<stop offset="1" stop-color="#59FBD5"/>
</linearGradient>
<linearGradient id="paint94_linear_1_1373" x1="73.3763" y1="65.0322" x2="56.9449" y2="21.2779" gradientUnits="userSpaceOnUse">
<stop stop-color="#11E5B3"/>
<stop offset="1" stop-color="#59FBD5"/>
</linearGradient>
<linearGradient id="paint95_linear_1_1373" x1="73.3763" y1="65.0322" x2="56.9449" y2="21.2779" gradientUnits="userSpaceOnUse">
<stop stop-color="#11E5B3"/>
<stop offset="1" stop-color="#59FBD5"/>
</linearGradient>
<linearGradient id="paint96_linear_1_1373" x1="73.3763" y1="65.0322" x2="56.9449" y2="21.2779" gradientUnits="userSpaceOnUse">
<stop stop-color="#11E5B3"/>
<stop offset="1" stop-color="#59FBD5"/>
</linearGradient>
<linearGradient id="paint97_linear_1_1373" x1="73.3763" y1="65.0322" x2="56.9449" y2="21.2779" gradientUnits="userSpaceOnUse">
<stop stop-color="#11E5B3"/>
<stop offset="1" stop-color="#59FBD5"/>
</linearGradient>
<linearGradient id="paint98_linear_1_1373" x1="73.3763" y1="65.0322" x2="56.9449" y2="21.2779" gradientUnits="userSpaceOnUse">
<stop stop-color="#11E5B3"/>
<stop offset="1" stop-color="#59FBD5"/>
</linearGradient>
<linearGradient id="paint99_linear_1_1373" x1="73.3763" y1="65.0322" x2="56.9449" y2="21.2779" gradientUnits="userSpaceOnUse">
<stop stop-color="#11E5B3"/>
<stop offset="1" stop-color="#59FBD5"/>
</linearGradient>
<linearGradient id="paint100_linear_1_1373" x1="73.3763" y1="65.0322" x2="56.9449" y2="21.2779" gradientUnits="userSpaceOnUse">
<stop stop-color="#11E5B3"/>
<stop offset="1" stop-color="#59FBD5"/>
</linearGradient>
<linearGradient id="paint101_linear_1_1373" x1="73.3763" y1="65.0322" x2="56.9449" y2="21.2779" gradientUnits="userSpaceOnUse">
<stop stop-color="#11E5B3"/>
<stop offset="1" stop-color="#59FBD5"/>
</linearGradient>
<linearGradient id="paint102_linear_1_1373" x1="73.3763" y1="65.0322" x2="56.9449" y2="21.2779" gradientUnits="userSpaceOnUse">
<stop stop-color="#11E5B3"/>
<stop offset="1" stop-color="#59FBD5"/>
</linearGradient>
<linearGradient id="paint103_linear_1_1373" x1="73.3763" y1="65.0322" x2="56.9449" y2="21.2779" gradientUnits="userSpaceOnUse">
<stop stop-color="#11E5B3"/>
<stop offset="1" stop-color="#59FBD5"/>
</linearGradient>
<linearGradient id="paint104_linear_1_1373" x1="73.3763" y1="65.0322" x2="56.9449" y2="21.2779" gradientUnits="userSpaceOnUse">
<stop stop-color="#11E5B3"/>
<stop offset="1" stop-color="#59FBD5"/>
</linearGradient>
<linearGradient id="paint105_linear_1_1373" x1="73.3763" y1="65.0322" x2="56.9449" y2="21.2779" gradientUnits="userSpaceOnUse">
<stop stop-color="#11E5B3"/>
<stop offset="1" stop-color="#59FBD5"/>
</linearGradient>
<linearGradient id="paint106_linear_1_1373" x1="73.3763" y1="65.0322" x2="56.9449" y2="21.2779" gradientUnits="userSpaceOnUse">
<stop stop-color="#11E5B3"/>
<stop offset="1" stop-color="#59FBD5"/>
</linearGradient>
<linearGradient id="paint107_linear_1_1373" x1="73.3763" y1="65.0322" x2="56.9449" y2="21.2779" gradientUnits="userSpaceOnUse">
<stop stop-color="#11E5B3"/>
<stop offset="1" stop-color="#59FBD5"/>
</linearGradient>
<linearGradient id="paint108_linear_1_1373" x1="73.3763" y1="65.0322" x2="56.9449" y2="21.2779" gradientUnits="userSpaceOnUse">
<stop stop-color="#11E5B3"/>
<stop offset="1" stop-color="#59FBD5"/>
</linearGradient>
<linearGradient id="paint109_linear_1_1373" x1="73.3763" y1="65.0322" x2="56.9449" y2="21.2779" gradientUnits="userSpaceOnUse">
<stop stop-color="#11E5B3"/>
<stop offset="1" stop-color="#59FBD5"/>
</linearGradient>
<linearGradient id="paint110_linear_1_1373" x1="73.3763" y1="65.0322" x2="56.9449" y2="21.2779" gradientUnits="userSpaceOnUse">
<stop stop-color="#11E5B3"/>
<stop offset="1" stop-color="#59FBD5"/>
</linearGradient>
<linearGradient id="paint111_linear_1_1373" x1="73.3763" y1="65.0322" x2="56.9449" y2="21.2779" gradientUnits="userSpaceOnUse">
<stop stop-color="#11E5B3"/>
<stop offset="1" stop-color="#59FBD5"/>
</linearGradient>
<linearGradient id="paint112_linear_1_1373" x1="73.3763" y1="65.0322" x2="56.9449" y2="21.2779" gradientUnits="userSpaceOnUse">
<stop stop-color="#11E5B3"/>
<stop offset="1" stop-color="#59FBD5"/>
</linearGradient>
<linearGradient id="paint113_linear_1_1373" x1="73.3763" y1="65.0322" x2="56.9449" y2="21.2779" gradientUnits="userSpaceOnUse">
<stop stop-color="#11E5B3"/>
<stop offset="1" stop-color="#59FBD5"/>
</linearGradient>
<linearGradient id="paint114_linear_1_1373" x1="73.3763" y1="65.0322" x2="56.9449" y2="21.2779" gradientUnits="userSpaceOnUse">
<stop stop-color="#11E5B3"/>
<stop offset="1" stop-color="#59FBD5"/>
</linearGradient>
<linearGradient id="paint115_linear_1_1373" x1="73.3763" y1="65.0322" x2="56.9449" y2="21.2779" gradientUnits="userSpaceOnUse">
<stop stop-color="#11E5B3"/>
<stop offset="1" stop-color="#59FBD5"/>
</linearGradient>
<linearGradient id="paint116_linear_1_1373" x1="73.3763" y1="65.0322" x2="56.9449" y2="21.2779" gradientUnits="userSpaceOnUse">
<stop stop-color="#11E5B3"/>
<stop offset="1" stop-color="#59FBD5"/>
</linearGradient>
<linearGradient id="paint117_linear_1_1373" x1="73.3763" y1="65.0322" x2="56.9449" y2="21.2779" gradientUnits="userSpaceOnUse">
<stop stop-color="#11E5B3"/>
<stop offset="1" stop-color="#59FBD5"/>
</linearGradient>
</defs>
</svg>
