<svg width="1760" height="84" viewBox="0 0 1760 84" fill="none" xmlns="http://www.w3.org/2000/svg">
<g filter="url(#filter0_f_1_787)">
<path d="M749.453 25.6411C749.78 24.661 750.697 24 751.73 24H1001.44C1002.39 24 1003.25 24.5586 1003.63 25.4253L1006.79 32.5346C1006.93 32.8414 1007 33.1735 1007 33.5093V53.388C1007 53.7896 1006.9 54.1847 1006.71 54.5373L1001.68 63.7492C1001.26 64.5203 1000.45 65 999.575 65H994.104C993.403 65 992.738 65.3062 992.282 65.8381L987.718 71.1619C987.262 71.6938 986.597 72 985.896 72H768.104C767.403 72 766.738 71.6938 766.282 71.1619L761.718 65.8381C761.262 65.3062 760.597 65 759.896 65H755.317C754.497 65 753.733 64.5808 753.293 63.8885L747.375 54.5896C747.13 54.2045 747 53.7576 747 53.3011V33.3895C747 33.1315 747.042 32.8752 747.123 32.6305L749.453 25.6411Z" fill="url(#paint0_linear_1_787)" fill-opacity="0.3"/>
</g>
<g filter="url(#filter1_f_1_787)">
<path d="M747 53L726 53" stroke="#CF52FE" stroke-width="2.4" stroke-linecap="round"/>
<path d="M1007 54L1028 54" stroke="#CF52FE" stroke-width="2.4" stroke-linecap="round"/>
<line x1="702.8" y1="53.2" x2="352.2" y2="53.2" stroke="url(#paint1_linear_1_787)" stroke-width="2.4" stroke-linecap="round"/>
<line x1="1.2" y1="-1.2" x2="351.8" y2="-1.2" transform="matrix(1 0 0 -1 1050 52)" stroke="url(#paint2_linear_1_787)" stroke-width="2.4" stroke-linecap="round"/>
<path d="M709 45L702 55L705 55L712 45L709 45Z" fill="#C54FF4"/>
<path d="M716 45L709 55L712 55L719 45L716 45Z" fill="#680092"/>
<path d="M723 45L716 55L719 55L726 45L723 45Z" fill="#C54FF4"/>
<path d="M730 45L723 55L726 55L733 45L730 45Z" fill="#C54FF4"/>
<path d="M1045 45L1052 55L1049 55L1042 45L1045 45Z" fill="#C54FF4"/>
<path d="M1038 45L1045 55L1042 55L1035 45L1038 45Z" fill="#680092"/>
<path d="M1031 45L1038 55L1035 55L1028 45L1031 45Z" fill="#C54FF4"/>
<path d="M1024 45L1031 55L1028 55L1021 45L1024 45Z" fill="#C54FF4"/>
<path d="M740 33L743 25H1011L1016 33" stroke="url(#paint3_linear_1_787)" stroke-width="2.4" stroke-linecap="round"/>
<path d="M1006 54L1000 65H993L986 71H767M767 71L760 65H753L747 54" stroke="url(#paint4_linear_1_787)" stroke-width="2.4" stroke-linecap="round"/>
</g>
<path d="M748 52L727 52" stroke="#CF52FE" stroke-width="2.4" stroke-linecap="round"/>
<path d="M1007 53L1028 53" stroke="#CF52FE" stroke-width="2.4" stroke-linecap="round"/>
<line x1="702.8" y1="52.2" x2="1.20001" y2="52.1999" stroke="url(#paint5_linear_1_787)" stroke-width="2.4" stroke-linecap="round"/>
<line x1="1051.2" y1="52.8" x2="1758.8" y2="52.8" stroke="url(#paint6_linear_1_787)" stroke-width="2.4" stroke-linecap="round"/>
<path d="M710 44L703 54L706 54L713 44L710 44Z" fill="#C54FF4"/>
<path d="M717 44L710 54L713 54L720 44L717 44Z" fill="url(#paint7_linear_1_787)"/>
<path d="M724 44L717 54L720 54L727 44L724 44Z" fill="url(#paint8_linear_1_787)"/>
<path d="M731 44L724 54L727 54L734 44L731 44Z" fill="#C54FF4"/>
<path d="M1045 44L1052 54L1049 54L1042 44L1045 44Z" fill="#C54FF4"/>
<path d="M1038 44L1045 54L1042 54L1035 44L1038 44Z" fill="url(#paint9_linear_1_787)"/>
<path d="M1031 44L1038 54L1035 54L1028 44L1031 44Z" fill="url(#paint10_linear_1_787)"/>
<path d="M1024 44L1031 54L1028 54L1021 44L1024 44Z" fill="#C54FF4"/>
<path fill-rule="evenodd" clip-rule="evenodd" d="M743 23H1012L1017 32C1017 32 1017.34 32.5745 1017 32L1010 25H745L740 32L743 23Z" fill="url(#paint11_linear_1_787)"/>
<path d="M1007 53L1001 64H994L987 70H768L761 64H754L748 53" stroke="url(#paint12_linear_1_787)" stroke-width="2.4" stroke-linecap="round"/>
<path d="M968 68L973 71L778 71L783 68L968 68Z" fill="url(#paint13_linear_1_787)"/>
<g style="mix-blend-mode:overlay" filter="url(#filter2_f_1_787)">
<ellipse cx="881" cy="25" rx="111" ry="10" fill="#E29BFE"/>
</g>
<defs>
<filter id="filter0_f_1_787" x="735" y="12" width="284" height="72" filterUnits="userSpaceOnUse" color-interpolation-filters="sRGB">
<feFlood flood-opacity="0" result="BackgroundImageFix"/>
<feBlend mode="normal" in="SourceGraphic" in2="BackgroundImageFix" result="shape"/>
<feGaussianBlur stdDeviation="6" result="effect1_foregroundBlur_1_787"/>
</filter>
<filter id="filter1_f_1_787" x="341.4" y="14.2" width="1071.2" height="67.6" filterUnits="userSpaceOnUse" color-interpolation-filters="sRGB">
<feFlood flood-opacity="0" result="BackgroundImageFix"/>
<feBlend mode="normal" in="SourceGraphic" in2="BackgroundImageFix" result="shape"/>
<feGaussianBlur stdDeviation="4.8" result="effect1_foregroundBlur_1_787"/>
</filter>
<filter id="filter2_f_1_787" x="755.6" y="0.599999" width="250.8" height="48.8" filterUnits="userSpaceOnUse" color-interpolation-filters="sRGB">
<feFlood flood-opacity="0" result="BackgroundImageFix"/>
<feBlend mode="normal" in="SourceGraphic" in2="BackgroundImageFix" result="shape"/>
<feGaussianBlur stdDeviation="7.2" result="effect1_foregroundBlur_1_787"/>
</filter>
<linearGradient id="paint0_linear_1_787" x1="898.669" y1="69.6206" x2="899.257" y2="23.2759" gradientUnits="userSpaceOnUse">
<stop stop-color="#CC51FA"/>
<stop offset="1" stop-color="#CD51FC" stop-opacity="0"/>
</linearGradient>
<linearGradient id="paint1_linear_1_787" x1="704" y1="52" x2="409.653" y2="52" gradientUnits="userSpaceOnUse">
<stop stop-color="#CF52FE"/>
<stop offset="1" stop-color="#CF52FE" stop-opacity="0"/>
</linearGradient>
<linearGradient id="paint2_linear_1_787" x1="0" y1="0" x2="294.347" y2="-1.38998e-05" gradientUnits="userSpaceOnUse">
<stop stop-color="#CF52FE"/>
<stop offset="1" stop-color="#CF52FE" stop-opacity="0"/>
</linearGradient>
<linearGradient id="paint3_linear_1_787" x1="1012.17" y1="25" x2="740" y2="25" gradientUnits="userSpaceOnUse">
<stop stop-color="#CF52FE"/>
<stop offset="0.5" stop-color="#E59FFF"/>
<stop offset="1" stop-color="#CF52FE"/>
</linearGradient>
<linearGradient id="paint4_linear_1_787" x1="1002.4" y1="54" x2="747" y2="54" gradientUnits="userSpaceOnUse">
<stop stop-color="#CF52FE"/>
<stop offset="0.5" stop-color="#E59FFF"/>
<stop offset="1" stop-color="#CF52FE"/>
</linearGradient>
<linearGradient id="paint5_linear_1_787" x1="704" y1="51" x2="116.974" y2="51" gradientUnits="userSpaceOnUse">
<stop stop-color="#CF52FE"/>
<stop offset="1" stop-color="#CF52FE" stop-opacity="0"/>
</linearGradient>
<linearGradient id="paint6_linear_1_787" x1="1050" y1="54" x2="1642.03" y2="53.9999" gradientUnits="userSpaceOnUse">
<stop stop-color="#CF52FE"/>
<stop offset="1" stop-color="#CF52FE" stop-opacity="0"/>
</linearGradient>
<linearGradient id="paint7_linear_1_787" x1="720" y1="44" x2="712.187" y2="55.875" gradientUnits="userSpaceOnUse">
<stop stop-color="#C54FF4"/>
<stop offset="1" stop-color="#C54FF4" stop-opacity="0"/>
</linearGradient>
<linearGradient id="paint8_linear_1_787" x1="727" y1="44" x2="719.187" y2="55.875" gradientUnits="userSpaceOnUse">
<stop stop-color="#C54FF4"/>
<stop offset="1" stop-color="#C54FF4" stop-opacity="0"/>
</linearGradient>
<linearGradient id="paint9_linear_1_787" x1="1035" y1="44" x2="1042.81" y2="55.875" gradientUnits="userSpaceOnUse">
<stop stop-color="#C54FF4"/>
<stop offset="1" stop-color="#C54FF4" stop-opacity="0"/>
</linearGradient>
<linearGradient id="paint10_linear_1_787" x1="1028" y1="44" x2="1035.81" y2="55.875" gradientUnits="userSpaceOnUse">
<stop stop-color="#C54FF4"/>
<stop offset="1" stop-color="#C54FF4" stop-opacity="0"/>
</linearGradient>
<linearGradient id="paint11_linear_1_787" x1="1012.03" y1="24.2235" x2="741.192" y2="24.2235" gradientUnits="userSpaceOnUse">
<stop offset="0.125" stop-color="#CF52FE"/>
<stop offset="0.5" stop-color="#E59FFF"/>
<stop offset="1" stop-color="#CF52FE"/>
</linearGradient>
<linearGradient id="paint12_linear_1_787" x1="1003.4" y1="53" x2="748" y2="53" gradientUnits="userSpaceOnUse">
<stop stop-color="#CF52FE"/>
<stop offset="0.5" stop-color="#E59FFF"/>
<stop offset="1" stop-color="#CF52FE"/>
</linearGradient>
<linearGradient id="paint13_linear_1_787" x1="970.292" y1="68" x2="778" y2="68" gradientUnits="userSpaceOnUse">
<stop stop-color="#CF52FE"/>
<stop offset="0.5" stop-color="#E59FFF"/>
<stop offset="1" stop-color="#CF52FE"/>
</linearGradient>
</defs>
</svg>
