<svg width="354" height="349" viewBox="0 0 354 349" fill="none" xmlns="http://www.w3.org/2000/svg">
<path d="M132.239 44.48C131.599 45.12 131.919 45.76 133.199 46.4C134.692 47.04 135.439 46.6133 135.439 45.12C135.439 44.0533 135.012 43.4133 134.159 43.2C133.519 42.9867 132.879 43.4133 132.239 44.48ZM137.359 48.64C136.505 48.64 136.079 48.96 136.079 49.6C136.079 50.0267 136.292 50.6667 136.719 51.52C137.145 52.3733 137.572 53.0133 137.999 53.44L138.639 54.08C138.852 54.08 138.959 53.6533 138.959 52.8C138.959 51.9467 138.852 51.0933 138.639 50.24C138.425 49.1733 137.999 48.64 137.359 48.64ZM109.839 58.56C112.825 60.0533 115.065 60.0533 116.559 58.56C117.199 58.1333 117.519 57.7067 117.519 57.28C117.519 56.2133 115.919 55.68 112.719 55.68C109.519 55.68 107.919 56.1067 107.919 56.96C107.919 57.6 108.559 58.1333 109.839 58.56ZM142.799 70.72C141.945 70.72 141.092 70.9333 140.239 71.36C139.599 71.7867 139.172 72.1067 138.959 72.32C138.959 72.96 139.919 73.28 141.839 73.28C144.185 73.28 145.359 72.8533 145.359 72C145.572 71.1467 144.719 70.72 142.799 70.72ZM105.039 226.88C105.252 227.093 105.679 227.2 106.319 227.2L107.279 227.52C108.559 227.307 109.412 226.667 109.839 225.6C109.625 224.96 108.985 224.853 107.919 225.28C106.425 225.92 105.465 226.453 105.039 226.88ZM115.919 212.48C116.985 212.48 118.052 212.053 119.119 211.2C118.905 210.987 118.265 210.987 117.199 211.2C115.705 212.053 115.279 212.48 115.919 212.48ZM123.599 134.4C125.519 133.973 127.225 133.333 128.719 132.48C129.572 131.84 129.359 131.733 128.079 132.16C127.439 132.16 126.692 132.373 125.839 132.8L122.639 134.72C122.852 134.72 123.172 134.613 123.599 134.4ZM169.359 130.56C170.212 129.493 170.425 128.533 169.999 127.68C169.785 127.04 169.145 126.933 168.079 127.36C166.585 128 166.372 128.96 167.439 130.24C168.292 131.307 168.932 131.413 169.359 130.56ZM143.119 128.32C142.692 126.613 142.052 125.973 141.199 126.4C140.345 126.613 140.132 127.893 140.559 130.24C140.985 132.16 141.519 133.013 142.159 132.8C142.372 132.587 142.585 132.053 142.799 131.2C143.225 130.347 143.332 129.387 143.119 128.32ZM160.079 157.44C160.932 158.72 161.679 159.253 162.319 159.04C162.959 158.613 163.065 156.8 162.639 153.6C161.999 150.4 161.252 149.013 160.399 149.44C159.972 149.653 159.545 150.187 159.119 151.04C158.052 152.96 158.372 155.093 160.079 157.44ZM164.559 126.72C164.559 126.293 163.919 125.973 162.639 125.76C161.999 125.76 161.252 125.973 160.399 126.4C159.545 126.613 159.119 126.933 159.119 127.36L160.079 127.68C160.505 127.893 161.145 128.107 161.999 128.32C162.852 128.533 163.492 128.533 163.919 128.32C164.559 128.107 164.772 127.573 164.559 126.72ZM126.159 127.68C126.159 127.467 126.052 127.04 125.839 126.4L125.519 125.44C124.879 124.373 124.132 124.16 123.279 124.8C122.852 125.44 122.959 126.08 123.599 126.72C124.879 127.573 125.732 127.893 126.159 127.68ZM111.759 130.88C111.119 130.027 110.372 129.493 109.519 129.28C109.305 129.707 109.519 130.24 110.159 130.88C111.439 131.52 111.972 131.52 111.759 130.88ZM56.3988 194.56C55.1188 193.28 53.8388 192.32 52.5588 191.68C51.7054 191.467 51.7054 191.787 52.5588 192.64C52.7721 193.067 53.3054 193.493 54.1588 193.92L56.7188 195.2C56.7188 194.987 56.6121 194.773 56.3988 194.56ZM33.0388 157.12C31.9721 157.333 31.2254 157.973 30.7988 159.04C30.5854 159.893 30.7988 160.64 31.4388 161.28C32.5054 161.92 33.2521 161.28 33.6788 159.36C33.8921 157.653 33.6788 156.907 33.0388 157.12ZM43.5988 182.4C42.5321 184.533 42.3188 185.813 42.9588 186.24C43.3854 186.667 44.3454 185.6 45.8387 183.04C46.9054 181.12 47.2254 179.947 46.7988 179.52C46.5854 179.307 46.0521 179.52 45.1988 180.16C44.5588 180.8 44.0254 181.547 43.5988 182.4ZM55.1188 141.12C55.5454 139.413 55.5454 138.347 55.1188 137.92C54.4788 137.493 53.3054 138.987 51.5988 142.4C49.6788 145.6 49.0388 147.52 49.6788 148.16C49.8921 148.373 50.4254 148.267 51.2788 147.84C52.9854 147.2 54.2654 144.96 55.1188 141.12ZM32.7188 164.8C32.2921 165.44 32.3988 166.293 33.0388 167.36C33.2521 168 33.6788 168.533 34.3188 168.96C34.7454 169.387 35.1721 169.493 35.5988 169.28L35.2787 168C35.2787 167.36 35.1721 166.613 34.9588 165.76C34.5321 164.693 34.2121 164.053 33.9988 163.84C33.5721 163.627 33.1454 163.947 32.7188 164.8ZM80.7188 125.76L86.1588 124.8C88.5054 124.587 91.0654 124.16 93.8388 123.52L95.4388 123.2L97.0388 122.88C98.1054 122.667 98.9588 122.453 99.5988 122.24C111.119 120.32 118.692 119.36 122.319 119.36C125.732 119.147 129.572 119.893 133.839 121.6C135.545 122.24 137.252 122.773 138.959 123.2C138.319 118.72 137.359 112.96 136.079 105.92C133.092 87.36 131.599 77.12 131.599 75.2C131.599 74.1333 132.559 73.3867 134.479 72.96H134.799L136.719 72.64C136.505 72.4267 135.759 72.2133 134.479 72C132.345 71.36 130.852 69.0133 129.999 64.96L128.719 59.2L125.199 63.68C122.425 67.7333 120.292 69.76 118.799 69.76C118.159 69.76 117.625 69.6533 117.199 69.44L115.919 69.12C115.919 69.5467 116.345 70.08 117.199 70.72C117.412 70.72 117.519 71.1467 117.519 72C117.519 74.1333 108.452 87.68 90.3188 112.64C86.9054 117.547 83.7054 121.92 80.7188 125.76ZM142.159 138.56C141.945 139.84 141.519 140.693 140.879 141.12C139.172 141.973 132.665 143.467 121.359 145.6C110.265 148.16 104.505 149.227 104.079 148.8C103.865 148.8 103.652 148.693 103.439 148.48C102.799 148.693 102.159 148.907 101.519 149.12C74.8521 155.093 60.7721 157.44 59.2788 156.16C58.6388 155.947 58.3188 155.52 58.3188 154.88C58.5321 154.24 58.5321 153.707 58.3188 153.28C58.3188 153.493 58.2121 153.6 57.9988 153.6L57.6788 154.24C57.6788 154.88 57.4654 155.627 57.0388 156.48C56.1854 157.973 53.6254 159.147 49.3588 160L44.2388 161.28L47.4388 166.08C49.5721 169.067 50.2121 171.84 49.3588 174.4L48.0788 177.28L49.6788 175.36V175.04C50.9588 173.12 52.0254 172.373 52.8788 172.8C54.1588 173.867 58.1054 178.347 64.7188 186.24C71.3321 194.133 74.6388 198.4 74.6388 199.04C74.8521 200.533 74.4254 202.56 73.3588 205.12C72.9321 205.76 72.5054 206.507 72.0788 207.36C71.4388 208.853 69.8388 209.707 67.2788 209.92C64.5054 209.707 58.3188 211.307 48.7188 214.72L47.1188 208.96C46.6921 209.173 43.9188 205.76 38.7988 198.72C33.8921 191.68 30.3721 186.773 28.2388 184C22.6921 177.173 17.0387 169.92 11.2787 162.24C6.15875 155.413 3.06542 151.04 1.99875 149.12C0.932082 146.987 0.718748 144.96 1.35875 143.04C1.99875 140.053 2.95875 138.347 4.23875 137.92C5.73208 137.067 11.9187 135.893 22.7987 134.4C33.6788 132.693 39.8654 131.84 41.3588 131.84C42.8521 132.267 44.5588 132.053 46.4788 131.2C47.7588 130.56 50.8521 129.813 55.7588 128.96C57.0388 124.48 58.4254 120.747 59.9188 117.76C61.8388 114.133 66.5321 106.667 73.9988 95.36C76.5588 91.52 79.4388 87.1467 82.6388 82.24C85.8388 77.3333 89.0388 72.4267 92.2388 67.52C95.4388 62.6133 97.3588 59.6267 97.9988 58.56C103.332 50.0267 106.745 45.0133 108.239 43.52C109.945 42.0267 111.012 40.32 111.439 38.4C112.292 36.9067 116.132 30.8267 122.959 20.16C129.785 9.49333 133.839 3.62666 135.119 2.56C136.185 1.49333 137.785 1.38666 139.919 2.23999C141.625 2.87999 142.799 4.37333 143.439 6.72C144.292 9.06666 145.572 14.9333 147.279 24.32C148.985 34.7733 150.479 45.0133 151.759 55.04C153.252 65.0667 155.492 77.8667 158.479 93.44C159.972 103.253 161.145 109.227 161.999 111.36C162.212 112 162.425 112.533 162.639 112.96C170.105 111.467 177.679 110.08 185.359 108.8C194.532 107.307 200.292 106.56 202.639 106.56C204.985 106.56 206.585 107.2 207.439 108.48C208.719 110.4 208.932 112.107 208.079 113.6C207.225 115.307 202.425 121.387 193.679 131.84C185.145 142.293 180.132 148.053 178.639 149.12C177.145 150.4 175.865 152.107 174.799 154.24C173.732 156.16 169.572 161.173 162.319 169.28C161.252 170.56 158.799 173.547 154.959 178.24L143.119 192.64C141.199 194.773 139.172 197.227 137.039 200L135.759 201.6L134.479 202.88C133.625 204.16 132.879 205.12 132.239 205.76C123.279 216.853 117.199 224.107 113.999 227.52C111.012 230.507 106.959 233.493 101.839 236.48C95.2254 240.96 89.7854 245.867 85.5188 251.2C81.4654 256.747 72.7188 269.973 59.2788 290.88C45.8388 312.213 39.0121 324.267 38.7988 327.04C38.3721 329.813 35.3854 334.187 29.8388 340.16L21.5187 348.48L20.8787 344.64C20.4521 342.72 21.3054 338.88 23.4387 333.12C25.5721 327.573 27.4921 324.48 29.1988 323.84C30.6921 323.2 38.6921 312 53.1988 290.24C62.1588 276.8 68.2388 267.307 71.4388 261.76C74.6388 256.427 76.7721 251.733 77.8388 247.68C79.3321 243.2 81.7854 238.293 85.1988 232.96C88.8254 227.84 98.2121 215.253 113.359 195.2C133.199 168.96 144.185 155.307 146.319 154.24C146.959 154.027 147.492 154.027 147.919 154.24C148.559 154.88 149.092 155.093 149.519 154.88L148.879 153.92C148.452 153.493 148.239 152.96 148.239 152.32C148.025 150.827 149.519 147.947 152.719 143.68L156.239 138.88L150.479 139.2C147.065 139.84 144.825 139.413 143.759 137.92C143.119 138.133 142.585 138.347 142.159 138.56ZM311.541 80.32C306.848 75.2 303.541 72.64 301.621 72.64C299.488 72.8533 292.555 75.9467 280.821 81.92C269.088 87.8933 261.195 92.48 257.141 95.68C254.155 98.0267 250.528 102.933 246.261 110.4C242.208 117.653 239.648 123.84 238.581 128.96C238.368 129.387 238.261 130.027 238.261 130.88C238.261 133.44 241.248 136.96 247.221 141.44C253.195 145.92 257.888 148.16 261.301 148.16C262.155 148.16 264.715 147.947 268.981 147.52C284.128 146.027 296.715 142.507 306.741 136.96C316.768 131.413 322.421 124.8 323.701 117.12C323.915 116.053 324.021 114.453 324.021 112.32C324.021 106.987 322.848 101.333 320.501 95.36C318.155 89.3867 315.168 84.3733 311.541 80.32ZM309.301 49.28C329.995 48.2133 341.621 47.68 344.181 47.68C349.088 47.68 351.541 48.2133 351.541 49.28C351.541 50.9867 349.301 52.3733 344.821 53.44C339.061 55.1467 336.181 57.28 336.181 59.84C336.181 61.5467 337.568 65.3867 340.341 71.36C343.541 77.76 346.528 86.1867 349.301 96.64C352.075 106.88 353.461 114.347 353.461 119.04C353.461 119.467 353.355 119.893 353.141 120.32C353.141 120.747 353.141 121.067 353.141 121.28C352.288 124.693 348.555 130.24 341.941 137.92C335.328 145.6 329.141 151.573 323.381 155.84C309.941 165.653 291.915 171.307 269.301 172.8L249.461 173.76L230.901 157.76C223.221 151.147 218.101 146.347 215.541 143.36C213.195 140.373 212.021 136.96 212.021 133.12C212.021 129.493 212.981 124.48 214.901 118.08C220.661 96.1067 232.395 79.36 250.101 67.84C259.275 61.8667 268.235 57.4933 276.981 54.72C285.728 51.9467 296.501 50.1333 309.301 49.28Z" fill="white"/>
</svg>
