<svg width="829" height="233" viewBox="0 0 829 233" fill="none" xmlns="http://www.w3.org/2000/svg">
<path d="M38.7525 68.72C38.7525 67.8667 39.9258 67.44 42.2725 67.44C44.8325 67.44 46.1125 67.8667 46.1125 68.72C46.1125 69.36 44.8325 69.68 42.2725 69.68C39.9258 69.68 38.7525 69.36 38.7525 68.72ZM54.4325 67.44C57.4192 67.44 58.9125 67.8667 58.9125 68.72C58.9125 69.36 57.2058 69.68 53.7925 69.68C50.8058 69.68 49.3125 69.36 49.3125 68.72C49.3125 67.8667 51.0192 67.44 54.4325 67.44ZM69.4725 165.68C69.4725 165.253 69.5792 165.04 69.7925 165.04C70.2192 165.04 70.4325 165.253 70.4325 165.68C70.4325 166.107 70.2192 166.32 69.7925 166.32C69.5792 166.32 69.4725 166.107 69.4725 165.68ZM76.8325 165.04C76.8325 164.613 77.3658 164.4 78.4325 164.4C81.4192 164.4 82.9125 164.827 82.9125 165.68C82.9125 166.107 82.0592 166.32 80.3525 166.32C78.0058 166.32 76.8325 165.893 76.8325 165.04ZM24.3525 123.76C33.3125 109.893 38.4325 101.893 39.7125 99.76C42.2725 95.92 45.1525 91.12 48.3525 85.36C50.9125 80.6667 54.6458 76.5067 59.5525 72.88C64.4592 69.2533 67.3392 67.44 68.1925 67.44L105.633 46C105.846 46 105.739 46.4267 105.313 47.28C105.099 48.3467 104.566 49.7333 103.713 51.44C103.073 53.1467 102.433 54.7467 101.793 56.24C81.9525 104.027 69.6858 134.32 64.9925 147.12C60.0858 159.707 57.0992 167.28 56.0325 169.84C54.5392 172.613 53.7925 176.133 53.7925 180.4C53.7925 183.387 54.0058 185.2 54.4325 185.84C54.6458 186.48 55.7125 186.8 57.6325 186.8C60.1925 186.8 64.5658 185.307 70.7525 182.32C74.8058 180.613 77.4725 179.227 78.7525 178.16C80.2458 177.093 81.3125 175.6 81.9525 173.68C94.3258 142.32 111.819 99.44 134.433 45.04C139.126 34.8 141.473 28.5067 141.473 26.16C141.473 25.9467 137.739 23.4933 130.273 18.8C124.513 14.96 120.993 13.04 119.713 13.04C119.073 13.04 118.113 13.4667 116.833 14.32C116.406 14.7467 109.473 19.5467 96.0325 28.72C82.5925 37.8933 75.5525 42.48 74.9125 42.48C74.6992 42.2667 74.6992 41.7333 74.9125 40.88C74.9125 40.0267 75.2325 38.8533 75.8725 37.36L77.1525 32.88C78.8592 28.4 79.7125 25.52 79.7125 24.24C79.7125 23.6 79.4992 23.1733 79.0725 22.96C77.5792 21.8933 73.6325 19.8667 67.2325 16.88C61.0458 13.8933 57.6325 12.4 56.9925 12.4C55.0725 12.4 46.3258 28.6133 30.7525 61.04C30.7525 61.8933 25.2058 72.24 14.1125 92.08L5.7925 106.8L8.3525 114.16C9.6325 117.573 10.2725 120.347 10.2725 122.48C10.2725 123.333 10.1658 123.867 9.9525 124.08C9.3125 125.787 8.9925 127.707 8.9925 129.84V131.76C8.9925 137.52 6.96583 143.173 2.9125 148.72C1.41917 150.853 1.09917 152.24 1.9525 152.88C3.44583 153.52 4.29917 153.84 4.5125 153.84C5.1525 153.84 11.7658 143.813 24.3525 123.76ZM232.735 78.32C228.042 73.2 224.735 70.64 222.815 70.64C220.682 70.8533 213.748 73.9467 202.015 79.92C190.282 85.8933 182.388 90.48 178.335 93.68C175.348 96.0267 171.722 100.933 167.455 108.4C163.402 115.653 160.842 121.84 159.775 126.96C159.562 127.387 159.455 128.027 159.455 128.88C159.455 131.44 162.442 134.96 168.415 139.44C174.388 143.92 179.082 146.16 182.495 146.16C183.348 146.16 185.908 145.947 190.175 145.52C205.322 144.027 217.908 140.507 227.935 134.96C237.962 129.413 243.615 122.8 244.895 115.12C245.108 114.053 245.215 112.453 245.215 110.32C245.215 104.987 244.042 99.3333 241.695 93.36C239.348 87.3867 236.362 82.3733 232.735 78.32ZM230.495 47.28C251.188 46.2133 262.815 45.68 265.375 45.68C270.282 45.68 272.735 46.2133 272.735 47.28C272.735 48.9867 270.495 50.3733 266.015 51.44C260.255 53.1467 257.375 55.28 257.375 57.84C257.375 59.5467 258.762 63.3867 261.535 69.36C264.735 75.76 267.722 84.1867 270.495 94.64C273.268 104.88 274.655 112.347 274.655 117.04C274.655 117.467 274.548 117.893 274.335 118.32C274.335 118.747 274.335 119.067 274.335 119.28C273.482 122.693 269.748 128.24 263.135 135.92C256.522 143.6 250.335 149.573 244.575 153.84C231.135 163.653 213.108 169.307 190.495 170.8L170.655 171.76L152.095 155.76C144.415 149.147 139.295 144.347 136.735 141.36C134.388 138.373 133.215 134.96 133.215 131.12C133.215 127.493 134.175 122.48 136.095 116.08C141.855 94.1067 153.588 77.36 171.295 65.84C180.468 59.8667 189.428 55.4933 198.175 52.72C206.922 49.9467 217.695 48.1333 230.495 47.28ZM444.795 77.04C451.195 75.12 455.248 73.9467 456.955 73.52C458.875 73.52 462.395 75.44 467.515 79.28C472.635 82.9067 475.195 85.36 475.195 86.64C475.195 88.1333 471.142 90.16 463.035 92.72C455.142 95.28 450.128 96.56 447.995 96.56H447.035H446.715C442.875 96.56 426.662 104.24 398.075 119.6C366.928 136.24 351.355 144.88 351.355 145.52C351.355 146.373 357.542 146.8 369.915 146.8C383.568 146.8 398.288 146.373 414.075 145.52C429.862 144.88 438.502 144.133 439.995 143.28C441.275 142.853 442.128 142.64 442.555 142.64C444.262 142.64 447.035 143.92 450.875 146.48C455.355 149.893 458.555 151.6 460.475 151.6C461.968 151.6 462.715 152.453 462.715 154.16C462.715 156.933 461.115 159.92 457.915 163.12C455.568 165.253 452.155 166.64 447.675 167.28C440.848 168.133 412.688 169.413 363.195 171.12C321.808 172.613 299.942 173.893 297.595 174.96C294.395 176.24 291.835 176.453 289.915 175.6C282.235 173.04 273.062 169.093 262.395 163.76C260.688 162.693 259.835 161.84 259.835 161.2C259.835 159.28 262.395 158.32 267.515 158.32C272.848 158.32 278.608 157.04 284.795 154.48C289.062 152.773 292.368 151.92 294.715 151.92C296.635 151.92 299.195 152.667 302.395 154.16C306.022 155.867 307.728 156.507 307.515 156.08C307.515 155.867 306.982 155.333 305.915 154.48C303.142 152.56 301.328 151.6 300.475 151.6C299.408 151.6 298.875 150.747 298.875 149.04C298.875 147.973 320.848 136.56 364.795 114.8C408.955 93.04 435.622 80.4533 444.795 77.04ZM570.888 44.4C570.248 45.04 570.674 45.68 572.168 46.32C573.661 46.96 574.408 46.5333 574.408 45.04C574.408 43.9733 573.981 43.3333 573.128 43.12C572.488 42.9067 571.741 43.3333 570.888 44.4ZM576.008 48.56C575.368 48.56 574.941 48.88 574.728 49.52C574.728 49.9467 574.941 50.5867 575.368 51.44C575.794 52.2933 576.221 52.9333 576.648 53.36L577.288 54C577.714 54 577.928 53.5733 577.928 52.72C577.928 51.8667 577.714 51.0133 577.288 50.16C577.074 49.0933 576.648 48.56 576.008 48.56ZM548.808 58.48C551.581 59.9733 553.714 59.9733 555.208 58.48C555.848 58.0533 556.168 57.6267 556.168 57.2C556.168 56.1333 554.568 55.6 551.368 55.6C548.168 55.6 546.568 56.0267 546.568 56.88C546.568 57.52 547.314 58.0533 548.808 58.48ZM581.768 70.64C580.701 70.64 579.741 70.8533 578.888 71.28C578.248 71.7067 577.928 72.0267 577.928 72.24C577.928 72.88 578.781 73.2 580.488 73.2C582.834 73.2 584.008 72.7733 584.008 71.92C584.221 71.0667 583.474 70.64 581.768 70.64ZM436.487 220.72C436.487 222.427 434.247 224.88 429.767 228.08C425.074 231.28 421.767 232.88 419.847 232.88H416.007L421.127 222.96C424.754 216.133 427.847 212.4 430.407 211.76C432.754 210.693 441.607 201.52 456.967 184.24C472.541 167.173 482.141 155.973 485.768 150.64C489.394 145.307 492.061 138.907 493.768 131.44C495.261 125.893 496.968 121.307 498.888 117.68C500.808 114.053 505.501 106.587 512.968 95.28C515.528 91.44 518.408 87.0667 521.608 82.16C524.808 77.2533 527.901 72.3467 530.888 67.44C534.088 62.5333 536.114 59.5467 536.968 58.48C542.088 49.9467 545.394 44.9333 546.888 43.44C548.594 41.9467 549.768 40.24 550.408 38.32C551.048 36.8267 554.781 30.7467 561.608 20.08C568.648 9.41333 572.701 3.54666 573.768 2.47999C575.048 1.41332 576.754 1.30666 578.888 2.15999C580.381 2.79999 581.448 4.29333 582.088 6.63999C582.941 8.98666 584.221 14.8533 585.928 24.24C587.634 34.6933 589.234 44.9333 590.728 54.96C592.221 64.9867 594.354 77.7867 597.128 93.36C598.834 103.173 600.008 109.147 600.648 111.28C601.501 113.2 602.674 114.16 604.168 114.16C605.661 114.16 606.408 114.373 606.408 114.8C606.408 115.44 604.381 117.573 600.328 121.2C595.421 126.107 592.221 130.053 590.728 133.04C589.234 135.6 587.848 136.88 586.568 136.88C585.928 136.88 585.288 136.773 584.648 136.56C582.514 136.133 581.021 135.493 580.168 134.64C579.741 134.213 578.034 124.72 575.048 106.16C572.061 87.3867 570.568 77.04 570.568 75.12C570.568 74.0533 571.528 73.3067 573.448 72.88L575.688 72.56C575.261 72.3467 574.514 72.1333 573.448 71.92C571.101 71.28 569.608 68.9333 568.968 64.88L567.688 59.12L563.848 63.6C561.074 67.6533 558.941 69.68 557.448 69.68C556.808 69.68 556.274 69.5733 555.848 69.36L554.568 69.04C554.568 69.4667 554.994 70 555.848 70.64C556.274 70.64 556.488 71.0667 556.488 71.92C556.274 74.0533 547.101 87.6 528.968 112.56C515.314 131.333 506.568 142.96 502.728 147.44C499.101 151.92 495.368 155.333 491.528 157.68C488.114 159.6 484.381 162.587 480.328 166.64C476.488 170.907 469.768 178.8 460.167 190.32C444.594 208.88 436.701 219.013 436.487 220.72ZM703.145 125.68C704.638 126.533 705.812 126.427 706.665 125.36C707.305 124.72 707.092 124.4 706.025 124.4C705.598 124.4 705.065 124.4 704.425 124.4C703.358 124.4 702.612 124.507 702.185 124.72C701.972 124.933 702.292 125.253 703.145 125.68ZM689.065 128.24C694.825 128.24 697.705 127.6 697.705 126.32C697.705 125.04 694.825 124.4 689.065 124.4C683.092 124.4 680.105 125.04 680.105 126.32C680.105 127.6 683.092 128.24 689.065 128.24ZM671.465 126C670.612 124.72 668.478 124.293 665.065 124.72C648.852 125.787 639.998 127.067 638.505 128.56C638.078 128.987 637.865 129.307 637.865 129.52C637.865 130.16 640.745 130.48 646.505 130.48H654.825C666.132 129.84 671.785 128.56 671.785 126.64C671.785 126.427 671.678 126.32 671.465 126.32C671.465 126.32 671.465 126.213 671.465 126ZM705.385 79.6C706.878 79.6 707.625 78.96 707.625 77.68C707.625 76.4 707.305 75.76 706.665 75.76C706.025 75.76 705.385 76.5067 704.745 78C704.318 79.0667 704.532 79.6 705.385 79.6ZM658.665 79.6C660.158 79.6 660.905 78.96 660.905 77.68C660.905 76.4 660.158 75.76 658.665 75.76C657.385 75.76 656.745 76.4 656.745 77.68C656.745 78.96 657.385 79.6 658.665 79.6ZM700.585 73.52C701.225 73.52 701.545 73.2 701.545 72.56C701.545 71.92 701.225 71.6 700.585 71.6C699.945 71.6 699.625 71.92 699.625 72.56C699.625 73.2 699.945 73.52 700.585 73.52ZM694.825 73.52C697.172 72.6667 697.172 72.24 694.825 72.24C694.185 72.24 693.225 72.24 691.945 72.24C687.892 72.24 683.945 72.6667 680.105 73.52C677.332 74.3733 676.905 74.9067 678.825 75.12H683.305C688.425 75.12 692.265 74.5867 694.825 73.52ZM767.145 135.92C766.505 135.92 743.572 140.827 698.345 150.64C653.332 160.453 630.718 165.36 630.505 165.36C629.652 165.36 625.385 161.947 617.705 155.12C610.025 148.293 606.185 144.453 606.185 143.6C606.185 142.32 612.052 133.253 623.785 116.4L641.705 91.12H649.705C650.345 91.12 651.838 91.12 654.185 91.12C656.745 90.9067 658.878 90.8 660.585 90.8C662.078 90.8 664.425 90.9067 667.625 91.12C671.038 91.12 673.598 91.12 675.305 91.12H682.985C688.318 91.12 690.985 90.6933 690.985 89.84C690.985 89.4133 690.665 88.88 690.025 88.24C688.318 86.5333 683.732 85.68 676.265 85.68H668.265H662.505C652.692 85.68 647.785 85.36 647.785 84.72C647.785 83.0133 654.398 72.88 667.625 54.32L688.745 24.56L728.745 25.84C760.958 26.6933 784.212 27.44 798.505 28.08L828.265 29.36C824.212 34.9067 820.052 41.2 815.785 48.24H786.345C772.905 48.24 764.372 48.4533 760.745 48.88C757.332 49.3067 754.878 50.3733 753.385 52.08C751.678 53.7867 749.438 54.96 746.665 55.6C744.105 56.0267 738.452 56.24 729.705 56.24H709.545L706.665 62L703.465 67.76H745.705H760.425C770.665 67.76 777.492 67.9733 780.905 68.4C784.318 68.8267 786.025 69.7867 786.025 71.28C786.025 71.92 784.318 75.12 780.905 80.88C778.345 85.1467 774.825 87.8133 770.345 88.88C766.078 89.7333 748.692 92.08 718.185 95.92C698.985 98.2667 687.998 100.293 685.225 102C683.732 102.853 681.705 105.733 679.145 110.64C675.945 116.4 674.345 120.027 674.345 121.52C674.345 121.947 674.878 122.16 675.945 122.16C678.718 122.16 697.918 119.28 733.545 113.52C759.785 109.253 774.078 107.12 776.425 107.12C777.918 107.12 778.772 107.333 778.985 107.76C779.412 108.187 779.625 108.827 779.625 109.68C779.625 111.387 777.705 116.187 773.865 124.08C770.238 131.973 767.998 135.92 767.145 135.92Z" fill="white"/>
</svg>
