<svg width="22" height="30" viewBox="0 0 22 30" fill="none" xmlns="http://www.w3.org/2000/svg">
<path d="M18.1474 26.0909L18.1476 26.091L20.9647 28.0577L20.8986 24.3997L20.8986 24.3996L20.8052 19.2565L16.1354 15.5925L16.1353 15.5925C14.7502 14.5055 13.4437 13.49 12.4551 12.7297C11.9605 12.3493 11.5472 12.0343 11.2442 11.8066C11.2056 11.7776 11.1697 11.7507 11.1362 11.7257C10.8469 11.8902 10.4425 12.1457 9.94319 12.4819C8.90468 13.1814 7.51796 14.188 6.03794 15.3319L6.03789 15.332L1 19.2251L1 24.3526L1 27.9917L1.29796 27.772L1.29798 27.772C2.34729 26.9983 4.81498 25.2325 6.78419 23.8456L6.78427 23.8456L10.3618 21.3266L10.9596 20.9057L11.542 21.3476L12.6476 22.1867C13.237 22.6334 15.7079 24.3884 18.1474 26.0909ZM11.4609 11.5594C11.4607 11.5595 11.4595 11.5599 11.457 11.5608C11.4597 11.5599 11.461 11.5594 11.4609 11.5594ZM17.6596 9.47149L17.5667 5.99962L14.5062 3.54699C13.5752 2.80111 12.686 2.12367 12.0062 1.63444C11.7094 1.42088 11.4599 1.2485 11.2681 1.12361C11.1071 1.22222 10.9053 1.35249 10.6688 1.51061C10.0591 1.91832 9.2658 2.4798 8.45079 3.07727C7.63656 3.67417 6.80931 4.30061 6.13206 4.83671C5.5072 5.33133 5.06211 5.70874 4.85492 5.91255C4.84817 5.93388 4.83966 5.96322 4.83 6.00194C4.78988 6.16279 4.74873 6.40632 4.71308 6.74449C4.64218 7.41696 4.60272 8.36651 4.60272 9.5754L4.60272 11.3955L5.44682 10.7823L5.44696 10.7822C6.78459 9.81084 8.48766 8.5764 9.2325 8.03943C9.23254 8.0394 9.23258 8.03938 9.23261 8.03935L10.5835 7.06518L11.1684 6.64339L11.7533 7.06518L13.1044 8.03943L13.1044 8.03948C13.8487 8.57633 15.559 9.81599 16.9051 10.7936L16.9051 10.7937L17.7105 11.3787L17.6596 9.47149Z" stroke="#11E5B3" stroke-width="2"/>
</svg>
