<svg width="" height="" viewBox="0 0 163 83" fill="none" xmlns="http://www.w3.org/2000/svg">
<path d="M5 14L9.44807 9.55193C9.80147 9.19853 10.2808 9 10.7805 9H20H40.6195C40.8706 9 41.1192 9.05021 41.3507 9.14767L59.6493 16.8523C59.8808 16.9498 60.1294 17 60.3805 17H152.219C152.719 17 153.199 17.1985 153.552 17.5519L158 22L162.563 27.4759C162.845 27.8145 163 28.2414 163 28.6822V39V81.1156C163 82.1563 162.156 83 161.116 83H11.5705C11.1985 83 10.8348 82.8899 10.5253 82.6835L5 79L0.707222 75.5658C0.260216 75.2082 0 74.6668 0 74.0943V18.9057C0 18.3332 0.260215 17.7918 0.707222 17.4342L5 14Z" fill="url(#paint0_linear_1_2713)" fill-opacity="0.8"/>
<path d="M5.58859 14.7357L5.62933 14.7031L5.66623 14.6662L10.1143 10.2182C10.291 10.0415 10.5307 9.9422 10.7805 9.9422H20H40.6195C40.745 9.9422 40.8694 9.9673 40.9851 10.016L59.2837 17.7207C59.6309 17.8669 60.0038 17.9422 60.3805 17.9422H152.219C152.469 17.9422 152.709 18.0415 152.886 18.2182L157.304 22.636L161.839 28.0791C161.981 28.2484 162.058 28.4618 162.058 28.6822V39V81.1156C162.058 81.636 161.636 82.0578 161.116 82.0578H11.5705C11.3845 82.0578 11.2027 82.0027 11.0479 81.8996L5.55664 78.2387L1.29581 74.83C1.07231 74.6512 0.942196 74.3805 0.942196 74.0943V18.9057C0.942196 18.6195 1.0723 18.3488 1.29581 18.17L5.58859 14.7357Z" stroke="#11E5B3" stroke-width="1.88439"/>
<mask id="mask0_1_2713" style="mask-type:alpha" maskUnits="userSpaceOnUse" x="26" y="0" width="137" height="13">
<path d="M43 0H163V13H84L60 12H48L26 8L43 0Z" fill="#D9D9D9"/>
</mask>
<g mask="url(#mask0_1_2713)">
<path fill-rule="evenodd" clip-rule="evenodd" d="M109 5C108.375 5.58476 110.91 5 131 5C150.463 5 154.394 5.56672 155 5C155.625 4.41524 153.09 4 133 4C113.537 4 109.606 4.43328 109 5ZM157 6L156 7H132H109L106 9L104 11H89H74L72 10L71 9H33H-4L-7 11L-9 13H-42H-74L-76 12C-77.5152 11.2005 -77.4319 10.5993 -77 10C-76.5998 9.44516 -76.8964 8.46168 -78 7L-80 5H-83H-86L-88 7L-89 9L-88 11L-86 13H-83C-81.2184 13 -79.3276 13.2543 -79 13C-78.5834 12.6766 -77.8122 12.252 -76 13L-73 14H-41H-9L-7 12L-4 10H33H70L71 11L73 12H89H105L108 10L110 8H133H156L157 10C157.685 10.8118 158.595 11 160 11C161.564 11 161.239 10.1418 162 9C162.85 7.72356 162.828 7.34816 162 6C161.231 4.7482 160.687 5 159 5C157.514 5 157.697 5.17412 157 6ZM82 9C81.3481 9.60984 82.0617 9 92 9C98.7811 9 102.786 9.26928 103 9C103.228 8.71312 100.46 8 94 8C88.551 8 83.4433 8.13244 83 8C82.5567 7.868 82.3996 8.626 82 9ZM11 13C10.1101 13.8325 11.5245 15.2204 13 15C14.5809 14.7637 14.5956 12.1769 13 12C12.3493 11.9278 11.3571 12.666 11 13ZM17 13C16.5034 14.0036 16.7898 15 18 15C19.4058 15 20.4501 13.9099 20 13C19.5556 12.1006 17.437 12.1152 17 13ZM22 13C21.4717 14.0692 21.5835 15 23 15C24.3474 15 25.687 13.8628 25 13C24.4558 12.3171 22.3673 12.2582 22 13ZM27 13C26.1101 13.8325 27.5245 15.2204 29 15C30.5809 14.7637 30.5956 12.1769 29 12C28.3493 11.9278 27.3571 12.666 27 13ZM33 13C32.398 13.7559 32.9196 15 34 15C35.357 15 36.4427 13.8954 36 13C35.6117 12.2146 33.564 12.292 33 13ZM38 13C37.4745 14.0635 37.6033 15 39 15C40.3967 15 41.5255 14.0635 41 13C40.8203 12.637 39.7125 12 39 12C38.2875 12 38.1797 12.637 38 13ZM43 13C42.1101 13.8325 43.5245 15.2204 45 15C46.5809 14.7637 46.5956 12.1769 45 12C44.3493 11.9278 43.3571 12.666 43 13Z" fill="#11E5B3"/>
</g>
<defs>
<linearGradient id="paint0_linear_1_2713" x1="94.6907" y1="78.5506" x2="84.2114" y2="8.74774" gradientUnits="userSpaceOnUse">
<stop stop-color="#008969"/>
<stop offset="1" stop-color="#0C1E30" stop-opacity="0.68"/>
</linearGradient>
</defs>
<text x="17" y="34" font-size="10" font-family="Font_Over" font-weight="500" fill="#11E5B3">
    ДОБРО ПОЖАЛОВАТЬ
</text>
<text x="21" y="45" font-size="9.5" font-family="Font_Over" font-weight="500" fill="#11E5B3">
    В СИСТЕМУ LOKTAR
</text>
<text x="30" y="60" font-size="8.5" font-family="Exo_2" font-weight="400" fill="#11E5B3">
    Сервис,меняющий день 
</text>
<text x="55" y="70" font-size="8.5" font-family="Exo_2" font-weight="400" fill="#11E5B3">
    таргетолога
</text>
</svg>
