<svg width="138" height="29" viewBox="0 0 138 29" fill="none" xmlns="http://www.w3.org/2000/svg">
<path d="M7 0L0 15L7 29H13L5 15L13 0L7 0ZM54 0L47 15L54 29H60L52 15L60 0L54 0ZM38 0L31 15L38 29L44 29L37 15L44 0L38 0ZM23 0L16 15L23 29H29L21 15L29 0L23 0ZM101 0L94 15L101 29L107 29L100 15L107 0L101 0ZM138 0L133 0L125 15L133 29H138L131 15L138 0ZM70 0L63 15L70 29L75 29L68 15L75 0L70 0ZM117 0L109 15L117 29H122L115 15L122 0L117 0ZM86 0L78 15L86 29H91L84 15L91 0L86 0Z" fill="url(#paint0_linear_1_1130)"/>
<defs>
<linearGradient id="paint0_linear_1_1130" x1="-0.0464881" y1="14.3865" x2="138.101" y2="14.3865" gradientUnits="userSpaceOnUse">
<stop stop-color="#11E5B3"/>
<stop offset="1" stop-color="#370B6B" stop-opacity="0.1"/>
</linearGradient>
</defs>
</svg>
