<svg width="31" height="19" viewBox="0 0 31 19" fill="none" xmlns="http://www.w3.org/2000/svg">
<path fill-rule="evenodd" clip-rule="evenodd" d="M12 0.999991C11.3571 1.06736 11.2573 0.870026 11 0.999991C10.7103 1.14633 10.1072 1.79374 10 1.99999C9.85374 1.94462 9.9166 2.16044 10 1.99999C9.94285 1.99999 10.0837 2.03164 10 1.99999C10.1544 1.99999 10.8513 2.84252 11 2.99999C11.354 3.37473 11.9993 4.42241 12 5.99999C12.0008 7.66534 11.3359 8.43374 11 8.99999C10.8427 9.26534 10.3722 9.16376 10 8.99999C9.62366 8.83436 9.46662 8.70582 9.00003 7.99999C8.52032 7.27435 7.5504 4.23914 7.00003 2.99999C6.57814 2.05014 6.4013 2.18235 6.00003 1.99999C5.74617 1.8846 5.25653 1.98624 3.00003 1.99999C1.66078 2.00815 1.12945 1.96636 1.00003 1.99999C0.664968 2.08718 3.05176e-05 1.70101 3.05176e-05 1.99999C3.05176e-05 2.57382 2.56868 7.69507 4.00003 9.99999C5.04242 11.6786 5.9942 12.8798 7.00003 14C7.93532 15.0416 9.64414 16.4604 11 17C12.2812 17.5099 13.0698 18.027 15 18C16.3416 17.9812 16.7431 18.142 17 18C17.3893 17.7849 17.9429 16.9259 18 16C18.0526 15.1489 17.7285 15.4256 18 15C18.3565 14.4412 18.5023 13.748 19 14C19.2752 14.1394 20.0065 14.9031 21 16C21.7899 16.8721 22.4134 17.7292 23 18C23.6807 18.3141 24.2898 18.0628 27 18C29.6447 17.9386 29.6155 18.3578 30 18C30.469 17.5635 30.0653 16.2955 29 15C28.5092 14.4031 27.4108 13.3789 26 12C24.8576 10.8833 25.001 11.463 25 11C24.9991 10.5917 25.5984 9.85166 27 7.99999C28.4867 6.03589 29.6216 4.75064 30 3.99999C30.6322 2.74639 30.6351 2.25281 30 1.99999C29.7871 1.91525 29.3284 1.99644 27 1.99999C25.5454 2.00221 24.1856 1.97435 24 1.99999C23.49 2.07051 23.3847 2.02969 23 2.99999C22.494 4.27627 20.9168 6.68263 20 7.99999C19.5862 8.59462 19.3147 8.8065 19 8.99999C18.6569 9.21091 18.2367 9.46576 18 8.99999C17.799 8.60421 17.9288 7.56868 18 4.99999C18.0713 2.42763 17.2302 2.5322 17 1.99999C16.7182 1.3483 16.4523 0.989617 14 0.999991C13.2267 1.00325 12.2561 0.973182 12 0.999991Z" fill="url(#paint0_linear_1_456)"/>
<defs>
<linearGradient id="paint0_linear_1_456" x1="7.40115" y1="18.1546" x2="19.3014" y2="-0.0558243" gradientUnits="userSpaceOnUse">
<stop stop-color="#11E5B3"/>
<stop offset="1" stop-color="#5263FE"/>
</linearGradient>
</defs>
</svg>
