<svg width="56" height="29" viewBox="0 0 56 29" fill="none" xmlns="http://www.w3.org/2000/svg">
<path fill-rule="evenodd" clip-rule="evenodd" d="M12.9279 0.834573C12.1898 0.898959 11.4237 1.00048 10.9117 1.10172C10.705 1.14267 10.4203 1.19309 10.2791 1.21387C10.1379 1.23472 10.0054 1.27914 9.98463 1.31266C9.96385 1.34619 9.87241 1.37358 9.78144 1.37358C9.63525 1.37358 8.78956 1.62308 8.41715 1.77611C8.34197 1.80697 8.20357 1.86414 8.1096 1.90318C7.68416 2.07957 6.56454 2.64092 6.35417 2.78325C6.22623 2.86978 6.09214 2.94064 6.05626 2.94064C6.02031 2.94064 5.99092 2.9713 5.99092 3.00878C5.99092 3.04625 5.96044 3.07691 5.92319 3.07691C5.83742 3.07691 5.01572 3.69999 4.3957 4.23518C3.9261 4.64057 2.50536 6.42219 2.50536 6.60581C2.50536 6.64471 2.47925 6.68682 2.44733 6.69935C2.33135 6.74473 1.51703 8.51225 1.33817 9.10671C1.29313 9.2566 1.23326 9.44056 1.20511 9.51551C1.15145 9.65879 1.06063 9.99135 0.935486 10.5034C0.717331 11.3956 0.561028 13.0567 0.560276 14.4892C0.559456 16.0735 0.70291 17.5706 0.970205 18.7668C1.03069 19.0373 1.09555 19.3352 1.11441 19.4289C1.13334 19.5226 1.17298 19.6606 1.20265 19.7355C1.23231 19.8105 1.34118 20.1324 1.44465 20.4509C1.7902 21.5146 2.57527 22.9979 3.24778 23.8576C3.6219 24.3358 4.54455 25.2653 5.0341 25.657C5.88349 26.3368 7.1821 27.0674 8.07543 27.3681C8.26337 27.4313 8.47866 27.5079 8.55384 27.5383C8.62902 27.5687 8.76742 27.6135 8.86139 27.6379C8.95536 27.6623 9.13989 27.7122 9.27145 27.7489C9.77112 27.8881 10.4198 28.0192 10.9801 28.0941C11.779 28.2009 15.7271 28.2473 16.4134 28.158C16.7142 28.1189 17.3139 28.0537 17.7462 28.0132C18.6957 27.9243 19.3173 27.8291 20.3433 27.6152C20.5124 27.5799 20.8353 27.5145 21.0609 27.4698C21.2864 27.4252 21.6247 27.3467 21.8127 27.2954C22.0006 27.2443 22.2313 27.183 22.3252 27.1595C22.4192 27.1359 22.5576 27.0923 22.6328 27.0626C22.708 27.0329 23.0463 26.9205 23.3846 26.8128L23.9997 26.617L24.0171 19.4703C24.0298 14.2461 24.0138 12.2988 23.9574 12.2312C23.8937 12.1546 22.889 12.1386 18.1178 12.1386C14.591 12.1386 12.3396 12.1635 12.3153 12.2028C12.2626 12.2877 12.2635 17.7824 12.3162 17.8674C12.3413 17.9079 13.2556 17.9313 14.6928 17.9281L17.0285 17.923L17.0467 19.8911L17.0648 21.8592L16.8075 21.9369C15.874 22.2186 13.051 22.2201 12.2444 21.9394C11.2363 21.5884 10.7143 21.2764 10.0916 20.6522C9.60334 20.1628 9.45373 19.9563 9.1539 19.3576C8.56853 18.1888 8.35967 17.3488 8.2357 15.6645C8.13639 14.3162 8.24178 12.7892 8.50948 11.6958C8.69066 10.956 8.73529 10.8323 9.07483 10.1287C9.78821 8.65042 10.8899 7.66773 12.3811 7.1797C12.7431 7.06121 13.1212 6.97202 13.6113 6.88945C14.3209 6.76987 16.2458 6.8577 17.4044 7.06237C17.8606 7.14297 19.0795 7.44759 19.1975 7.51048C19.2628 7.54523 19.3632 7.57371 19.4206 7.57371C19.478 7.57371 19.5784 7.60076 19.6437 7.63387C19.7089 7.66698 19.8392 7.72517 19.9332 7.76319C20.3237 7.92126 20.6596 8.06413 20.7956 8.13008C21.0572 8.25709 21.1706 8.17281 21.3388 7.72619C21.4271 7.49154 21.5432 7.20027 21.5968 7.07893C21.6503 6.95758 21.7332 6.751 21.7811 6.61984C21.829 6.48869 21.9403 6.21949 22.0284 6.02163C22.1164 5.82384 22.1885 5.63314 22.1885 5.59791C22.1885 5.56269 22.2501 5.42465 22.3252 5.29124C22.4004 5.15784 22.4619 5.01585 22.4619 4.97585C22.4619 4.93579 22.5112 4.79108 22.5714 4.65426C22.6316 4.51745 22.7044 4.34419 22.7331 4.26924C22.822 4.03745 22.9188 3.79974 22.9967 3.62198C23.1482 3.27668 23.4187 2.57497 23.4187 2.52762C23.4187 2.44817 22.8919 2.22647 22.0519 1.95244C21.6196 1.81147 21.2044 1.67288 21.1292 1.64454C21.054 1.6162 20.8234 1.55556 20.6166 1.50984C20.4099 1.46406 20.1177 1.39769 19.9674 1.36233C18.7333 1.07195 17.8516 0.938885 16.4476 0.83103C15.461 0.755266 13.8179 0.756901 12.9279 0.834573ZM38.1712 0.79308C38.1531 0.810999 37.7713 0.857602 37.3225 0.896506C36.5671 0.962119 35.9263 1.06977 35.2936 1.23751C35.1527 1.27485 34.9374 1.33229 34.8152 1.36506C33.6028 1.6906 32.123 2.42453 31.0392 3.2377C30.5317 3.6185 29.492 4.60371 29.0814 5.09304C28.4968 5.78957 27.6497 7.21655 27.2852 8.11878C27.2171 8.28741 27.1307 8.50203 27.0932 8.59571C27.0557 8.68939 26.9979 8.81925 26.9647 8.88432C26.9314 8.94939 26.9043 9.04948 26.9043 9.10671C26.9043 9.16394 26.8744 9.26403 26.838 9.3291C26.7762 9.43913 26.498 10.5509 26.3565 11.2529C26.1669 12.1938 26.1184 12.9042 26.1189 14.7277C26.1194 16.5729 26.1471 16.968 26.3649 18.2366C26.5031 19.0416 26.8229 20.341 26.9687 20.6894C27.0001 20.7643 27.1413 21.1136 27.2826 21.4656C27.7659 22.6693 28.4847 23.8035 29.3856 24.7837C30.3251 25.8058 31.8349 26.8187 33.1237 27.2915C33.4056 27.3949 33.6978 27.5043 33.7729 27.5345C34.2045 27.7078 35.2816 27.9501 36.2675 28.0955C36.99 28.2022 40.118 28.2415 40.7782 28.1523C42.0664 27.9782 42.8147 27.8581 43.2045 27.7628C43.43 27.7078 43.7222 27.6376 43.8537 27.6069C44.1337 27.5416 44.9888 27.279 45.1864 27.1975C45.2616 27.1666 45.5077 27.072 45.7332 26.9872C45.9587 26.9025 46.1817 26.8037 46.2287 26.7678C46.2948 26.7173 46.3141 26.0183 46.3141 23.6829C46.3141 21.9262 46.2879 20.6472 46.2515 20.6247C46.1999 20.593 45.6756 20.7657 44.9131 21.0657C42.688 21.9414 41.0299 22.2658 39.138 22.1955C37.8554 22.1478 37.4078 22.0364 36.4119 21.5169C35.8711 21.2348 35.0505 20.3963 34.703 19.7705C34.1835 18.8351 33.9154 17.9038 33.7321 16.397C33.6386 15.629 33.6911 12.6466 33.8064 12.1727C33.852 11.9853 33.9146 11.7247 33.9456 11.5936C34.4102 9.6235 35.3954 8.08246 36.613 7.42068C37.5008 6.93823 38.1577 6.80326 39.4113 6.84584C41.0084 6.90007 41.7667 7.07082 43.6553 7.80162C44.0911 7.97031 44.6066 8.18473 44.8008 8.27814C45.1134 8.42844 45.1657 8.43635 45.2557 8.34661C45.3116 8.29088 45.3573 8.20728 45.3573 8.16075C45.3573 8.11428 45.4168 7.95342 45.4896 7.80332C45.5623 7.65329 45.6434 7.44058 45.6698 7.33068C45.6963 7.22078 45.74 7.10018 45.7671 7.06271C45.7942 7.02524 45.9615 6.61133 46.139 6.14291C46.4503 5.32115 46.5123 5.16254 46.6522 4.83134C46.6878 4.74699 46.7977 4.46342 46.8964 4.20111C47.0968 3.66817 47.1905 3.4387 47.2776 3.26727C47.3817 3.0624 47.432 2.59998 47.35 2.59998C47.3087 2.59998 47.1126 2.52796 46.9142 2.43986C46.7157 2.35183 46.2919 2.18027 45.9724 2.05866C45.6529 1.93704 45.33 1.81358 45.2548 1.78435C44.9824 1.67847 43.6878 1.32057 43.2386 1.22702C42.4115 1.05464 41.9304 0.98801 40.3828 0.831508C39.6655 0.758946 38.2304 0.734008 38.1712 0.79308ZM50.7907 21.3366C50.7155 21.3689 50.5816 21.3973 50.4932 21.4C50.4047 21.4026 50.074 21.5254 49.7583 21.673C48.616 22.2066 48.0619 23.0772 47.9756 24.4738C47.8447 26.5933 48.8417 27.8409 51.018 28.2808C51.4946 28.3771 52.379 28.3747 52.7888 28.2759C54.4113 27.8847 55.2066 27.2007 55.5796 25.875C55.7142 25.3969 55.6904 23.8226 55.5434 23.4828C55.0484 22.3382 54.4729 21.7836 53.4561 21.4713C53.3058 21.4251 53.1121 21.3606 53.0258 21.3279C52.8249 21.2519 50.9716 21.2592 50.7907 21.3366Z" fill="url(#paint0_linear_1_498)"/>
<defs>
<linearGradient id="paint0_linear_1_498" x1="13.9436" y1="28.3515" x2="32.0314" y2="-2.84988" gradientUnits="userSpaceOnUse">
<stop stop-color="#11E5B3"/>
<stop offset="1" stop-color="#5263FE"/>
</linearGradient>
</defs>
</svg>
