<svg width="30" height="29" viewBox="0 0 30 29" fill="none" xmlns="http://www.w3.org/2000/svg">
<path fill-rule="evenodd" clip-rule="evenodd" d="M14 1.00019C12.6865 1.14994 11.9148 0.754226 11 1.00019C9.2333 1.4751 7.41571 2.89197 6.00002 4.00019C5.41109 4.46118 4.44947 5.45287 4.00002 6.00019C3.79292 6.2524 3.98919 6.98975 4.00002 7.00019C4.01091 7.01068 3.83313 6.06465 4.00002 6.00019C6.91787 4.87316 11.4053 5.00361 17 5.00019C19.763 4.99845 21.6606 4.70308 24 5.00019C24.4111 5.05237 25 5.01987 25 5.00019C25 4.98046 25.256 5.23615 25 5.00019C22.8719 3.03798 19.9294 1.44064 17 1.00019C16.435 0.915229 14.4623 0.947517 14 1.00019ZM15 7.00019C12.0923 7.16668 9.81793 7.22306 9.00002 8.00019C8.64809 8.33459 8.00233 8.63372 8.00002 9.00019C7.99596 9.62969 8.79165 10.5373 10 11.0002C11.5466 11.5926 12.9937 11.2159 18 12.0002C22.3282 12.6783 24.3701 13.608 26 14.0002C26.9579 14.2306 28.5157 14.7944 29 15.0002V14.0002C29 12.1205 27.9823 9.89592 27 8.00019H26C23.6446 7.55784 22.6768 7.16173 21 7.00019C19.0775 6.815 16.8238 6.89572 15 7.00019ZM1.00002 11.0002C0.680742 12.3041 1.00087 12.5995 1.00002 14.0002C0.999401 14.9633 0.923768 15.5289 1.00002 16.0002C1.1245 16.7691 1.78311 18.3859 2.00002 19.0002H3.00002C5.61336 19.5603 8.33377 20.8329 11 21.0002C12.3681 21.086 15.9203 21.0853 17 21.0002C21.7757 20.6237 25 19.4701 25 18.0002C25 17.311 24.3193 16.5118 23 16.0002C21.5257 15.4285 19.8553 14.9148 14 14.0002C9.3948 13.2808 6.90182 13.6165 5.00002 13.0002C3.55269 12.5311 2.69301 11.6059 2.00002 11.0002C1.80899 10.8332 2.0126 11.0002 2.00002 11.0002C1.98744 11.0002 1.09703 10.604 1.00002 11.0002ZM27 21.0002C24.778 21.6672 20.8694 22.809 17 23.0002C15.2808 23.0851 10.6265 22.1173 9.00002 22.0002C6.86811 21.8467 3.18146 22.1083 3.00002 22.0002C2.8923 21.936 3.73754 21.633 4.00002 22.0002C4.94884 23.3276 5.48952 25.0237 7.00002 26.0002C7.711 26.4598 9.19491 26.7425 10 27.0002C11.6039 27.5136 13.4047 27.9993 15 28.0002C17.2828 28.0014 20.1365 26.9846 22 26.0002L24 27.0002C26.0577 27.549 27.0438 27.7433 28 28.0002C28.5628 28.1514 29.2146 28.1159 29 28.0002C28.7446 27.8624 27.4169 27.4119 27 27.0002C26.2855 26.2946 26.1794 25.7208 26 25.0002C25.8879 24.5501 25.8593 23.4003 26 23.0002C26.1194 22.6611 26.4078 22.9022 27 22.0002C27.1805 21.7253 27.0099 21.0086 27 21.0002C27.1396 20.9583 26.9902 20.9918 27 21.0002Z" fill="url(#paint0_linear_1_469)"/>
<defs>
<linearGradient id="paint0_linear_1_469" x1="7.7029" y1="28.1007" x2="28.1135" y2="9.8239" gradientUnits="userSpaceOnUse">
<stop stop-color="#11E5B3"/>
<stop offset="1" stop-color="#5263FE"/>
</linearGradient>
</defs>
</svg>
