<svg width="50" height="37" viewBox="0 0 50 37" fill="none" xmlns="http://www.w3.org/2000/svg">
<path d="M44.0367 6.80905L44.0368 6.80893L48.0378 1.17954L40.654 1.31069L40.6539 1.31069L31.76 1.46922L25.4579 9.35884L25.4578 9.35892C23.6452 11.6276 21.9513 13.7681 20.6826 15.3886C20.048 16.1991 19.5213 16.8777 19.1397 17.3765C18.9889 17.5737 18.862 17.7411 18.7608 17.8765C18.8033 17.9588 18.8563 18.0563 18.921 18.1699C19.2058 18.6694 19.6561 19.371 20.2459 20.2311C21.4214 21.9456 23.108 24.2272 25.0207 26.6579L25.0207 26.658L31.7094 35.1596H40.5879H47.9516L46.8286 33.6636L47.6283 33.0633L46.8286 33.6636C45.5434 31.9515 42.6036 27.9162 40.293 24.6937L40.2929 24.6936L36.0946 18.837L35.6609 18.2321L36.116 17.643L37.5146 15.8328C37.5146 15.8328 37.5146 15.8327 37.5147 15.8327C37.5147 15.8326 37.5148 15.8325 37.5149 15.8324C38.2695 14.8545 41.2021 10.7986 44.0367 6.80905ZM18.5341 8.85263L18.5342 8.85257L20.2778 6.49483L15.7678 6.61324L9.66726 6.77342L5.38613 12.0208C4.13765 13.5514 3.00152 15.0159 2.17822 16.1397C1.76544 16.7031 1.43849 17.1711 1.21694 17.5144C1.17144 17.5849 1.13192 17.6477 1.09802 17.7032C1.11694 17.7362 1.13786 17.772 1.16088 17.8108C1.34243 18.1162 1.61459 18.5354 1.95913 19.0415C2.64566 20.05 3.58737 21.3566 4.5863 22.695C5.58465 24.0327 6.63367 25.3934 7.53329 26.5097C8.42896 27.6211 9.12757 28.428 9.48163 28.7572C9.49163 28.7595 9.58543 28.8079 9.83811 28.8698C10.1493 28.946 10.59 29.0174 11.1693 29.0774C12.3242 29.197 13.9337 29.2618 15.9593 29.2618H20.2801L18.5152 26.8754L18.5151 26.8752C16.8961 24.6854 14.8393 21.8982 13.9451 20.6798C13.945 20.6798 13.945 20.6798 13.945 20.6797L12.3213 18.4682L11.8868 17.8764L12.3213 17.2846L13.9451 15.0729L13.9451 15.0728C14.8392 13.8552 16.9048 11.0562 18.5341 8.85263Z" stroke="#11E5B3" stroke-width="2"/>
</svg>
