<svg width="50" height="37" viewBox="0 0 50 37" fill="none" xmlns="http://www.w3.org/2000/svg">
<path d="M5.96371 6.80905L5.96363 6.80893L1.96264 1.17954L9.34644 1.31069L9.3465 1.31069L18.2404 1.46922L24.5426 9.35884L24.5426 9.35892C26.3552 11.6276 28.0491 13.7681 29.3178 15.3886C29.9524 16.1991 30.4792 16.8777 30.8607 17.3765C31.0116 17.5737 31.1384 17.7411 31.2396 17.8765C31.1972 17.9588 31.1442 18.0563 31.0794 18.1699C30.7946 18.6694 30.3443 19.371 29.7546 20.2311C28.579 21.9456 26.8924 24.2272 24.9798 26.6579L24.9797 26.658L18.291 35.1596H9.41255H2.04878L3.17181 33.6636L2.37208 33.0633L3.17183 33.6636C4.45704 31.9515 7.39685 27.9162 9.70748 24.6937L9.70753 24.6936L13.9059 18.837L14.3395 18.2321L13.8844 17.643L12.4859 15.8328C12.4858 15.8328 12.4858 15.8327 12.4858 15.8327C12.4857 15.8326 12.4856 15.8325 12.4855 15.8324C11.731 14.8545 8.7983 10.7986 5.96371 6.80905ZM31.4663 8.85263L31.4662 8.85257L29.7226 6.49483L34.2326 6.61324L40.3332 6.77342L44.6143 12.0208C45.8628 13.5514 46.9989 15.0159 47.8222 16.1397C48.235 16.7031 48.5619 17.1711 48.7835 17.5144C48.829 17.5849 48.8685 17.6477 48.9024 17.7032C48.8835 17.7362 48.8626 17.772 48.8396 17.8108C48.658 18.1162 48.3858 18.5354 48.0413 19.0415C47.3548 20.05 46.4131 21.3566 45.4141 22.695C44.4158 24.0327 43.3668 25.3934 42.4671 26.5097C41.5715 27.6211 40.8729 28.428 40.5188 28.7572C40.5088 28.7595 40.415 28.8079 40.1623 28.8698C39.8511 28.946 39.4104 29.0174 38.8311 29.0774C37.6762 29.197 36.0667 29.2618 34.0412 29.2618H29.7203L31.4852 26.8754L31.4853 26.8752C33.1043 24.6854 35.1612 21.8982 36.0554 20.6798C36.0554 20.6798 36.0554 20.6798 36.0554 20.6797L37.6791 18.4682L38.1136 17.8764L37.6791 17.2846L36.0554 15.0729L36.0553 15.0728C35.1612 13.8552 33.0957 11.0562 31.4663 8.85263Z" stroke="#11E5B3" stroke-width="2"/>
</svg>
