<svg width="1762" height="20" viewBox="0 0 1762 20" fill="none" xmlns="http://www.w3.org/2000/svg">
<path fill-rule="evenodd" clip-rule="evenodd" d="M202 0H239L234 7L229 7.00002L141.414 7.00001L147.414 13H148.877H150.766H152.668H154.582H156.509H158.449H160.4H162.364H164.34H166.328H168.329H170.341H172.365H174.401H176.449H178.509H180.581H182.664H184.758H186.865H188.982H191.111H193.252H195.403H197.566H199.74H201.926H204.122H206.329H208.547H210.776H213.015H215.266H217.527H219.798H222.081H224.373H226.676H228.99H231.313H233.647H235.991H238.346H240.71H243.084H245.468H247.862H250.266H252.679H255.102H257.535H259.978H262.429H264.891H267.361H269.841H272.33H274.828H277.336H279.852H282.378H284.912H287.455H290.007H292.568H295.138H297.716H300.302H302.897H305.501H308.113H310.733H311.083C311.559 10.1623 314.027 8 317 8C319.973 8 322.441 10.1623 322.917 13H323.957H326.626H329.302H331.987H334.679H337.379H340.087H342.802H345.525H348.255H350.992H353.737H356.489H359.248H362.015H364.788H367.569H370.356H373.15H375.952H378.76H381.574H384.395H387.223H390.058H392.899H395.746H398.599H401.459H404.325H407.197H410.076H412.96H415.85H418.746H421.648H424.556H427.47H430.389H433.314H436.244H439.18H442.121H445.067H448.019H450.976H453.938H456.906H459.878H462.855H465.837H468.824H471.816H474.813H477.814H480.82H483.83H486.845H489.864H492.888H495.916H498.948H501.984H505.025H508.069H511.118H514.17H517.227H520.287H523.35H526.418H529.489H532.564H535.642H538.723H541.808H544.897H547.988H551.083H554.181H557.281H560.385H563.492H566.602H569.714H572.83H575.947H579.068H582.191H585.317H588.445H591.575H594.708H597.843H600.98H604.12H607.261H610.405H613.55H616.697H619.846H622.997H626.15H629.304H632.46H635.617H638.776H641.936H645.097H648.26H651.424H654.589H657.755H660.922H664.091H667.26H670.43H673.6H676.772H679.944H683.116H686.289H689.463H692.637H695.811H698.986H702.161H705.336H708.511H711.686H714.861H718.036H721.211H724.386H727.56H730.734H733.908H737.081H740.254H743.426H746.597H749.768H752.938H756.107H759.276H762.443H765.609H768.774H771.938H775.101H778.263H781.423H784.582H787.739H790.895H794.05H797.202H800.353H803.503H806.65H809.796H812.939H816.081H819.22H822.358H825.493H828.626H831.757H834.885H838.011H841.134H844.255H847.373H850.488H853.601H856.711H859.818H862.922H866.023H869.121H872.216H875.308H878.397H881.482H884.564H887.642H890.717H893.789H896.857H899.921H902.981H906.038H909.09H912.139H915.184H918.225H921.262H924.294H927.322H930.346H933.366H936.381H939.392H942.398H945.4H948.397H951.389H954.377H957.359H960.337H963.31H966.277H969.24H972.197H975.15H978.097H981.038H983.975H986.905H989.831H992.75H995.664H998.572H1001.47H1004.37H1007.26H1010.15H1013.03H1015.9H1018.77H1021.63H1024.48H1027.33H1030.17H1033H1035.83H1038.65H1041.47H1044.28H1047.08H1049.87H1052.66H1055.44H1058.22H1060.99H1063.74H1066.5H1069.24H1071.98H1074.71H1077.44H1080.15H1082.86H1085.56H1088.25H1090.94H1093.62H1096.29H1098.95H1101.6H1104.25H1106.88H1109.51H1112.13H1114.75H1117.35H1119.95H1122.53H1125.11H1127.68H1130.24H1132.8H1135.34H1137.88H1140.4H1142.92H1145.43H1147.93H1150.42H1152.9H1155.37H1157.83H1160.28H1162.73H1165.16H1167.58H1170H1172.4H1174.8H1177.18H1179.56H1181.92H1184.28H1186.62H1188.96H1191.28H1193.6H1195.9H1198.19H1200.48H1202.75H1205.01H1207.26H1209.5H1211.73H1213.95H1216.16H1218.36H1220.54H1222.72H1224.88H1227.04H1229.18H1231.31H1233.43H1235.53H1237.63H1239.71H1241.79H1243.85H1245.89H1247.93H1249.96H1251.97H1253.97H1255.96H1257.94H1259.9H1261.86H1263.8H1265.72H1267.64H1269.54H1271.43H1273.31H1275.18H1277.03H1278.87H1280.7H1282.51H1284.31H1286.1H1287.87H1289.63H1291.38H1293.12H1294.84H1296.55H1298.24H1299.92H1301.59H1303.24H1304.88H1306.51H1308.12H1309.72H1311.3H1312.87H1314.43H1315.97H1317.5H1319.01H1320.51H1322H1323.47H1324.92H1326.36H1327.79H1329.2H1330.6H1331.98H1333.35H1334.7H1336.04H1337.36H1338.67H1339.96H1341.24H1342.5H1343.74H1344.97H1346.19H1347.39H1348.57H1349.74H1350.89H1352.02H1353.14H1354.25H1355.34H1356.41H1357.47H1358.5H1359.53H1360.54H1361.53H1362.5H1363.46H1364.4H1365.32H1366.23H1367.12H1368H1368.85H1369.69H1370.52H1371.32H1372.11H1372.89H1373.64H1374.38H1375.1H1375.8H1376.48H1377.15H1377.8H1378.43H1379.05H1379.64H1380.22H1380.78H1381.33H1381.85H1382.36H1382.85H1383.32H1383.77H1384.2H1384.62H1385.01H1385.39H1385.75H1386.09H1386.41H1386.72H1387V15H1386.72H1386.41H1386.09H1385.75H1385.39H1385.01H1384.62H1384.2H1383.77H1383.32H1382.85H1382.36H1381.85H1381.33H1380.78H1380.22H1379.64H1379.05H1378.43H1377.8H1377.15H1376.48H1375.8H1375.1H1374.38H1373.64H1372.89H1372.11H1371.32H1370.52H1369.69H1368.85H1368H1367.12H1366.23H1365.32H1364.4H1363.46H1362.5H1361.53H1360.54H1359.53H1358.5H1357.47H1356.41H1355.34H1354.25H1353.14H1352.02H1350.89H1349.74H1348.57H1347.39H1346.19H1344.97H1343.74H1342.5H1341.24H1339.96H1338.67H1337.36H1336.04H1334.7H1333.35H1331.98H1330.6H1329.2H1327.79H1326.36H1324.92H1323.47H1322H1320.51H1319.01H1317.5H1315.97H1314.43H1312.87H1311.3H1309.72H1308.12H1306.51H1304.88H1303.24H1301.59H1299.92H1298.24H1296.55H1294.84H1293.12H1291.38H1289.63H1287.87H1286.1H1284.31H1282.51H1280.7H1278.87H1277.03H1275.18H1273.31H1271.43H1269.54H1267.64H1265.72H1263.8H1261.86H1259.9H1257.94H1255.96H1253.97H1251.97H1249.96H1247.93H1245.89H1243.85H1241.79H1239.71H1237.63H1235.53H1233.43H1231.31H1229.18H1227.04H1224.88H1222.72H1220.54H1218.36H1216.16H1213.95H1211.73H1209.5H1207.26H1205.01H1202.75H1200.48H1198.19H1195.9H1193.6H1191.28H1188.96H1186.62H1184.28H1181.92H1179.56H1177.18H1174.8H1172.4H1170H1167.58H1165.16H1162.73H1160.28H1157.83H1155.37H1152.9H1150.42H1147.93H1145.43H1142.92H1140.4H1137.88H1135.34H1132.8H1130.24H1127.68H1125.11H1122.53H1119.95H1117.35H1114.75H1112.13H1109.51H1106.88H1104.25H1101.6H1098.95H1096.29H1093.62H1090.94H1088.25H1085.56H1082.86H1080.15H1077.44H1074.71H1071.98H1069.24H1066.5H1063.74H1060.99H1058.22H1055.44H1052.66H1049.87H1047.08H1044.28H1041.47H1038.65H1035.83H1033H1030.17H1027.33H1024.48H1021.63H1018.77H1015.9H1013.03H1010.15H1007.26H1004.37H1001.47H998.572H995.664H992.75H989.831H986.905H983.975H981.038H978.097H975.15H972.197H969.24H966.277H963.31H960.337H957.359H954.377H951.389H948.397H945.4H942.398H939.392H936.381H933.366H930.346H927.322H924.294H921.262H918.225H915.184H912.139H909.09H906.038H902.981H899.921H896.857H893.789H890.717H887.642H884.564H881.482H878.397H875.308H872.216H869.121H866.023H862.922H859.818H856.711H853.601H850.488H847.373H844.255H841.134H838.011H834.885H831.757H828.626H825.493H822.358H819.22H816.081H812.939H809.796H806.65H803.503H800.353H797.202H794.05H790.895H787.739H784.582H781.423H778.263H775.101H771.938H768.774H765.609H762.443H759.276H756.107H752.938H749.768H746.597H743.426H740.254H737.081H733.908H730.734H727.56H724.386H721.211H718.036H714.861H711.686H708.511H705.336H702.161H698.986H695.811H692.637H689.463H686.289H683.116H679.944H676.772H673.6H670.43H667.26H664.091H660.922H657.755H654.589H651.424H648.26H645.097H641.936H638.776H635.617H632.46H629.304H626.15H622.997H619.846H616.697H613.55H610.405H607.261H604.12H600.98H597.843H594.708H591.575H588.445H585.317H582.191H579.068H575.947H572.83H569.714H566.602H563.492H560.385H557.281H554.181H551.083H547.988H544.897H541.808H538.723H535.642H532.564H529.489H526.418H523.35H520.287H517.227H514.17H511.118H508.069H505.025H501.984H498.948H495.916H492.888H489.864H486.845H483.83H480.82H477.814H474.813H471.816H468.824H465.837H462.855H459.878H456.906H453.938H450.976H448.019H445.067H442.121H439.18H436.244H433.314H430.389H427.47H424.556H421.648H418.746H415.85H412.96H410.076H407.197H404.325H401.459H398.599H395.746H392.899H390.058H387.223H384.395H381.574H378.76H375.952H373.15H370.356H367.569H364.788H362.015H359.248H356.489H353.737H350.992H348.255H345.525H342.802H340.087H337.379H334.679H331.987H329.302H326.626H323.957H322.917C322.441 17.8377 319.973 20 317 20C314.027 20 311.559 17.8377 311.083 15H310.733H308.113H305.501H302.897H300.302H297.716H295.138H292.568H290.007H287.455H284.912H282.378H279.852H277.336H274.828H272.33H269.841H267.361H264.891H262.429H259.978H257.535H255.102H252.679H250.266H247.862H245.468H243.084H240.71H238.346H235.991H233.647H231.313H228.99H226.676H224.373H222.081H219.798H217.527H215.266H213.015H210.776H208.547H206.329H204.122H201.926H199.74H197.566H195.403H193.252H191.111H188.982H186.865H184.758H182.664H180.581H178.509H176.449H174.401H172.365H170.341H168.329H166.328H164.34H162.364H160.4H158.449H156.509H154.582H152.668H150.766H148.877H147H146.586L146.293 14.7071L138.586 7.00001L0 7V5L198.429 5.00002L202 0Z" fill="#CF52FE"/>
<path fill-rule="evenodd" clip-rule="evenodd" d="M1401 0H1364L1369 7H1374H1406H1461.59L1455.59 13H1454.12H1452.23H1450.33H1448.42H1446.49H1444.55H1442.6H1440.64H1438.66H1436.67H1434.67H1432.66H1430.63H1428.6H1426.55H1424.49H1422.42H1420.34H1418.24H1416.14H1414.02H1411.89H1409.75H1407.6H1405.43H1403.26H1401.07H1398.88H1396.67H1394.45H1392.22H1389.98H1387.73H1385.47H1383.2H1380.92H1378.63H1376.32H1374.01H1371.69H1369.35H1367.01H1364.65H1362.29H1359.92H1357.53H1355.14H1352.73H1350.32H1347.9H1345.46H1343.02H1340.57H1338.11H1335.64H1333.16H1330.67H1328.17H1325.66H1323.15H1320.62H1318.09H1315.54H1312.99H1310.43H1307.86H1305.28H1302.7H1300.1H1297.5H1294.89H1292.27H1291.92C1291.44 10.1623 1288.97 8 1286 8C1283.03 8 1280.56 10.1623 1280.08 13H1279.04H1276.37H1273.7H1271.01H1268.32H1265.62H1262.91H1260.2H1257.48H1254.75H1252.01H1249.26H1246.51H1243.75H1240.99H1238.21H1235.43H1232.64H1229.85H1227.05H1224.24H1221.43H1218.6H1215.78H1212.94H1210.1H1207.25H1204.4H1201.54H1198.67H1195.8H1192.92H1190.04H1187.15H1184.25H1181.35H1178.44H1175.53H1172.61H1169.69H1166.76H1163.82H1160.88H1157.93H1154.98H1152.02H1149.06H1146.09H1143.12H1140.14H1137.16H1134.18H1131.18H1128.19H1125.19H1122.18H1119.17H1116.15H1113.14H1110.11H1107.08H1104.05H1101.02H1097.98H1094.93H1091.88H1088.83H1085.77H1082.71H1079.65H1076.58H1073.51H1070.44H1067.36H1064.28H1061.19H1058.1H1055.01H1051.92H1048.82H1045.72H1042.61H1039.51H1036.4H1033.29H1030.17H1027.05H1023.93H1020.81H1017.68H1014.56H1011.42H1008.29H1005.16H1002.02H998.88H995.739H992.595H989.45H986.303H983.154H980.003H976.85H973.696H970.54H967.383H964.224H961.064H957.903H954.74H951.576H948.411H945.245H942.078H938.909H935.74H932.57H929.4H926.228H923.056H919.884H916.711H913.537H910.363H907.189H904.014H900.839H897.664H894.489H891.314H888.139H884.964H881.789H878.614H875.44H872.266H869.092H865.919H862.746H859.574H856.403H853.232H850.062H846.893H843.724H840.557H837.391H834.226H831.062H827.899H824.737H821.577H818.418H815.261H812.105H808.95H805.798H802.647H799.497H796.35H793.204H790.061H786.919H783.78H780.642H777.507H774.374H771.243H768.115H764.989H761.866H758.745H755.627H752.512H749.399H746.289H743.182H740.078H736.977H733.879H730.784H727.692H724.603H721.518H718.436H715.358H712.283H709.211H706.144H703.079H700.019H696.962H693.91H690.861H687.816H684.775H681.739H678.706H675.678H672.654H669.634H666.619H663.608H660.602H657.6H654.603H651.611H648.623H645.641H642.663H639.69H636.723H633.76H630.802H627.85H624.903H621.962H619.025H616.095H613.169H610.25H607.336H604.427H601.525H598.628H595.738H592.853H589.974H587.101H584.235H581.374H578.52H575.672H572.831H569.996H567.167H564.346H561.531H558.722H555.92H553.125H550.337H547.556H544.782H542.015H539.255H536.502H533.757H531.019H528.288H525.565H522.849H520.141H517.44H514.747H512.062H509.385H506.715H504.053H501.4H498.754H496.117H493.488H490.867H488.254H485.65H483.054H480.467H477.888H475.317H472.756H470.203H467.659H465.124H462.598H460.081H457.572H455.073H452.583H450.103H447.631H445.169H442.717H440.273H437.84H435.416H433.002H430.597H428.202H425.817H423.442H421.077H418.722H416.377H414.042H411.718H409.403H407.099H404.806H402.523H400.25H397.988H395.737H393.496H391.266H389.047H386.839H384.642H382.456H380.281H378.117H375.965H373.823H371.693H369.574H367.467H365.372H363.287H361.215H359.154H357.105H355.068H353.043H351.029H349.028H347.039H345.062H343.097H341.144H339.203H337.276H335.36H333.457H331.567H329.689H327.823H325.971H324.132H322.305H320.491H318.69H316.903H315.128H313.367H311.619H309.884H308.162H306.454H304.76H303.078H301.411H299.757H298.118H296.491H294.879H293.281H291.696H290.126H288.57H287.028H285.5H283.986H282.487H281.002H279.532H278.076H276.635H275.209H273.797H272.4H271.018H269.651H268.299H266.962H265.64H264.333H263.041H261.765H260.504H259.258H258.028H256.813H255.614H254.431H253.263H252.111H250.975H249.855H248.751H247.663H246.591H245.535H244.495H243.472H242.465H241.474H240.5H239.542H238.601H237.676H236.769H235.878H235.003H234.146H233.306H232.482H231.676H230.887H230.115H229.36H228.623H227.903H227.201H226.516H225.848H225.198H224.566H223.952H223.355H222.777H222.216H221.673H221.149H220.642H220.154H219.684H219.232H218.798H218.383H217.987H217.609H217.25H216.909H216.587H216.284H216V15H216.284H216.587H216.909H217.25H217.609H217.987H218.383H218.798H219.232H219.684H220.154H220.642H221.149H221.673H222.216H222.777H223.355H223.952H224.566H225.198H225.848H226.516H227.201H227.903H228.623H229.36H230.115H230.887H231.676H232.482H233.306H234.146H235.003H235.878H236.769H237.676H238.601H239.542H240.5H241.474H242.465H243.472H244.495H245.535H246.591H247.663H248.751H249.855H250.975H252.111H253.263H254.431H255.614H256.813H258.028H259.258H260.504H261.765H263.041H264.333H265.64H266.962H268.299H269.651H271.018H272.4H273.797H275.209H276.635H278.076H279.532H281.002H282.487H283.986H285.5H287.028H288.57H290.126H291.696H293.281H294.879H296.491H298.118H299.757H301.411H303.078H304.76H306.454H308.162H309.884H311.619H313.367H315.128H316.903H318.69H320.491H322.305H324.132H325.971H327.823H329.689H331.567H333.457H335.36H337.276H339.203H341.144H343.097H345.062H347.039H349.028H351.029H353.043H355.068H357.105H359.154H361.215H363.287H365.372H367.467H369.574H371.693H373.823H375.965H378.117H380.281H382.456H384.642H386.839H389.047H391.266H393.496H395.737H397.988H400.25H402.523H404.806H407.099H409.403H411.718H414.042H416.377H418.722H421.077H423.442H425.817H428.202H430.597H433.002H435.416H437.84H440.273H442.717H445.169H447.631H450.103H452.583H455.073H457.572H460.081H462.598H465.124H467.659H470.203H472.756H475.317H477.888H480.467H483.054H485.65H488.254H490.867H493.488H496.117H498.754H501.4H504.053H506.715H509.385H512.062H514.747H517.44H520.141H522.849H525.565H528.288H531.019H533.757H536.502H539.255H542.015H544.782H547.556H550.337H553.125H555.92H558.722H561.531H564.346H567.167H569.996H572.831H575.672H578.52H581.374H584.235H587.101H589.974H592.853H595.738H598.628H601.525H604.427H607.336H610.25H613.169H616.095H619.025H621.962H624.903H627.85H630.802H633.76H636.723H639.69H642.663H645.641H648.623H651.611H654.603H657.6H660.602H663.608H666.619H669.634H672.654H675.678H678.706H681.739H684.775H687.816H690.861H693.91H696.962H700.019H703.079H706.144H709.211H712.283H715.358H718.436H721.518H724.603H727.692H730.784H733.879H736.977H740.078H743.182H746.289H749.399H752.512H755.627H758.745H761.866H764.989H768.115H771.243H774.374H777.507H780.642H783.78H786.919H790.061H793.204H796.35H799.497H802.647H805.798H808.95H812.105H815.261H818.418H821.577H824.737H827.899H831.062H834.226H837.391H840.557H843.724H846.893H850.062H853.232H856.403H859.574H862.746H865.919H869.092H872.266H875.44H878.614H881.789H884.964H888.139H891.314H894.489H897.664H900.839H904.014H907.189H910.363H913.537H916.711H919.884H923.056H926.228H929.4H932.57H935.74H938.909H942.078H945.245H948.411H951.576H954.74H957.903H961.064H964.224H967.383H970.54H973.696H976.85H980.003H983.154H986.303H989.45H992.595H995.739H998.88H1002.02H1005.16H1008.29H1011.42H1014.56H1017.68H1020.81H1023.93H1027.05H1030.17H1033.29H1036.4H1039.51H1042.61H1045.72H1048.82H1051.92H1055.01H1058.1H1061.19H1064.28H1067.36H1070.44H1073.51H1076.58H1079.65H1082.71H1085.77H1088.83H1091.88H1094.93H1097.98H1101.02H1104.05H1107.08H1110.11H1113.14H1116.15H1119.17H1122.18H1125.19H1128.19H1131.18H1134.18H1137.16H1140.14H1143.12H1146.09H1149.06H1152.02H1154.98H1157.93H1160.88H1163.82H1166.76H1169.69H1172.61H1175.53H1178.44H1181.35H1184.25H1187.15H1190.04H1192.92H1195.8H1198.67H1201.54H1204.4H1207.25H1210.1H1212.94H1215.78H1218.6H1221.43H1224.24H1227.05H1229.85H1232.64H1235.43H1238.21H1240.99H1243.75H1246.51H1249.26H1252.01H1254.75H1257.48H1260.2H1262.91H1265.62H1268.32H1271.01H1273.7H1276.37H1279.04H1280.08C1280.56 17.8377 1283.03 20 1286 20C1288.97 20 1291.44 17.8377 1291.92 15H1292.27H1294.89H1297.5H1300.1H1302.7H1305.28H1307.86H1310.43H1312.99H1315.54H1318.09H1320.62H1323.15H1325.66H1328.17H1330.67H1333.16H1335.64H1338.11H1340.57H1343.02H1345.46H1347.9H1350.32H1352.73H1355.14H1357.53H1359.92H1362.29H1364.65H1367.01H1369.35H1371.69H1374.01H1376.32H1378.63H1380.92H1383.2H1385.47H1387.73H1389.98H1392.22H1394.45H1396.67H1398.88H1401.07H1403.26H1405.43H1407.6H1409.75H1411.89H1414.02H1416.14H1418.24H1420.34H1422.42H1424.49H1426.55H1428.6H1430.63H1432.66H1434.67H1436.67H1438.66H1440.64H1442.6H1444.55H1446.49H1448.42H1450.33H1452.23H1454.12H1456H1456.41L1456.71 14.7071L1464.41 7H1762V5H1404.57L1401 0Z" fill="#CF52FE"/>
</svg>
