<svg width="58" height="58" viewBox="0 0 58 58" fill="none" xmlns="http://www.w3.org/2000/svg">
<g filter="url(#filter0_d_1_401)">
<path fill-rule="evenodd" clip-rule="evenodd" d="M25 0.999772C16.6239 2.51256 9.09529 8.0376 6.00001 15.9998C5.33823 17.7021 5.0837 20.6857 5.00001 21.9998C4.95873 22.6473 4.83302 22.7359 5.00001 22.9998C5.10649 23.1679 5.8318 22.8973 6.00001 22.9998C6.28972 23.1764 5.88869 22.9998 9.00001 22.9998C12.1113 22.9998 12.7103 23.1764 13 22.9998C13.4362 22.734 13.8174 22.9344 14 21.9998C14.3561 20.1771 14.829 17.776 16 15.9998C16.8416 14.7232 18.7069 12.8558 20 11.9998C21.7662 10.8306 24.1719 10.3567 26 9.99977C26.9349 9.81717 26.7341 9.43579 27 8.99977C27.1767 8.71016 27 8.11014 27 4.99977C27 1.88941 27.1767 2.28939 27 1.99977C26.5868 1.32206 26.5316 0.7231 25 0.999772ZM31 0.999772C30.8318 1.10622 30.1036 1.83161 30 1.99977C29.8194 2.29295 29.9761 1.78999 30 4.99977C30.0241 8.22146 30.812 8.74495 31 8.99977C31.274 9.37126 31.6552 9.68333 33 9.99977C35.8915 10.68 37.8795 11.8734 40 13.9998C41.2303 15.2334 42.2184 16.4316 43 17.9998C43.6821 19.3681 43.6858 20.5508 44 21.9998C44.1867 22.8606 44 23.1551 44 24.9998C44 26.829 44.18 27.1748 44 27.9998C43.5704 29.9675 43.0778 31.3291 42 32.9998C41.3956 33.9367 40.7696 34.3939 41 34.9998C41.1466 35.3853 45.5341 39.7742 46 39.9998C46.4658 40.2251 46.5086 40.1964 47 39.9998C47.833 39.6665 49.9432 36.7131 51 33.9998C52.0491 31.3062 52.9229 29.0764 53 25.9998C53.0723 23.1135 52.7609 20.5162 52 17.9998C49.4426 9.54137 42.6533 2.87242 34 0.999772C33.3808 0.865844 32.4128 1.02603 32 0.999772C31.3523 0.958506 31.2639 0.832831 31 0.999772ZM27 14.9998C26.8318 15.1023 27.1026 15.8316 27 15.9998C26.8176 16.2988 27.0003 16.7659 27 24.9998V32.9998H29H31V24.9998C30.9997 16.7659 31.1824 16.2988 31 15.9998C30.6386 15.4071 30.524 14.9998 29 14.9998C27.8077 14.9998 27.268 14.8364 27 14.9998ZM34 25.9998V32.9998H36C38.0688 32.9994 38.6174 32.6271 39 31.9998C39.181 31.7031 39 31.871 39 25.9998C39 20.1286 39.181 20.2964 39 19.9998C38.6174 19.3724 38.0688 19.0001 36 18.9998H34V25.9998ZM20 22.9998C19.8318 23.1023 19.1026 22.8316 19 22.9998C18.8213 23.2927 19 24.0003 19 27.9998C19 31.9992 18.8213 31.7069 19 31.9998C19.3826 32.6271 19.9312 32.9994 22 32.9998H24V27.9998V22.9998H22C20.3167 23.0001 20.2778 22.8304 20 22.9998ZM6.00001 25.9998C5.8318 26.1023 5.10649 26.8316 5.00001 26.9998C4.83302 27.2636 4.95873 27.3523 5.00001 27.9998C5.09392 29.4727 6.21158 32.066 7.00001 33.9998C10.0434 41.4644 16.0937 47.335 24 48.9998C27.1005 49.6526 30.9597 48.7113 34 47.9998C37.2694 47.2347 40.3176 45.94 43 43.9998C43.7639 43.4473 43.8781 43.3043 44 42.9998C44.1975 42.5064 44.2256 42.4658 44 41.9998C43.7744 41.534 39.3857 37.1464 39 36.9998C38.394 36.7694 37.9372 37.3955 37 37.9998C35.3133 39.0872 33.9783 39.5684 32 39.9998C31.1639 40.182 30.8356 39.9998 29 39.9998C26.6757 39.9998 25.7685 40.5879 24 39.9998C18.7539 38.255 15.0461 33.3522 14 27.9998C13.816 27.0581 13.4723 26.2369 13 25.9998C12.7081 25.8531 11.8947 25.9996 9.00001 25.9998C5.93569 26 6.28944 25.8233 6.00001 25.9998Z" fill="url(#paint0_linear_1_401)"/>
</g>
<defs>
<filter id="filter0_d_1_401" x="0.915741" y="0.915527" width="56.0945" height="56.3041" filterUnits="userSpaceOnUse" color-interpolation-filters="sRGB">
<feFlood flood-opacity="0" result="BackgroundImageFix"/>
<feColorMatrix in="SourceAlpha" type="matrix" values="0 0 0 0 0 0 0 0 0 0 0 0 0 0 0 0 0 0 127 0" result="hardAlpha"/>
<feOffset dy="4"/>
<feGaussianBlur stdDeviation="2"/>
<feComposite in2="hardAlpha" operator="out"/>
<feColorMatrix type="matrix" values="0 0 0 0 0 0 0 0 0 0 0 0 0 0 0 0 0 0 0.25 0"/>
<feBlend mode="normal" in2="BackgroundImageFix" result="effect1_dropShadow_1_401"/>
<feBlend mode="normal" in="SourceGraphic" in2="effect1_dropShadow_1_401" result="shape"/>
</filter>
<linearGradient id="paint0_linear_1_401" x1="36.9787" y1="0.915527" x2="23.3376" y2="77.3766" gradientUnits="userSpaceOnUse">
<stop stop-color="white"/>
<stop offset="1" stop-color="#CF52FE"/>
</linearGradient>
</defs>
</svg>
