<svg width="40" height="41" viewBox="0 0 40 41" fill="none" xmlns="http://www.w3.org/2000/svg">
<path fill-rule="evenodd" clip-rule="evenodd" d="M2 0.999929C1.21345 1.21353 0.363341 2.21457 0 2.99993V14.9999V26.9999V27.9999C0.301099 28.5943 1.41996 28.732 2 28.9999C2.39393 29.1819 1.90725 29.975 5 29.9999H9V21.9999C9.02593 15.024 8.85829 14.4793 9 13.9999C9.59226 11.9959 10.995 10.5919 13 9.99993C13.4796 9.85829 14.0205 10.0258 21 9.99993H29V5.99993C28.975 2.90876 28.1821 3.39366 28 2.99993C27.731 2.41807 27.5786 1.284 27 0.999929H26H14C4.70374 0.986836 2.3098 0.91584 2 0.999929ZM14 11.9999C13.1227 12.2086 12.4103 13.1667 12 13.9999L11 14.9999V26.9999V38.9999H12C12.2773 39.5613 12.4383 40.7228 13 40.9999H14H26H38C38.669 40.6708 39.6736 39.6954 40 38.9999V26.9999V14.9999V13.9999C39.6707 13.3313 38.6958 13.3262 38 12.9999V11.9999H26C19.2534 11.992 14.1869 11.9555 14 11.9999ZM27 22.9999V24.9999H29H31V26.9999V27.9999H29H27V29.9999V31.9999H26H24V29.9999V27.9999H22H20V26.9999V24.9999H22H24V22.9999V20.9999H26H27V22.9999Z" fill="url(#paint0_linear_1_422)"/>
<defs>
<linearGradient id="paint0_linear_1_422" x1="40" y1="-25.6138" x2="13.2716" y2="46.8164" gradientUnits="userSpaceOnUse">
<stop stop-color="white"/>
<stop offset="1" stop-color="white" stop-opacity="0"/>
</linearGradient>
</defs>
</svg>
